<?xml version="1.0" encoding="utf-8"?>
<!-- Generator: Adobe Illustrator 21.0.2, SVG Export Plug-In . SVG Version: 6.00 Build 0)  -->
<svg version="1.1" id="Layer_4" xmlns="http://www.w3.org/2000/svg" xmlns:xlink="http://www.w3.org/1999/xlink" x="0px" y="0px"
	 viewBox="0 0 150 190" style="enable-background:new 0 0 150 190;" xml:space="preserve">
<style type="text/css">
	.st0{fill:#FFFFFF;}
	.st1{fill:#231F20;stroke:#231F20;stroke-width:2.01;stroke-miterlimit:10;}
	.st2{fill:none;stroke:#231F20;stroke-width:0.45;stroke-miterlimit:10;}
	.st3{fill:none;stroke:#231F20;stroke-width:0.92;stroke-miterlimit:10;}
	.st4{fill:none;stroke:#231F20;stroke-width:0.41;stroke-miterlimit:10;}
	.st5{enable-background:new    ;}
	.st6{fill:#FFFFFF;stroke:#FFFFFF;stroke-width:1.02;stroke-linecap:round;stroke-miterlimit:10;}
	.st7{fill:none;stroke:#231F20;stroke-linecap:round;stroke-miterlimit:10;}
	.st8{fill:#FFD017;}
	.st9{fill:#EFB616;}
	.st10{fill:#231F20;}
	.st11{fill:#FFCC00;stroke:#231F20;stroke-linecap:round;stroke-miterlimit:10;}
</style>
<title>Artboard 1</title>
<rect class="st0" width="150" height="190"/>
<g>
	<circle class="st1" cx="75" cy="95" r="51.3"/>
	<path class="st2" d="M106,64.3c0-17.1-13.9-31-31-31s-31,13.9-31,31l31,31L106,64.3z"/>
	<line class="st2" x1="75" y1="95.3" x2="46.5" y2="52.1"/>
	<line class="st2" x1="75" y1="95.3" x2="103.5" y2="52.1"/>
	<line class="st2" x1="75" y1="95.3" x2="55.4" y2="40.3"/>
	<line class="st2" x1="75" y1="95.3" x2="94.6" y2="40.3"/>
	<path class="st2" d="M94.9,56.3C89.6,40,72.1,31.1,55.8,36.4S30.6,59.1,35.9,75.4L75,95.3L94.9,56.3z"/>
	<line class="st2" x1="75" y1="95.3" x2="34.5" y2="63"/>
	<line class="st2" x1="75" y1="95.3" x2="88.7" y2="45.4"/>
	<line class="st2" x1="75" y1="95.3" x2="39.3" y2="49.1"/>
	<line class="st2" x1="75" y1="95.3" x2="76.7" y2="37"/>
	<path class="st2" d="M81.9,52c-10.1-13.9-29.5-16.9-43.3-6.8s-16.9,29.5-6.8,43.3L75,95.3L81.9,52z"/>
	<line class="st2" x1="75" y1="95.3" x2="26.5" y2="77.1"/>
	<line class="st2" x1="75" y1="95.3" x2="72.6" y2="43.6"/>
	<line class="st2" x1="75" y1="95.3" x2="26.8" y2="62.4"/>
	<line class="st2" x1="75" y1="95.3" x2="58.6" y2="39.3"/>
	<path class="st2" d="M68.1,52c-13.9-10.1-33.3-7-43.3,6.9s-7,33.3,6.9,43.3L75,95.3L68.1,52z"/>
	<line class="st2" x1="75" y1="95.3" x2="23.3" y2="92.9"/>
	<line class="st2" x1="75" y1="95.3" x2="56.8" y2="46.9"/>
	<line class="st2" x1="75" y1="95.3" x2="19" y2="78.9"/>
	<line class="st2" x1="75" y1="95.3" x2="42" y2="47.1"/>
	<path class="st2" d="M55.1,56.3C38.8,51,21.3,59.9,16,76.2s3.6,33.8,19.9,39.1L75,95.3L55.1,56.3z"/>
	<line class="st2" x1="75" y1="95.3" x2="25.1" y2="109.1"/>
	<line class="st2" x1="75" y1="95.3" x2="42.7" y2="54.9"/>
	<line class="st2" x1="75" y1="95.3" x2="16.6" y2="97"/>
	<line class="st2" x1="75" y1="95.3" x2="28.8" y2="59.7"/>
	<path class="st2" d="M44,64.3c-17.1,0-31,13.9-31,31s13.9,31,31,31l31-31L44,64.3z"/>
	<line class="st2" x1="75" y1="95.3" x2="31.8" y2="123.8"/>
	<line class="st2" x1="75" y1="95.3" x2="31.8" y2="66.9"/>
	<line class="st2" x1="75" y1="95.3" x2="20" y2="115"/>
	<line class="st2" x1="75" y1="95.3" x2="20" y2="75.7"/>
	<path class="st2" d="M35.9,75.4C19.6,80.7,10.7,98.2,16,114.5s22.8,25.2,39.1,19.9L75,95.3L35.9,75.4z"/>
	<line class="st2" x1="75" y1="95.3" x2="42.7" y2="135.8"/>
	<line class="st2" x1="75" y1="95.3" x2="25.1" y2="81.6"/>
	<line class="st2" x1="75" y1="95.3" x2="28.8" y2="131"/>
	<line class="st2" x1="75" y1="95.3" x2="16.6" y2="93.7"/>
	<path class="st2" d="M31.7,88.5c-13.8,10.1-16.8,29.5-6.6,43.3c10.1,13.7,29.3,16.7,43.1,6.8L75,95.3L31.7,88.5z"/>
	<line class="st2" x1="75" y1="95.3" x2="56.8" y2="143.8"/>
	<line class="st2" x1="75" y1="95.3" x2="23.3" y2="97.7"/>
	<line class="st2" x1="75" y1="95.3" x2="42" y2="143.5"/>
	<line class="st2" x1="75" y1="95.3" x2="19" y2="111.8"/>
	<path class="st2" d="M31.7,102.2c-10.1,13.8-7.2,33.2,6.6,43.3s33.2,7.2,43.3-6.6c0.1-0.1,0.1-0.2,0.2-0.3L75,95.3L31.7,102.2z"/>
	<line class="st2" x1="75" y1="95.3" x2="72.6" y2="147.1"/>
	<line class="st2" x1="75" y1="95.3" x2="26.5" y2="113.6"/>
	<line class="st2" x1="75" y1="95.3" x2="58.6" y2="151.4"/>
	<line class="st2" x1="75" y1="95.3" x2="26.8" y2="128.3"/>
	<path class="st2" d="M35.9,115.2c-5.3,16.3,3.6,33.8,19.9,39.1c16.3,5.3,33.8-3.6,39.1-19.9L75,95.3L35.9,115.2z"/>
	<line class="st2" x1="75" y1="95.3" x2="88.7" y2="145.3"/>
	<line class="st2" x1="75" y1="95.3" x2="34.5" y2="127.7"/>
	<line class="st2" x1="75" y1="95.3" x2="76.7" y2="153.7"/>
	<line class="st2" x1="75" y1="95.3" x2="39.3" y2="141.6"/>
	<path class="st2" d="M44,126.3c0,17.1,13.9,31,31,31s31-13.9,31-31l-31-31L44,126.3z"/>
	<line class="st2" x1="75" y1="95.3" x2="103.5" y2="138.6"/>
	<line class="st2" x1="75" y1="95.3" x2="46.5" y2="138.6"/>
	<line class="st2" x1="75" y1="95.3" x2="94.6" y2="150.3"/>
	<line class="st2" x1="75" y1="95.3" x2="55.4" y2="150.3"/>
	<path class="st2" d="M55.1,134.4c5.3,16.3,22.8,25.2,39.1,19.9s25.2-22.8,19.9-39.1L75,95.3L55.1,134.4z"/>
	<line class="st2" x1="75" y1="95.3" x2="115.4" y2="127.7"/>
	<line class="st2" x1="75" y1="95.3" x2="61.3" y2="145.3"/>
	<line class="st2" x1="75" y1="95.3" x2="110.7" y2="141.6"/>
	<line class="st2" x1="75" y1="95.3" x2="73.3" y2="153.7"/>
	<path class="st2" d="M68.1,138.6c10,13.9,29.4,17.1,43.3,7.1c13.9-10,17.1-29.4,7.1-43.3c-0.1-0.1-0.1-0.2-0.2-0.3L75,95.3
		L68.1,138.6z"/>
	<line class="st2" x1="75" y1="95.3" x2="123.5" y2="113.6"/>
	<line class="st2" x1="75" y1="95.3" x2="77.4" y2="147.1"/>
	<line class="st2" x1="75" y1="95.3" x2="123.2" y2="128.3"/>
	<line class="st2" x1="75" y1="95.3" x2="91.4" y2="151.4"/>
	<path class="st2" d="M81.9,138.6c14,9.8,33.4,6.4,43.2-7.6c9.6-13.7,6.6-32.5-6.7-42.6L75,95.3L81.9,138.6z"/>
	<line class="st2" x1="75" y1="95.3" x2="126.7" y2="97.7"/>
	<line class="st2" x1="75" y1="95.3" x2="93.2" y2="143.8"/>
	<line class="st2" x1="75" y1="95.3" x2="131" y2="111.8"/>
	<line class="st2" x1="75" y1="95.3" x2="107.9" y2="143.5"/>
	<path class="st2" d="M94.9,134.4c16.3,5.3,33.8-3.6,39.1-19.9c5.3-16.3-3.6-33.8-19.9-39.1l0,0L75,95.3L94.9,134.4z"/>
	<line class="st2" x1="75" y1="95.3" x2="124.9" y2="81.6"/>
	<line class="st2" x1="75" y1="95.3" x2="107.3" y2="135.8"/>
	<line class="st2" x1="75" y1="95.3" x2="133.4" y2="93.7"/>
	<line class="st2" x1="75" y1="95.3" x2="121.2" y2="131"/>
	<path class="st2" d="M106,126.3c17.1,0,31-13.9,31-31s-13.9-31-31-31l-31,31L106,126.3z"/>
	<line class="st2" x1="75" y1="95.3" x2="118.2" y2="66.9"/>
	<line class="st2" x1="75" y1="95.3" x2="118.2" y2="123.8"/>
	<line class="st2" x1="75" y1="95.3" x2="130" y2="75.7"/>
	<line class="st2" x1="75" y1="95.3" x2="130" y2="115"/>
	<path class="st2" d="M114.1,115.2c16.3-5.3,25.2-22.8,19.9-39.1s-22.8-25.2-39.1-19.9L75,95.3L114.1,115.2z"/>
	<line class="st2" x1="75" y1="95.3" x2="107.3" y2="54.9"/>
	<line class="st2" x1="75" y1="95.3" x2="124.9" y2="109.1"/>
	<line class="st2" x1="75" y1="95.3" x2="121.2" y2="59.7"/>
	<line class="st2" x1="75" y1="95.3" x2="133.4" y2="97"/>
	<path class="st2" d="M118.3,102.2c13.9-10.1,16.9-29.5,6.9-43.3S95.7,41.9,81.9,52L75,95.3L118.3,102.2z"/>
	<line class="st2" x1="75" y1="95.3" x2="93.2" y2="46.9"/>
	<line class="st2" x1="75" y1="95.3" x2="126.7" y2="92.9"/>
	<line class="st2" x1="75" y1="95.3" x2="107.9" y2="47.1"/>
	<line class="st2" x1="75" y1="95.3" x2="131" y2="78.9"/>
	<path class="st2" d="M118.3,88.5c10.1-13.9,7-33.2-6.8-43.3s-33.2-7-43.3,6.8L75,95.3L118.3,88.5z"/>
	<line class="st2" x1="75" y1="95.3" x2="77.4" y2="43.6"/>
	<line class="st2" x1="75" y1="95.3" x2="123.5" y2="77.1"/>
	<line class="st2" x1="75" y1="95.3" x2="91.4" y2="39.3"/>
	<line class="st2" x1="75" y1="95.3" x2="123.2" y2="62.4"/>
	<path class="st2" d="M114.1,75.4c5.3-16.3-3.6-33.8-19.9-39.1S60.4,40,55.1,56.3l0,0L75,95.3L114.1,75.4z"/>
	<line class="st2" x1="75" y1="95.3" x2="61.3" y2="45.4"/>
	<line class="st2" x1="75" y1="95.3" x2="115.4" y2="63"/>
	<line class="st2" x1="75" y1="95.3" x2="73.3" y2="37"/>
	<line class="st2" x1="75" y1="95.3" x2="110.7" y2="49.1"/>
	<path class="st3" d="M107.1,63.2c0-17.7-14.4-32.1-32.1-32.1S42.9,45.5,42.9,63.2c0,0,0,0,0,0L75,95.3L107.1,63.2z"/>
	<line class="st3" x1="75" y1="95.3" x2="45.5" y2="50.5"/>
	<line class="st3" x1="75" y1="95.3" x2="104.5" y2="50.5"/>
	<line class="st3" x1="75" y1="95.3" x2="54.7" y2="38.4"/>
	<line class="st3" x1="75" y1="95.3" x2="95.3" y2="38.4"/>
	<path class="st3" d="M95.6,54.9C90.1,38,72,28.8,55.2,34.3S29.1,57.9,34.5,74.7l0,0L75,95.3L95.6,54.9z"/>
	<line class="st3" x1="75" y1="95.3" x2="33.1" y2="61.8"/>
	<line class="st3" x1="75" y1="95.3" x2="89.2" y2="43.6"/>
	<line class="st3" x1="75" y1="95.3" x2="38.1" y2="47.5"/>
	<line class="st3" x1="75" y1="95.3" x2="76.7" y2="34.9"/>
	<path class="st3" d="M82.1,50.5C71.7,36.1,51.6,33,37.3,43.4s-17.5,30.5-7.1,44.8c0,0,0,0,0,0L75,95.3L82.1,50.5z"/>
	<line class="st3" x1="75" y1="95.3" x2="24.8" y2="76.4"/>
	<line class="st3" x1="75" y1="95.3" x2="72.5" y2="41.8"/>
	<line class="st3" x1="75" y1="95.3" x2="25.1" y2="61.2"/>
	<line class="st3" x1="75" y1="95.3" x2="58" y2="37.3"/>
	<path class="st3" d="M67.9,50.5c-14.3-10.4-34.4-7.2-44.8,7.1s-7.2,34.4,7.1,44.8L75,95.3L67.9,50.5z"/>
	<line class="st3" x1="75" y1="95.3" x2="21.4" y2="92.9"/>
	<line class="st3" x1="75" y1="95.3" x2="56.1" y2="45.2"/>
	<line class="st3" x1="75" y1="95.3" x2="17" y2="78.3"/>
	<line class="st3" x1="75" y1="95.3" x2="40.9" y2="45.4"/>
	<path class="st3" d="M54.4,54.9c-16.9-5.5-35,3.7-40.5,20.6s3.7,35,20.6,40.4L75,95.3L54.4,54.9z"/>
	<line class="st3" x1="75" y1="95.3" x2="23.3" y2="109.5"/>
	<line class="st3" x1="75" y1="95.3" x2="41.5" y2="53.4"/>
	<line class="st3" x1="75" y1="95.3" x2="14.6" y2="97.1"/>
	<line class="st3" x1="75" y1="95.3" x2="27.1" y2="58.4"/>
	<path class="st3" d="M42.9,63.2c-17.7,0-32.1,14.4-32.1,32.1c0,17.7,14.4,32.1,32.1,32.1L75,95.3L42.9,63.2z"/>
	<line class="st3" x1="75" y1="95.3" x2="30.2" y2="124.8"/>
	<line class="st3" x1="75" y1="95.3" x2="30.2" y2="65.8"/>
	<line class="st3" x1="75" y1="95.3" x2="18" y2="115.7"/>
	<line class="st3" x1="75" y1="95.3" x2="18" y2="75"/>
	<path class="st3" d="M34.5,74.7c-16.9,5.5-26.1,23.6-20.6,40.4s23.6,26.1,40.5,20.6L75,95.3L34.5,74.7z"/>
	<line class="st3" x1="75" y1="95.3" x2="41.5" y2="137.2"/>
	<line class="st3" x1="75" y1="95.3" x2="23.3" y2="81.1"/>
	<line class="st3" x1="75" y1="95.3" x2="27.1" y2="132.3"/>
	<line class="st3" x1="75" y1="95.3" x2="14.6" y2="93.6"/>
	<path class="st3" d="M30.2,88.2c-14.3,10.4-17.5,30.5-7.1,44.8s30.5,17.5,44.8,7.1L75,95.3L30.2,88.2z"/>
	<line class="st3" x1="75" y1="95.3" x2="56.1" y2="145.5"/>
	<line class="st3" x1="75" y1="95.3" x2="21.4" y2="97.8"/>
	<line class="st3" x1="75" y1="95.3" x2="40.9" y2="145.2"/>
	<line class="st3" x1="75" y1="95.3" x2="17" y2="112.4"/>
	<path class="st3" d="M30.2,102.4c-10.4,14.3-7.2,34.4,7.1,44.8s34.4,7.2,44.8-7.1L75,95.3L30.2,102.4z"/>
	<line class="st3" x1="75" y1="95.3" x2="72.5" y2="148.9"/>
	<line class="st3" x1="75" y1="95.3" x2="24.8" y2="114.2"/>
	<line class="st3" x1="75" y1="95.3" x2="58" y2="153.4"/>
	<line class="st3" x1="75" y1="95.3" x2="25.1" y2="129.5"/>
	<path class="st3" d="M34.5,115.9c-5.5,16.9,3.7,35,20.6,40.4s35-3.7,40.4-20.6l0,0L75,95.3L34.5,115.9z"/>
	<line class="st3" x1="75" y1="95.3" x2="89.2" y2="147.1"/>
	<line class="st3" x1="75" y1="95.3" x2="33.1" y2="128.8"/>
	<line class="st3" x1="75" y1="95.3" x2="76.7" y2="155.8"/>
	<line class="st3" x1="75" y1="95.3" x2="38.1" y2="143.2"/>
	<path class="st3" d="M42.9,127.4c0,17.7,14.4,32.1,32.1,32.1c17.7,0,32.1-14.4,32.1-32.1c0,0,0,0,0,0L75,95.3L42.9,127.4z"/>
	<line class="st3" x1="75" y1="95.3" x2="104.5" y2="140.1"/>
	<line class="st3" x1="75" y1="95.3" x2="45.5" y2="140.1"/>
	<line class="st3" x1="75" y1="95.3" x2="95.3" y2="152.3"/>
	<line class="st3" x1="75" y1="95.3" x2="54.7" y2="152.3"/>
	<path class="st3" d="M54.4,135.8c5.5,16.9,23.6,26.1,40.4,20.6s26.1-23.6,20.6-40.4L75,95.3L54.4,135.8z"/>
	<line class="st3" x1="75" y1="95.3" x2="116.9" y2="128.8"/>
	<line class="st3" x1="75" y1="95.3" x2="60.8" y2="147.1"/>
	<line class="st3" x1="75" y1="95.3" x2="111.9" y2="143.2"/>
	<line class="st3" x1="75" y1="95.3" x2="73.3" y2="155.8"/>
	<path class="st3" d="M67.9,140.2c10.4,14.3,30.5,17.5,44.8,7.1s17.5-30.5,7.1-44.8l0,0L75,95.3L67.9,140.2z"/>
	<line class="st3" x1="75" y1="95.3" x2="125.2" y2="114.2"/>
	<line class="st3" x1="75" y1="95.3" x2="77.5" y2="148.9"/>
	<line class="st3" x1="75" y1="95.3" x2="124.9" y2="129.5"/>
	<line class="st3" x1="75" y1="95.3" x2="92" y2="153.4"/>
	<path class="st3" d="M82.1,140.2c14.3,10.4,34.4,7.2,44.8-7.1s7.2-34.4-7.1-44.8L75,95.3L82.1,140.2z"/>
	<line class="st3" x1="75" y1="95.3" x2="128.6" y2="97.8"/>
	<line class="st3" x1="75" y1="95.3" x2="93.9" y2="145.5"/>
	<line class="st3" x1="75" y1="95.3" x2="133" y2="112.4"/>
	<line class="st3" x1="75" y1="95.3" x2="109.1" y2="145.2"/>
	<path class="st3" d="M95.6,135.8c16.9,5.5,35-3.7,40.4-20.6s-3.7-35-20.6-40.4l0,0L75,95.3L95.6,135.8z"/>
	<line class="st3" x1="75" y1="95.3" x2="126.7" y2="81.1"/>
	<line class="st3" x1="75" y1="95.3" x2="108.5" y2="137.2"/>
	<line class="st3" x1="75" y1="95.3" x2="135.4" y2="93.6"/>
	<line class="st3" x1="75" y1="95.3" x2="122.9" y2="132.3"/>
	<path class="st3" d="M107.1,127.4c17.7,0,32.1-14.4,32.1-32.1c0-17.7-14.4-32.1-32.1-32.1L75,95.3L107.1,127.4z"/>
	<line class="st3" x1="75" y1="95.3" x2="119.8" y2="65.8"/>
	<line class="st3" x1="75" y1="95.3" x2="119.8" y2="124.8"/>
	<line class="st3" x1="75" y1="95.3" x2="131.9" y2="75"/>
	<line class="st3" x1="75" y1="95.3" x2="131.9" y2="115.7"/>
	<path class="st3" d="M115.4,115.9c16.9-5.5,26.1-23.6,20.6-40.5c-5.5-16.9-23.6-26.1-40.5-20.6L75,95.3L115.4,115.9z"/>
	<line class="st3" x1="75" y1="95.3" x2="108.5" y2="53.4"/>
	<line class="st3" x1="75" y1="95.3" x2="126.7" y2="109.5"/>
	<line class="st3" x1="75" y1="95.3" x2="122.9" y2="58.4"/>
	<line class="st3" x1="75" y1="95.3" x2="135.4" y2="97.1"/>
	<path class="st3" d="M119.8,102.4c14.3-10.4,17.5-30.5,7.1-44.8s-30.5-17.5-44.8-7.1L75,95.3L119.8,102.4z"/>
	<line class="st3" x1="75" y1="95.3" x2="93.9" y2="45.2"/>
	<line class="st3" x1="75" y1="95.3" x2="128.6" y2="92.9"/>
	<line class="st3" x1="75" y1="95.3" x2="109.1" y2="45.4"/>
	<line class="st3" x1="75" y1="95.3" x2="133" y2="78.3"/>
	<path class="st3" d="M119.8,88.2c10.4-14.3,7.2-34.4-7.1-44.8s-34.4-7.2-44.8,7.1l0,0L75,95.3L119.8,88.2z"/>
	<line class="st3" x1="75" y1="95.3" x2="77.5" y2="41.8"/>
	<line class="st3" x1="75" y1="95.3" x2="125.2" y2="76.4"/>
	<line class="st3" x1="75" y1="95.3" x2="92" y2="37.3"/>
	<line class="st3" x1="75" y1="95.3" x2="124.9" y2="61.2"/>
	<path class="st3" d="M115.4,74.7c5.5-16.9-3.7-35-20.6-40.5s-35,3.7-40.4,20.6l0,0L75,95.3L115.4,74.7z"/>
	<line class="st3" x1="75" y1="95.3" x2="60.8" y2="43.6"/>
	<line class="st3" x1="75" y1="95.3" x2="116.9" y2="61.8"/>
	<line class="st3" x1="75" y1="95.3" x2="73.3" y2="34.9"/>
	<line class="st3" x1="75" y1="95.3" x2="111.9" y2="47.5"/>
	<path class="st4" d="M102.9,67.4c0-15.4-12.5-27.9-27.9-27.9S47.1,52,47.1,67.4l0,0L75,95.3L102.9,67.4z"/>
	<line class="st4" x1="75" y1="95.3" x2="49.3" y2="56.4"/>
	<line class="st4" x1="75" y1="95.3" x2="100.7" y2="56.4"/>
	<line class="st4" x1="75" y1="95.3" x2="57.3" y2="45.8"/>
	<line class="st4" x1="75" y1="95.3" x2="92.7" y2="45.8"/>
	<path class="st4" d="M92.9,60.1c-4.6-14.7-20.3-23-35-18.4S35,62,39.6,76.8c0.1,0.2,0.1,0.4,0.2,0.6L75,95.3L92.9,60.1z"/>
	<line class="st4" x1="75" y1="95.3" x2="38.5" y2="66.2"/>
	<line class="st4" x1="75" y1="95.3" x2="87.4" y2="50.3"/>
	<line class="st4" x1="75" y1="95.3" x2="42.9" y2="53.7"/>
	<line class="st4" x1="75" y1="95.3" x2="76.5" y2="42.7"/>
	<path class="st4" d="M81.2,56.3c-9.4-12.2-27-14.4-39.2-5c-11.7,9-14.3,25.6-6,37.8l39,6.2L81.2,56.3z"/>
	<line class="st4" x1="75" y1="95.3" x2="31.3" y2="78.9"/>
	<line class="st4" x1="75" y1="95.3" x2="72.8" y2="48.7"/>
	<line class="st4" x1="75" y1="95.3" x2="31.6" y2="65.6"/>
	<line class="st4" x1="75" y1="95.3" x2="60.2" y2="44.8"/>
	<path class="st4" d="M68.8,56.3C56.5,47,39,49.4,29.7,61.7s-6.9,29.8,5.3,39.1c0.3,0.2,0.7,0.5,1,0.7l39-6.2L68.8,56.3z"/>
	<line class="st4" x1="75" y1="95.3" x2="28.4" y2="93.2"/>
	<line class="st4" x1="75" y1="95.3" x2="58.5" y2="51.7"/>
	<line class="st4" x1="75" y1="95.3" x2="24.5" y2="80.5"/>
	<line class="st4" x1="75" y1="95.3" x2="45.3" y2="51.9"/>
	<path class="st4" d="M57.1,60.1c-14.8-4.5-30.4,3.8-34.9,18.5c-4.4,14.4,3.4,29.7,17.7,34.6L75,95.3L57.1,60.1z"/>
	<line class="st4" x1="75" y1="95.3" x2="30" y2="107.7"/>
	<line class="st4" x1="75" y1="95.3" x2="45.9" y2="58.9"/>
	<line class="st4" x1="75" y1="95.3" x2="22.4" y2="96.8"/>
	<line class="st4" x1="75" y1="95.3" x2="33.3" y2="63.2"/>
	<path class="st4" d="M47.1,67.4c-15.4,0-27.9,12.5-27.9,27.9c0,15.4,12.5,27.9,27.9,27.9c0,0,0,0,0,0L75,95.3L47.1,67.4z"/>
	<line class="st4" x1="75" y1="95.3" x2="36" y2="121"/>
	<line class="st4" x1="75" y1="95.3" x2="36" y2="69.7"/>
	<line class="st4" x1="75" y1="95.3" x2="25.4" y2="113"/>
	<line class="st4" x1="75" y1="95.3" x2="25.4" y2="77.7"/>
	<path class="st4" d="M39.8,77.4c-14.7,4.6-23,20.3-18.4,35s20.3,23,35,18.4c0.2-0.1,0.4-0.1,0.6-0.2L75,95.3L39.8,77.4z"/>
	<line class="st4" x1="75" y1="95.3" x2="45.9" y2="131.8"/>
	<line class="st4" x1="75" y1="95.3" x2="30" y2="83"/>
	<line class="st4" x1="75" y1="95.3" x2="33.3" y2="127.5"/>
	<line class="st4" x1="75" y1="95.3" x2="22.4" y2="93.8"/>
	<path class="st4" d="M36,89.2c-12.3,9.3-14.8,26.8-5.5,39.1c9.1,12,26,14.7,38.3,6.1l6.2-39L36,89.2z"/>
	<line class="st4" x1="75" y1="95.3" x2="58.5" y2="139"/>
	<line class="st4" x1="75" y1="95.3" x2="28.4" y2="97.5"/>
	<line class="st4" x1="75" y1="95.3" x2="45.3" y2="138.8"/>
	<line class="st4" x1="75" y1="95.3" x2="24.5" y2="110.2"/>
	<path class="st4" d="M36,101.5c-9.3,12.3-6.9,29.8,5.5,39.1s29.8,6.9,39.1-5.5c0.2-0.3,0.4-0.6,0.6-0.8l-6.2-39L36,101.5z"/>
	<line class="st4" x1="75" y1="95.3" x2="72.8" y2="142"/>
	<line class="st4" x1="75" y1="95.3" x2="31.3" y2="111.8"/>
	<line class="st4" x1="75" y1="95.3" x2="60.2" y2="145.8"/>
	<line class="st4" x1="75" y1="95.3" x2="31.6" y2="125"/>
	<path class="st4" d="M39.8,113.3c-4.9,14.6,2.9,30.5,17.5,35.4s30.5-2.9,35.4-17.5c0.1-0.2,0.1-0.4,0.2-0.6L75,95.3L39.8,113.3z"/>
	<line class="st4" x1="75" y1="95.3" x2="87.4" y2="140.3"/>
	<line class="st4" x1="75" y1="95.3" x2="38.5" y2="124.5"/>
	<line class="st4" x1="75" y1="95.3" x2="76.5" y2="147.9"/>
	<line class="st4" x1="75" y1="95.3" x2="42.9" y2="137"/>
	<path class="st4" d="M47.1,123.3c0,15.4,12.5,27.9,27.9,27.9s27.9-12.5,27.9-27.9L75,95.3L47.1,123.3z"/>
	<line class="st4" x1="75" y1="95.3" x2="100.7" y2="134.3"/>
	<line class="st4" x1="75" y1="95.3" x2="49.3" y2="134.3"/>
	<line class="st4" x1="75" y1="95.3" x2="92.7" y2="144.9"/>
	<line class="st4" x1="75" y1="95.3" x2="57.3" y2="144.9"/>
	<path class="st4" d="M57.1,130.5c4.6,14.7,20.3,23,35,18.4c14.7-4.6,23-20.3,18.4-35c-0.1-0.2-0.1-0.4-0.2-0.6L75,95.3L57.1,130.5z
		"/>
	<line class="st4" x1="75" y1="95.3" x2="111.5" y2="124.5"/>
	<line class="st4" x1="75" y1="95.3" x2="62.6" y2="140.3"/>
	<line class="st4" x1="75" y1="95.3" x2="107.1" y2="137"/>
	<line class="st4" x1="75" y1="95.3" x2="73.5" y2="147.9"/>
	<path class="st4" d="M68.8,134.4c8.7,12.8,26.1,16,38.8,7.4s16-26.1,7.4-38.8c-0.3-0.5-0.7-0.9-1-1.4l-39-6.2L68.8,134.4z"/>
	<line class="st4" x1="75" y1="95.3" x2="118.7" y2="111.8"/>
	<line class="st4" x1="75" y1="95.3" x2="77.2" y2="142"/>
	<line class="st4" x1="75" y1="95.3" x2="118.4" y2="125"/>
	<line class="st4" x1="75" y1="95.3" x2="89.8" y2="145.8"/>
	<path class="st4" d="M81.2,134.4c12.7,8.8,30.1,5.6,38.9-7c8.5-12.3,5.9-29.1-6.1-38.2l-39,6.2L81.2,134.4z"/>
	<line class="st4" x1="75" y1="95.3" x2="121.6" y2="97.5"/>
	<line class="st4" x1="75" y1="95.3" x2="91.4" y2="139"/>
	<line class="st4" x1="75" y1="95.3" x2="125.5" y2="110.2"/>
	<line class="st4" x1="75" y1="95.3" x2="104.7" y2="138.8"/>
	<path class="st4" d="M92.9,130.5c14.6,5,30.5-2.8,35.5-17.4c5-14.6-2.8-30.5-17.4-35.5c-0.3-0.1-0.6-0.2-0.9-0.3L75,95.3
		L92.9,130.5z"/>
	<line class="st4" x1="75" y1="95.3" x2="120" y2="83"/>
	<line class="st4" x1="75" y1="95.3" x2="104.1" y2="131.8"/>
	<line class="st4" x1="75" y1="95.3" x2="127.6" y2="93.8"/>
	<line class="st4" x1="75" y1="95.3" x2="116.7" y2="127.5"/>
	<path class="st4" d="M102.9,123.3c15.4,0,27.9-12.5,27.9-27.9S118.4,67.4,103,67.4c0,0,0,0,0,0L75,95.3L102.9,123.3z"/>
	<line class="st4" x1="75" y1="95.3" x2="114" y2="69.7"/>
	<line class="st4" x1="75" y1="95.3" x2="114" y2="121"/>
	<line class="st4" x1="75" y1="95.3" x2="124.6" y2="77.7"/>
	<line class="st4" x1="75" y1="95.3" x2="124.6" y2="113"/>
	<path class="st4" d="M110.2,113.3c14.8-4.5,23-20.2,18.5-34.9c-4.5-14.8-20.2-23-34.9-18.5c-0.3,0.1-0.6,0.2-0.9,0.3L75,95.3
		L110.2,113.3z"/>
	<line class="st4" x1="75" y1="95.3" x2="104.1" y2="58.9"/>
	<line class="st4" x1="75" y1="95.3" x2="120" y2="107.7"/>
	<line class="st4" x1="75" y1="95.3" x2="116.7" y2="63.2"/>
	<line class="st4" x1="75" y1="95.3" x2="127.6" y2="96.8"/>
	<path class="st4" d="M114,101.5c12.3-9.3,14.8-26.8,5.5-39.1c-9.1-12-26-14.7-38.3-6.1l-6.2,39L114,101.5z"/>
	<line class="st4" x1="75" y1="95.3" x2="91.4" y2="51.7"/>
	<line class="st4" x1="75" y1="95.3" x2="121.6" y2="93.2"/>
	<line class="st4" x1="75" y1="95.3" x2="104.7" y2="51.9"/>
	<line class="st4" x1="75" y1="95.3" x2="125.5" y2="80.5"/>
	<path class="st4" d="M114,89.2c9.3-12.3,6.9-29.8-5.5-39.1s-29.8-6.9-39.1,5.5c-0.2,0.3-0.4,0.6-0.6,0.8l6.2,39L114,89.2z"/>
	<line class="st4" x1="75" y1="95.3" x2="77.2" y2="48.7"/>
	<line class="st4" x1="75" y1="95.3" x2="118.7" y2="78.9"/>
	<line class="st4" x1="75" y1="95.3" x2="89.8" y2="44.8"/>
	<line class="st4" x1="75" y1="95.3" x2="118.4" y2="65.6"/>
	<path class="st4" d="M110.2,77.4c4.9-14.6-2.9-30.5-17.5-35.4s-30.5,2.9-35.4,17.5c-0.1,0.2-0.1,0.4-0.2,0.6L75,95.3L110.2,77.4z"
		/>
	<line class="st4" x1="75" y1="95.3" x2="62.6" y2="50.3"/>
	<line class="st4" x1="75" y1="95.3" x2="111.5" y2="66.2"/>
	<line class="st4" x1="75" y1="95.3" x2="73.5" y2="42.7"/>
	<line class="st4" x1="75" y1="95.3" x2="107.1" y2="53.7"/>
	<g class="st5">
		<path class="st0" d="M38.7,116.6l-1.3-0.4c0.3-0.8,0.3-1.6-0.1-2.3c-0.3-0.6-0.8-1-1.4-1.3c-0.6-0.2-1.2-0.2-1.8,0.1
			c-0.6,0.3-1,0.8-1.2,1.4s-0.2,1.3,0.2,1.9c0.2,0.4,0.5,0.7,0.8,0.9c0.3,0.2,0.7,0.3,1.2,0.3l-0.9-1.8l1.1-0.6l1.6,3.2l-0.3,0.1
			c-0.6,0.3-1.2,0.4-1.8,0.4s-1.2-0.2-1.7-0.5c-0.5-0.3-0.9-0.8-1.2-1.4c-0.3-0.7-0.5-1.3-0.4-2c0-0.7,0.2-1.3,0.6-1.8
			c0.4-0.6,0.9-1,1.5-1.3c0.8-0.4,1.7-0.5,2.6-0.3c1.1,0.3,1.9,1,2.4,2c0.3,0.6,0.4,1.1,0.5,1.7C39,115.5,38.9,116,38.7,116.6z"/>
	</g>
	<g class="st5">
		<path class="st0" d="M40.8,117.7l2.3,3.1l-1.1,0.8l-1.5-2l-1,0.8l1.5,2l-1,0.8l-1.5-2l-1.5,1.1l1.5,2l-1.1,0.8l-2.3-3.1
			L40.8,117.7z"/>
	</g>
	<g class="st5">
		<path class="st0" d="M44.1,122l0.9,0.9l-1.1,5.4l3.3-3.3l1,0.9l-5,5l-0.9-0.9l1.1-5.4L40,128l-1-1L44.1,122z"/>
	</g>
	<g class="st5">
		<path class="st0" d="M49.6,127.2l3.1,2.3l-0.8,1.1l-2-1.5l-0.7,1l2,1.5l-0.8,1l-2-1.5l-1.1,1.5l2,1.5l-0.8,1.1l-3.1-2.3
			L49.6,127.2z"/>
	</g>
	<g class="st5">
		<path class="st0" d="M54.1,130.3l1.3,0.7c0.7,0.4,1.1,0.7,1.4,1c0.2,0.3,0.4,0.6,0.4,1c0,0.4-0.1,0.8-0.3,1.2
			c-0.2,0.4-0.5,0.7-0.8,0.9c-0.3,0.2-0.8,0.2-1.2,0.2l0,3.6l-1.3-0.7l0-3.4l-0.1-0.1l-1.4,2.6l-1.2-0.6L54.1,130.3z M54,133.4
			l0.4,0.2c0.4,0.2,0.7,0.3,0.9,0.3c0.2,0,0.4-0.2,0.5-0.4c0.1-0.1,0.1-0.3,0.1-0.4c0-0.1-0.1-0.3-0.2-0.4s-0.3-0.2-0.6-0.4
			l-0.3-0.2L54,133.4z"/>
	</g>
	<g class="st5">
		<path class="st0" d="M61.5,133.7l1.3,0.4l0.3,7.6l-1.3-0.4l-0.1-1.6l-2.7-0.9l-1,1.2l-1.3-0.4L61.5,133.7z M61.5,135.7l-1.7,2
			l1.8,0.6L61.5,135.7z"/>
	</g>
	<g class="st5">
		<path class="st0" d="M66.6,135.1l1.3,0.2l-1,5.7l1.9,0.3l-0.2,1.3l-3.3-0.6L66.6,135.1z"/>
	</g>
	<g class="st5">
		<path class="st0" d="M76.6,135.9l1.4-0.1l3.1,6.9l-1.4,0.1l-0.6-1.4l-2.9,0.2l-0.5,1.5l-1.4,0.1L76.6,135.9z M77.4,137.8l-0.8,2.5
			l1.9-0.1L77.4,137.8z"/>
	</g>
	<g class="st5">
		<path class="st0" d="M85.8,135.6l-0.8,1.1c-0.4-0.4-0.8-0.6-1.2-0.5c-0.2,0-0.3,0.1-0.4,0.2c-0.1,0.1-0.1,0.2-0.1,0.3
			c0,0.1,0.1,0.2,0.2,0.3c0.1,0.1,0.5,0.3,1.2,0.7c0.6,0.3,1,0.5,1.1,0.6c0.3,0.2,0.6,0.4,0.7,0.6c0.2,0.2,0.3,0.5,0.3,0.8
			c0.1,0.6,0,1.1-0.3,1.5c-0.3,0.5-0.8,0.7-1.4,0.9c-0.5,0.1-0.9,0.1-1.4-0.1c-0.4-0.2-0.8-0.5-1.2-0.9l1-0.9
			c0.5,0.5,0.9,0.8,1.3,0.7c0.2,0,0.4-0.2,0.5-0.3c0.1-0.2,0.2-0.3,0.1-0.5c0-0.2-0.1-0.3-0.3-0.4c-0.1-0.1-0.5-0.3-0.9-0.6
			c-0.9-0.5-1.5-0.8-1.8-1.1c-0.3-0.3-0.5-0.6-0.5-0.9c-0.1-0.5,0-0.9,0.3-1.4c0.3-0.4,0.7-0.7,1.2-0.8c0.3-0.1,0.7-0.1,1,0
			C84.9,135,85.3,135.2,85.8,135.6z"/>
	</g>
	<g class="st5">
		<path class="st0" d="M91.1,133.8l-0.6,1.2c-0.5-0.3-0.9-0.4-1.3-0.3c-0.2,0.1-0.3,0.2-0.4,0.3s-0.1,0.2-0.1,0.4
			c0,0.1,0.1,0.2,0.2,0.3c0.2,0.1,0.6,0.3,1.2,0.5c0.6,0.2,1,0.4,1.2,0.4c0.3,0.2,0.6,0.3,0.8,0.5c0.2,0.2,0.3,0.4,0.4,0.7
			c0.2,0.5,0.2,1.1-0.1,1.6c-0.2,0.5-0.7,0.8-1.3,1.1c-0.5,0.2-0.9,0.2-1.4,0.1c-0.4-0.1-0.9-0.4-1.3-0.8l0.8-1
			c0.5,0.5,1,0.6,1.4,0.5c0.2-0.1,0.4-0.2,0.5-0.4c0.1-0.2,0.1-0.4,0.1-0.5c-0.1-0.2-0.2-0.3-0.3-0.4c-0.2-0.1-0.5-0.3-1-0.4
			c-0.9-0.3-1.6-0.6-1.9-0.9c-0.3-0.2-0.5-0.5-0.7-0.8c-0.2-0.5-0.1-0.9,0.1-1.4c0.2-0.5,0.6-0.8,1.1-1c0.3-0.1,0.7-0.2,1-0.1
			C90.1,133.3,90.6,133.5,91.1,133.8z"/>
	</g>
	<g class="st5">
		<path class="st0" d="M92.3,132.2l3.4-1.8l0.6,1.2l-2.2,1.2l0.6,1.1l2.2-1.2l0.6,1.1l-2.2,1.2l0.9,1.7l2.2-1.2l0.6,1.2l-3.4,1.8
			L92.3,132.2z"/>
	</g>
	<g class="st5">
		<path class="st0" d="M97.6,129.3l1-0.8l4.3,2.9l-1.7-4.9l1-0.8l5.3,4.9l-1,0.8l-3.3-3.1l1.5,4.4l-0.9,0.7l-3.9-2.6l2.1,4l-1,0.8
			L97.6,129.3z"/>
	</g>
	<g class="st5">
		<path class="st0" d="M109.3,128.6l-5.3-4.7l0.7-0.8c0.4-0.5,0.8-0.8,1-1c0.4-0.2,0.7-0.4,1.1-0.3c0.4,0,0.7,0.2,1.1,0.4
			c0.2,0.2,0.3,0.4,0.4,0.6c0.1,0.2,0.1,0.5,0.1,0.8c0.4-0.2,0.8-0.2,1.2-0.2s0.7,0.2,1,0.5c0.3,0.3,0.5,0.6,0.6,1
			c0.1,0.4,0.1,0.7,0,1.1c-0.1,0.3-0.3,0.7-0.7,1.2L109.3,128.6z M105.9,123.8l1.1,1l0.2-0.2c0.2-0.2,0.3-0.5,0.3-0.7
			c0-0.2-0.1-0.4-0.3-0.6c-0.2-0.1-0.3-0.2-0.5-0.2c-0.2,0-0.4,0.2-0.6,0.4L105.9,123.8z M107.9,125.6l1.3,1.2l0.2-0.3
			c0.4-0.4,0.6-0.7,0.6-1c0-0.2-0.1-0.4-0.3-0.6c-0.2-0.2-0.5-0.3-0.8-0.2c-0.3,0.1-0.6,0.3-1,0.7L107.9,125.6z"/>
	</g>
	<g class="st5">
		<path class="st0" d="M108,119.3l0.8-1.1l4.7,3.3l1.1-1.6l1.1,0.7l-1.9,2.7L108,119.3z"/>
	</g>
	<g class="st5">
		<path class="st0" d="M110.3,115.8l0.7-1.3l2.9,0l-1.7-2.3l0.6-1.3l2.7,3.7l2.7,1.4l-0.6,1.2l-2.7-1.4L110.3,115.8z"/>
	</g>
	<g class="st5">
		<path class="st0" d="M33.9,73.2l0.5,1.2c-0.8,0.3-1.4,0.8-1.7,1.5c-0.3,0.6-0.3,1.3-0.1,1.9c0.2,0.6,0.6,1.1,1.2,1.3
			c0.6,0.3,1.2,0.3,1.9,0c0.6-0.2,1.1-0.7,1.4-1.4c0.2-0.4,0.3-0.8,0.2-1.2c0-0.4-0.2-0.7-0.5-1.1L36,77.5L34.8,77l1.5-3.2l0.3,0.1
			c0.6,0.3,1,0.6,1.4,1.2c0.4,0.5,0.6,1.1,0.6,1.7s-0.1,1.2-0.3,1.8c-0.3,0.7-0.7,1.2-1.2,1.6c-0.5,0.4-1.1,0.6-1.8,0.7
			c-0.7,0.1-1.3,0-1.9-0.3c-0.9-0.4-1.5-1-1.8-1.8c-0.4-1-0.4-2,0-3.1c0.3-0.6,0.6-1,1-1.4C32.9,73.7,33.3,73.4,33.9,73.2z"/>
	</g>
	<g class="st5">
		<path class="st0" d="M34.6,69.8l2.2-3.2l1.1,0.7l-1.4,2.1l1.1,0.7l1.4-2.1l1.1,0.7l-1.4,2.1l1.5,1l1.4-2.1l1.1,0.7l-2.2,3.2
			L34.6,69.8z"/>
	</g>
	<g class="st5">
		<path class="st0" d="M38.6,64.3l0.9-0.9l5.4,1l-3.4-3.2l0.9-1l5.1,4.9L46.7,66l-5.4-1l3.3,3.2l-0.9,1L38.6,64.3z"/>
	</g>
	<g class="st5">
		<path class="st0" d="M45,58.1l3.1-2.3l0.8,1.1l-2,1.5l0.8,1l2-1.5l0.8,1l-2,1.5l1.1,1.5l2-1.5l0.8,1.1l-3.1,2.3L45,58.1z"/>
	</g>
	<g class="st5">
		<path class="st0" d="M50.5,54.2l1.3-0.7c0.7-0.4,1.2-0.6,1.6-0.6c0.4,0,0.7,0,1,0.2c0.3,0.2,0.6,0.5,0.8,0.9
			c0.2,0.4,0.3,0.8,0.3,1.2c0,0.4-0.2,0.7-0.5,1.1l3,2l-1.3,0.7l-2.8-1.9l-0.1,0.1l1.4,2.6l-1.2,0.6L50.5,54.2z M53,56l0.4-0.2
			c0.4-0.2,0.6-0.4,0.7-0.6c0.1-0.2,0.1-0.4-0.1-0.6c-0.1-0.1-0.2-0.2-0.3-0.3s-0.3-0.1-0.4-0.1c-0.1,0-0.4,0.1-0.7,0.3l-0.3,0.2
			L53,56z"/>
	</g>
	<g class="st5">
		<path class="st0" d="M59,50.2l1.3-0.4l4.9,5.8L63.9,56l-1-1.2l-2.7,0.9l-0.1,1.6l-1.3,0.5L59,50.2z M60.3,51.8l-0.1,2.6l1.8-0.6
			L60.3,51.8z"/>
	</g>
	<g class="st5">
		<path class="st0" d="M65.5,48.4l1.3-0.2l1,5.7l1.9-0.3l0.2,1.3l-3.3,0.6L65.5,48.4z"/>
	</g>
	<g class="st5">
		<path class="st0" d="M77.5,47.5l1.4,0.1l2.2,7.2l-1.4-0.1l-0.5-1.5l-2.9-0.2l-0.7,1.4l-1.4-0.1L77.5,47.5z M78.1,49.5l-1.1,2.4
			l1.9,0.1L78.1,49.5z"/>
	</g>
	<g class="st5">
		<path class="st0" d="M87.6,50.2l-1.2,0.6c-0.2-0.6-0.5-0.9-0.9-1c-0.2,0-0.3,0-0.5,0c-0.1,0.1-0.2,0.2-0.2,0.3s0,0.2,0,0.4
			c0.1,0.2,0.3,0.5,0.7,1.1c0.4,0.5,0.6,0.9,0.7,1c0.2,0.3,0.3,0.6,0.4,0.9c0.1,0.3,0,0.6,0,0.8c-0.1,0.6-0.4,1-0.9,1.3
			c-0.5,0.3-1,0.3-1.7,0.2c-0.5-0.1-0.9-0.3-1.2-0.7c-0.3-0.3-0.5-0.8-0.7-1.3l1.3-0.4c0.2,0.7,0.5,1.1,0.9,1.2
			c0.2,0.1,0.4,0,0.6-0.1c0.2-0.1,0.3-0.2,0.3-0.4c0-0.2,0-0.3-0.1-0.5c-0.1-0.2-0.3-0.5-0.6-0.9c-0.6-0.8-1-1.4-1.1-1.8
			c-0.1-0.4-0.2-0.7-0.1-1.1c0.1-0.5,0.4-0.8,0.8-1.1c0.4-0.3,0.9-0.3,1.5-0.2c0.3,0.1,0.6,0.2,0.9,0.5S87.3,49.6,87.6,50.2z"/>
	</g>
	<g class="st5">
		<path class="st0" d="M93.7,52.3l-1.2,0.5c-0.1-0.6-0.4-0.9-0.7-1.1c-0.2-0.1-0.3-0.1-0.5,0c-0.1,0-0.2,0.1-0.3,0.2
			c0,0.1,0,0.2,0,0.4c0.1,0.2,0.2,0.6,0.6,1.2c0.3,0.6,0.5,1,0.6,1.1c0.2,0.4,0.2,0.7,0.3,0.9c0,0.3,0,0.6-0.1,0.8
			c-0.2,0.5-0.6,0.9-1.1,1.1c-0.5,0.2-1.1,0.2-1.7,0c-0.5-0.2-0.8-0.5-1.1-0.8s-0.4-0.8-0.5-1.4l1.3-0.2c0.1,0.7,0.3,1.1,0.8,1.3
			c0.2,0.1,0.4,0.1,0.6,0c0.2-0.1,0.3-0.2,0.4-0.3c0.1-0.2,0.1-0.3,0-0.5c-0.1-0.2-0.2-0.5-0.5-1c-0.5-0.9-0.8-1.5-0.9-1.9
			c-0.1-0.4-0.1-0.8,0.1-1.1c0.2-0.5,0.5-0.8,1-1c0.5-0.2,1-0.2,1.5,0c0.3,0.1,0.6,0.3,0.9,0.6C93.3,51.4,93.5,51.8,93.7,52.3z"/>
	</g>
	<g class="st5">
		<path class="st0" d="M96.7,52.7l3.4,1.9l-0.6,1.1l-2.2-1.2l-0.6,1.1l2.2,1.2L98.1,58L96,56.7L95,58.4l2.2,1.2l-0.6,1.2l-3.4-1.9
			L96.7,52.7z"/>
	</g>
	<g class="st5">
		<path class="st0" d="M103.1,56.6l1,0.8l-1.9,4.8l4.4-2.7l1,0.8l-3.6,6.2l-1-0.8l2.3-3.9l-4,2.5l-0.9-0.8l1.7-4.4l-3.5,2.9l-1-0.8
			L103.1,56.6z"/>
	</g>
	<g class="st5">
		<path class="st0" d="M105,67.8l5.5-4.5l0.7,0.9c0.4,0.5,0.7,0.9,0.8,1.2c0.2,0.4,0.2,0.8,0.2,1.2c-0.1,0.4-0.3,0.7-0.6,1
			c-0.2,0.2-0.4,0.3-0.7,0.3c-0.2,0.1-0.5,0-0.8,0c0.1,0.5,0.1,0.9,0,1.2c-0.1,0.3-0.3,0.7-0.6,0.9c-0.3,0.3-0.7,0.4-1,0.4
			s-0.7,0-1.1-0.1c-0.3-0.1-0.7-0.4-1-0.9L105,67.8z M108.2,66.9l-1.4,1.1l0.2,0.3c0.4,0.4,0.6,0.7,0.9,0.7c0.2,0.1,0.5,0,0.7-0.2
			c0.2-0.2,0.3-0.4,0.3-0.7c0-0.3-0.2-0.6-0.5-1L108.2,66.9z M110.3,65.2l-1.2,0.9l0.2,0.2c0.2,0.3,0.4,0.4,0.6,0.4
			c0.2,0,0.4,0,0.6-0.2c0.2-0.1,0.3-0.3,0.3-0.5s-0.1-0.4-0.3-0.7L110.3,65.2z"/>
	</g>
	<g class="st5">
		<path class="st0" d="M114.8,69.1l0.7,1.1l-4.9,3l1,1.7l-1.1,0.7l-1.7-2.8L114.8,69.1z"/>
	</g>
	<g class="st5">
		<path class="st0" d="M117.5,73.7l0.6,1.3l-1.8,2.2l2.9,0.2l0.6,1.3l-4.5-0.3l-2.8,1.2l-0.5-1.2l2.8-1.2L117.5,73.7z"/>
	</g>
	<circle class="st6" cx="75" cy="95" r="36.2"/>
	<circle class="st7" cx="75" cy="95" r="35.5"/>
	<path class="st8" d="M85.4,99c-0.2-6.2-4.8-11.2-10.4-11.2s-10.2,5-10.4,11.2l0,0v20.8h20.9L85.4,99L85.4,99z"/>
	<path class="st9" d="M85.5,99L85.5,99c-0.2-6.2-4.8-11.2-10.5-11.2v32.1h10.5V99z"/>
	<circle class="st10" cx="79" cy="97.1" r="1.6"/>
	<path class="st8" d="M90.8,85.9L89,84.1l-1.8,1.7l-1.8-1.7v15.1l2.6,8.6c2.6-0.9,4.4-3.2,4.6-5.9l0,0V84.1L90.8,85.9z"/>
	<path class="st10" d="M85.5,101.6v6.7c0.9,0,1.7-0.2,2.6-0.4l-2.6-8.6V101.6z"/>
	<path class="st8" d="M90.8,85.9L89,84.1l-1.8,1.7l-1.8-1.7v15.1l2.6,8.6c2.6-0.9,4.4-3.2,4.6-5.9l0,0V84.1L90.8,85.9z"/>
	<path class="st10" d="M85.5,101.6v6.7c0.9,0,1.7-0.2,2.6-0.4l-2.6-8.6V101.6z"/>
	<path class="st8" d="M59.2,85.9l1.8-1.7l1.8,1.7l1.8-1.7v15.1l-2.6,8.6c-2.6-0.9-4.4-3.2-4.6-5.9l0,0V84.1L59.2,85.9z"/>
	<path class="st10" d="M64.5,101.6v6.7c-0.9,0-1.7-0.2-2.6-0.4l2.6-8.6V101.6z"/>
	<path class="st10" d="M72.2,101.2h5.6c1.3,0,2.4,1.1,2.4,2.4v2.2c0,1.3-1.1,2.4-2.4,2.4h-5.6c-1.3,0-2.4-1.1-2.4-2.4v-2.2
		C69.8,102.3,70.8,101.2,72.2,101.2z"/>
	<path class="st0" d="M74.4,108.3h-1.7l0.9-0.9L74.4,108.3z"/>
	<path class="st0" d="M75.9,108.3h-1.7l0.9-0.9L75.9,108.3z"/>
	<path class="st0" d="M77.3,108.3h-1.7l0.9-1.4L77.3,108.3z"/>
	<path class="st0" d="M73.5,102.6l-0.9-1.4h1.7L73.5,102.6z"/>
	<path class="st0" d="M75,102.1l-0.9-0.9h1.7L75,102.1z"/>
	<path class="st0" d="M76.5,102.1l-0.9-0.9h1.7L76.5,102.1z"/>
	<path class="st10" d="M71,95.5c-0.9,0-1.6,0.7-1.6,1.6h3.2C72.6,96.2,71.9,95.5,71,95.5C71,95.5,71,95.5,71,95.5z"/>
	<path class="st11" d="M75,59.5c-19.6,0-35.5,15.9-35.5,35.5s15.9,35.5,35.5,35.5s35.5-15.9,35.5-35.5S94.6,59.5,75,59.5L75,59.5z
		 M75,118.8c-13.2,0-23.8-10.7-23.8-23.8S61.8,71.2,75,71.2S98.8,81.8,98.8,95c0,0,0,0,0,0C98.8,108.2,88.2,118.8,75,118.8L75,118.8
		z"/>
	<g class="st5">
		<path d="M52.8,108.6l0.8,1.2l-4.5,6.2l-0.8-1.2l0.9-1.3l-1.6-2.5l-1.6,0.3l-0.8-1.2L52.8,108.6z M51.6,110.2l-2.6,0.5l1,1.6
			L51.6,110.2z"/>
	</g>
	<g class="st5">
		<path d="M55.1,111.9l2.8,2.8l-1,0.9l-0.9-0.9l-4.2,4.1l-1-1l4.2-4.1l-0.9-0.9L55.1,111.9z"/>
	</g>
	<g class="st5">
		<path d="M58.4,115l1.1,0.8l-3.5,4.7l1.6,1.2l-0.8,1l-2.7-2L58.4,115z"/>
	</g>
	<g class="st5">
		<path d="M63.5,118.3l1.3,0.6l-0.5,7.7l-1.3-0.6l0.1-1.6l-2.7-1.2l-1.2,1.1l-1.3-0.6L63.5,118.3z M63.3,120.3l-1.9,1.8l1.7,0.8
			L63.3,120.3z"/>
	</g>
	<g class="st5">
		<path d="M67.6,120.2l1.3,0.2l2.2,5.2l0.8-4.6l1.3,0.2l-1.2,7l-1.3-0.2l-2.2-5.1l-0.8,4.6l-1.3-0.2L67.6,120.2z"/>
	</g>
	<g class="st5">
		<path d="M73.7,121.1l4-0.1l0,1.3l-1.3,0l0.1,5.8l-1.4,0l-0.1-5.8l-1.3,0L73.7,121.1z"/>
	</g>
	<g class="st5">
		<path d="M80.2,120.5l1.3-0.3l4.3,6.3l-1.4,0.3l-0.9-1.3l-2.8,0.7l-0.2,1.6l-1.4,0.3L80.2,120.5z M81.4,122.2l-0.4,2.6l1.9-0.4
			L81.4,122.2z"/>
	</g>
	<g class="st5">
		<path d="M87.6,124.3l1.1,0.1l-0.3,2.4l-0.7,0L87.6,124.3z"/>
	</g>
	<g class="st5">
		<path d="M95.1,113.7l-0.1,1.3c-0.9-0.1-1.6,0.1-2.3,0.6c-0.5,0.5-0.8,1-0.9,1.7c-0.1,0.7,0.1,1.3,0.6,1.8c0.4,0.5,1,0.8,1.7,0.9
			c0.7,0,1.3-0.2,1.9-0.6c0.4-0.3,0.6-0.6,0.7-1c0.1-0.4,0.1-0.8,0-1.2l-1.6,1.3l-0.8-1l2.8-2.3l0.2,0.2c0.4,0.5,0.7,1,0.8,1.7
			s0.1,1.2-0.1,1.8c-0.2,0.6-0.6,1.1-1.1,1.5c-0.6,0.5-1.2,0.8-1.8,0.9c-0.7,0.1-1.3,0.1-2-0.2c-0.6-0.2-1.2-0.6-1.6-1.2
			c-0.6-0.7-0.9-1.6-0.9-2.5c0-1.1,0.5-2.1,1.4-2.8c0.5-0.4,1-0.7,1.6-0.9C93.9,113.7,94.4,113.6,95.1,113.7z"/>
	</g>
	<g class="st5">
		<path d="M96.2,110.1L97,109l7.5,1.7l-0.8,1.2l-1.5-0.4l-1.6,2.4l0.9,1.3l-0.8,1.2L96.2,110.1z M98.2,110.6l1.5,2.2l1.1-1.6
			L98.2,110.6z"/>
	</g>
	<g class="st5">
		<path d="M104.2,107.9c0.1-0.2,0.2-0.3,0.4-0.4c0.2-0.1,0.4-0.1,0.6,0s0.3,0.2,0.4,0.4c0.1,0.2,0.1,0.4,0,0.6s-0.2,0.3-0.4,0.4
			c-0.2,0.1-0.4,0.1-0.6,0s-0.3-0.2-0.4-0.4C104.1,108.3,104.1,108.1,104.2,107.9z"/>
	</g>
	<g class="st5">
		<path class="st10" d="M42.4,90.5l0.3-1.3l5.3-0.5l-4.5-2.8l0.3-1.3l7.3,0.4l-0.3,1.3l-4.6-0.3l4.1,2.5l-0.3,1.2l-4.8,0.5l4.2,1.8
			l-0.3,1.3L42.4,90.5z"/>
	</g>
	<g class="st5">
		<path class="st10" d="M46.8,77.9c0.5-0.9,1.3-1.4,2.3-1.7c1-0.2,2-0.1,2.9,0.5c0.9,0.5,1.5,1.3,1.7,2.3c0.2,1,0.1,1.9-0.4,2.8
			c-0.6,0.9-1.3,1.5-2.3,1.7c-1,0.2-1.9,0.1-2.8-0.5c-0.6-0.4-1-0.8-1.4-1.4c-0.3-0.6-0.5-1.2-0.5-1.9
			C46.3,79.1,46.5,78.5,46.8,77.9z M48,78.6c-0.3,0.6-0.4,1.2-0.3,1.8c0.2,0.6,0.5,1.1,1.1,1.5c0.7,0.4,1.4,0.5,2,0.3
			c0.5-0.2,1-0.5,1.3-1c0.3-0.6,0.4-1.1,0.3-1.8c-0.2-0.6-0.5-1.1-1.1-1.5c-0.6-0.4-1.2-0.5-1.8-0.3C48.8,77.7,48.3,78,48,78.6z"/>
	</g>
	<g class="st5">
		<path class="st10" d="M50.8,72.7l1-0.9l5.5,1.4l-3.2-3.5l1-0.9l4.8,5.3l-1,0.9l-5.4-1.4l3.2,3.5l-1,0.9L50.8,72.7z"/>
	</g>
	<g class="st5">
		<path class="st10" d="M61.2,66.2l-0.4,1.3c-0.6-0.3-1-0.3-1.3-0.1c-0.2,0.1-0.3,0.2-0.3,0.3c-0.1,0.1,0,0.3,0,0.4
			c0.1,0.1,0.1,0.2,0.3,0.2c0.2,0.1,0.6,0.2,1.3,0.3c0.7,0.1,1.1,0.2,1.2,0.3c0.4,0.1,0.7,0.2,0.9,0.4c0.2,0.2,0.4,0.4,0.6,0.6
			c0.3,0.5,0.3,1,0.2,1.6c-0.2,0.5-0.5,1-1.1,1.3c-0.4,0.3-0.9,0.4-1.3,0.3c-0.5,0-0.9-0.2-1.4-0.5l0.7-1.2c0.6,0.4,1.1,0.5,1.5,0.2
			c0.2-0.1,0.3-0.3,0.4-0.5c0.1-0.2,0.1-0.4,0-0.5c-0.1-0.1-0.2-0.3-0.4-0.3c-0.2-0.1-0.5-0.2-1.1-0.3c-1-0.2-1.7-0.4-2-0.5
			c-0.4-0.2-0.6-0.4-0.8-0.7c-0.2-0.4-0.3-0.9-0.1-1.4s0.5-0.9,1-1.2c0.3-0.2,0.6-0.3,1-0.3C60.2,65.9,60.7,66,61.2,66.2z"/>
	</g>
	<g class="st5">
		<path class="st10" d="M62.3,64.7l3.7-1.3l0.4,1.3l-1.2,0.4l1.9,5.5l-1.3,0.5l-1.9-5.5L62.7,66L62.3,64.7z"/>
	</g>
	<g class="st5">
		<path class="st10" d="M67.9,62.9l3.9-0.6l0.2,1.3L69.4,64l0.2,1.3l2.5-0.4l0.2,1.3l-2.5,0.4l0.3,1.9l2.5-0.4l0.2,1.3L69,70
			L67.9,62.9z"/>
	</g>
	<g class="st5">
		<path class="st10" d="M74.2,62.2l1.4,0c0.8,0,1.4,0.1,1.7,0.3c0.3,0.2,0.6,0.4,0.8,0.7s0.3,0.7,0.3,1.2c0,0.5-0.1,0.9-0.4,1.2
			c-0.2,0.3-0.6,0.5-1,0.7l1.6,3.3L77,69.4l-1.5-3.1l-0.1,0l-0.1,3l-1.4,0L74.2,62.2z M75.4,65l0.4,0c0.4,0,0.7,0,0.9-0.1
			c0.2-0.1,0.3-0.3,0.3-0.6c0-0.2,0-0.3-0.1-0.4c-0.1-0.1-0.2-0.2-0.3-0.3c-0.1-0.1-0.4-0.1-0.7-0.1l-0.4,0L75.4,65z"/>
	</g>
	<g class="st5">
		<path class="st10" d="M85.3,63.7l1.2,0.5L86,69.5l3.5-3.9l1.2,0.5L89,73.2l-1.2-0.5l1.1-4.5l-3.2,3.6l-1.1-0.5l0.4-4.8l-2.5,3.9
			l-1.2-0.5L85.3,63.7z"/>
	</g>
	<g class="st5">
		<path class="st10" d="M95.7,69.6l1.1,0.9l-2.6,7.3l-1.1-0.9l0.5-1.5l-2.2-1.9l-1.4,0.7L89,73.3L95.7,69.6z M95,71.5l-2.3,1.2
			l1.5,1.2L95,71.5z"/>
	</g>
	<g class="st5">
		<path class="st10" d="M99.8,73.5l2.4,3.2l-1.1,0.8l-0.8-1L95.7,80l-0.8-1.1l4.6-3.6l-0.8-1L99.8,73.5z"/>
	</g>
	<g class="st5">
		<path class="st10" d="M105.1,84.9l-1.2-0.5c0.3-0.9,0.4-1.7,0-2.4c-0.3-0.6-0.7-1-1.4-1.3c-0.6-0.2-1.2-0.2-1.9,0.1
			c-0.4,0.2-0.8,0.5-1,0.8c-0.2,0.3-0.4,0.7-0.4,1.2c0,0.4,0.1,0.9,0.2,1.3c0.2,0.4,0.4,0.7,0.7,0.9c0.3,0.2,0.7,0.4,1.2,0.6
			l-0.5,1.2c-0.7-0.3-1.2-0.6-1.6-0.9s-0.7-0.8-1-1.3c-0.5-1-0.5-2-0.2-2.9c0.3-0.9,1-1.6,2-2.1c0.6-0.3,1.3-0.4,1.9-0.4
			c0.6,0.1,1.2,0.3,1.8,0.7c0.6,0.4,1,0.9,1.3,1.6c0.2,0.5,0.4,1.1,0.4,1.7C105.5,83.8,105.3,84.4,105.1,84.9z"/>
	</g>
	<g class="st5">
		<path class="st10" d="M106.9,87l0.2,1.4l-2.7,0.5l0.4,2.4l2.7-0.5l0.2,1.4l-7.1,1.2l-0.2-1.4l3.1-0.5l-0.4-2.4l-3.1,0.5l-0.2-1.4
			L106.9,87z"/>
	</g>
	<polygon class="st0" points="30.4,90.8 31.5,94 34.8,94 32.1,96 33.1,99.2 30.4,97.2 27.7,99.2 28.7,96 26,94 29.4,94 	"/>
	<polygon class="st0" points="119.6,90.8 118.6,94 115.2,94 117.9,96 116.9,99.2 119.6,97.2 122.3,99.2 121.3,96 124,94 120.6,94 	
		"/>
</g>
</svg>
