<svg xmlns="http://www.w3.org/2000/svg" viewBox="0 0 150 190"><defs><style>.cls-1,.cls-7{fill:#fff;}.cls-11,.cls-2{fill:#231f20;}.cls-12,.cls-2,.cls-3,.cls-4,.cls-5,.cls-8{stroke:#231f20;}.cls-12,.cls-2,.cls-3,.cls-4,.cls-5,.cls-7,.cls-8{stroke-miterlimit:10;}.cls-2{stroke-width:2.01px;}.cls-3,.cls-4,.cls-5,.cls-8{fill:none;}.cls-3{stroke-width:0.45px;}.cls-4{stroke-width:0.92px;}.cls-5{stroke-width:0.41px;}.cls-6{isolation:isolate;}.cls-7{stroke:#fff;stroke-width:1.02px;}.cls-12,.cls-7,.cls-8{stroke-linecap:round;}.cls-9{fill:#ffd017;}.cls-10{fill:#efb616;}.cls-12{fill:#fc0;}</style></defs><title>Asset 1highest</title><g id="Layer_2" data-name="Layer 2"><g id="Layer_4" data-name="Layer 4"><rect class="cls-1" width="150" height="190"/><circle class="cls-2" cx="75" cy="95" r="51.28"/><path class="cls-3" d="M106,64.34a31,31,0,0,0-62,0l31,31Z"/><line class="cls-3" x1="75" y1="95.33" x2="46.52" y2="52.09"/><line class="cls-3" x1="75" y1="95.33" x2="103.48" y2="52.09"/><line class="cls-3" x1="75" y1="95.33" x2="55.37" y2="40.34"/><line class="cls-3" x1="75" y1="95.33" x2="94.63" y2="40.34"/><path class="cls-3" d="M94.9,56.27a31,31,0,0,0-59,19.16L75,95.33Z"/><line class="cls-3" x1="75" y1="95.33" x2="34.55" y2="63"/><line class="cls-3" x1="75" y1="95.33" x2="88.72" y2="45.4"/><line class="cls-3" x1="75" y1="95.33" x2="39.34" y2="49.1"/><line class="cls-3" x1="75" y1="95.33" x2="76.67" y2="36.97"/><path class="cls-3" d="M81.86,52A31,31,0,1,0,31.7,88.48L75,95.33Z"/><line class="cls-3" x1="75" y1="95.33" x2="26.54" y2="77.09"/><line class="cls-3" x1="75" y1="95.33" x2="72.62" y2="43.61"/><line class="cls-3" x1="75" y1="95.33" x2="26.8" y2="62.38"/><line class="cls-3" x1="75" y1="95.33" x2="58.56" y2="39.31"/><path class="cls-3" d="M68.14,52A31,31,0,0,0,31.7,102.19L75,95.33Z"/><line class="cls-3" x1="75" y1="95.33" x2="23.27" y2="92.95"/><line class="cls-3" x1="75" y1="95.33" x2="56.75" y2="46.87"/><line class="cls-3" x1="75" y1="95.33" x2="18.98" y2="78.89"/><line class="cls-3" x1="75" y1="95.33" x2="42.05" y2="47.13"/><path class="cls-3" d="M55.1,56.27a31,31,0,0,0-19.16,59L75,95.33Z"/><line class="cls-3" x1="75" y1="95.33" x2="25.07" y2="109.06"/><line class="cls-3" x1="75" y1="95.33" x2="42.67" y2="54.88"/><line class="cls-3" x1="75" y1="95.33" x2="16.64" y2="97.01"/><line class="cls-3" x1="75" y1="95.33" x2="28.77" y2="59.68"/><path class="cls-3" d="M44,64.34a31,31,0,1,0,0,62l31-31Z"/><line class="cls-3" x1="75" y1="95.33" x2="31.75" y2="123.81"/><line class="cls-3" x1="75" y1="95.33" x2="31.75" y2="66.86"/><line class="cls-3" x1="75" y1="95.33" x2="20.01" y2="114.96"/><line class="cls-3" x1="75" y1="95.33" x2="20.01" y2="75.71"/><path class="cls-3" d="M35.94,75.43a31,31,0,0,0,19.16,59L75,95.33Z"/><line class="cls-3" x1="75" y1="95.33" x2="42.67" y2="135.78"/><line class="cls-3" x1="75" y1="95.33" x2="25.07" y2="81.61"/><line class="cls-3" x1="75" y1="95.33" x2="28.77" y2="130.99"/><line class="cls-3" x1="75" y1="95.33" x2="16.64" y2="93.66"/><path class="cls-3" d="M31.7,88.48a31,31,0,0,0,36.44,50.16L75,95.33Z"/><line class="cls-3" x1="75" y1="95.33" x2="56.75" y2="143.8"/><line class="cls-3" x1="75" y1="95.33" x2="23.27" y2="97.72"/><line class="cls-3" x1="75" y1="95.33" x2="42.05" y2="143.54"/><line class="cls-3" x1="75" y1="95.33" x2="18.98" y2="111.78"/><path class="cls-3" d="M31.7,102.19a31,31,0,0,0,50,36.7l.19-.26L75,95.33Z"/><line class="cls-3" x1="75" y1="95.33" x2="72.62" y2="147.06"/><line class="cls-3" x1="75" y1="95.33" x2="26.54" y2="113.58"/><line class="cls-3" x1="75" y1="95.33" x2="58.56" y2="151.36"/><line class="cls-3" x1="75" y1="95.33" x2="26.8" y2="128.29"/><path class="cls-3" d="M35.94,115.24a31,31,0,0,0,59,19.16L75,95.33Z"/><line class="cls-3" x1="75" y1="95.33" x2="88.72" y2="145.27"/><line class="cls-3" x1="75" y1="95.33" x2="34.55" y2="127.67"/><line class="cls-3" x1="75" y1="95.33" x2="76.67" y2="153.7"/><line class="cls-3" x1="75" y1="95.33" x2="39.34" y2="141.57"/><path class="cls-3" d="M44,126.33a31,31,0,0,0,62,0l-31-31Z"/><line class="cls-3" x1="75" y1="95.33" x2="103.48" y2="138.58"/><line class="cls-3" x1="75" y1="95.33" x2="46.52" y2="138.58"/><line class="cls-3" x1="75" y1="95.33" x2="94.63" y2="150.33"/><line class="cls-3" x1="75" y1="95.33" x2="55.37" y2="150.33"/><path class="cls-3" d="M55.1,134.39a31,31,0,1,0,59-19.16L75,95.33Z"/><line class="cls-3" x1="75" y1="95.33" x2="115.45" y2="127.67"/><line class="cls-3" x1="75" y1="95.33" x2="61.28" y2="145.27"/><line class="cls-3" x1="75" y1="95.33" x2="110.66" y2="141.57"/><line class="cls-3" x1="75" y1="95.33" x2="73.33" y2="153.7"/><path class="cls-3" d="M68.14,138.63a31,31,0,1,0,50.35-36.18l-.19-.26L75,95.33Z"/><line class="cls-3" x1="75" y1="95.33" x2="123.46" y2="113.58"/><line class="cls-3" x1="75" y1="95.33" x2="77.38" y2="147.06"/><line class="cls-3" x1="75" y1="95.33" x2="123.2" y2="128.29"/><line class="cls-3" x1="75" y1="95.33" x2="91.44" y2="151.36"/><path class="cls-3" d="M81.86,138.63A31,31,0,0,0,118.3,88.48L75,95.33Z"/><line class="cls-3" x1="75" y1="95.33" x2="126.73" y2="97.72"/><line class="cls-3" x1="75" y1="95.33" x2="93.25" y2="143.8"/><line class="cls-3" x1="75" y1="95.33" x2="131.02" y2="111.78"/><line class="cls-3" x1="75" y1="95.33" x2="107.95" y2="143.54"/><path class="cls-3" d="M94.9,134.39a31,31,0,0,0,19.16-59h0L75,95.33Z"/><line class="cls-3" x1="75" y1="95.33" x2="124.93" y2="81.61"/><line class="cls-3" x1="75" y1="95.33" x2="107.33" y2="135.78"/><line class="cls-3" x1="75" y1="95.33" x2="133.36" y2="93.66"/><line class="cls-3" x1="75" y1="95.33" x2="121.23" y2="130.99"/><path class="cls-3" d="M106,126.33a31,31,0,1,0,0-62l-31,31Z"/><line class="cls-3" x1="75" y1="95.33" x2="118.25" y2="66.86"/><line class="cls-3" x1="75" y1="95.33" x2="118.25" y2="123.81"/><line class="cls-3" x1="75" y1="95.33" x2="129.99" y2="75.71"/><line class="cls-3" x1="75" y1="95.33" x2="129.99" y2="114.96"/><path class="cls-3" d="M114.06,115.24a31,31,0,0,0-19.16-59L75,95.33Z"/><line class="cls-3" x1="75" y1="95.33" x2="107.33" y2="54.88"/><line class="cls-3" x1="75" y1="95.33" x2="124.93" y2="109.06"/><line class="cls-3" x1="75" y1="95.33" x2="121.23" y2="59.68"/><line class="cls-3" x1="75" y1="95.33" x2="133.36" y2="97.01"/><path class="cls-3" d="M118.3,102.19A31,31,0,1,0,81.86,52L75,95.33Z"/><line class="cls-3" x1="75" y1="95.33" x2="93.25" y2="46.87"/><line class="cls-3" x1="75" y1="95.33" x2="126.73" y2="92.95"/><line class="cls-3" x1="75" y1="95.33" x2="107.95" y2="47.13"/><line class="cls-3" x1="75" y1="95.33" x2="131.02" y2="78.89"/><path class="cls-3" d="M118.3,88.48A31,31,0,0,0,68.14,52L75,95.33Z"/><line class="cls-3" x1="75" y1="95.33" x2="77.38" y2="43.61"/><line class="cls-3" x1="75" y1="95.33" x2="123.46" y2="77.09"/><line class="cls-3" x1="75" y1="95.33" x2="91.44" y2="39.31"/><line class="cls-3" x1="75" y1="95.33" x2="123.2" y2="62.38"/><path class="cls-3" d="M114.06,75.43a31,31,0,0,0-59-19.16h0L75,95.33Z"/><line class="cls-3" x1="75" y1="95.33" x2="61.28" y2="45.4"/><line class="cls-3" x1="75" y1="95.33" x2="115.45" y2="63"/><line class="cls-3" x1="75" y1="95.33" x2="73.33" y2="36.97"/><line class="cls-3" x1="75" y1="95.33" x2="110.66" y2="49.1"/><path class="cls-4" d="M107.1,63.23a32.1,32.1,0,0,0-64.2,0h0L75,95.33Z"/><line class="cls-4" x1="75" y1="95.33" x2="45.51" y2="50.55"/><line class="cls-4" x1="75" y1="95.33" x2="104.49" y2="50.55"/><line class="cls-4" x1="75" y1="95.33" x2="54.67" y2="38.39"/><line class="cls-4" x1="75" y1="95.33" x2="95.33" y2="38.39"/><path class="cls-4" d="M95.61,54.88A32.1,32.1,0,0,0,34.55,74.72h0L75,95.33Z"/><line class="cls-4" x1="75" y1="95.33" x2="33.11" y2="61.85"/><line class="cls-4" x1="75" y1="95.33" x2="89.21" y2="43.62"/><line class="cls-4" x1="75" y1="95.33" x2="38.07" y2="47.45"/><line class="cls-4" x1="75" y1="95.33" x2="76.73" y2="34.89"/><path class="cls-4" d="M82.1,50.49A32.1,32.1,0,0,0,30.16,88.23h0L75,95.33Z"/><line class="cls-4" x1="75" y1="95.33" x2="24.81" y2="76.44"/><line class="cls-4" x1="75" y1="95.33" x2="72.53" y2="41.76"/><line class="cls-4" x1="75" y1="95.33" x2="25.08" y2="61.21"/><line class="cls-4" x1="75" y1="95.33" x2="57.97" y2="37.31"/><path class="cls-4" d="M67.9,50.49a32.1,32.1,0,1,0-37.74,51.94L75,95.33Z"/><line class="cls-4" x1="75" y1="95.33" x2="21.43" y2="92.87"/><line class="cls-4" x1="75" y1="95.33" x2="56.1" y2="45.15"/><line class="cls-4" x1="75" y1="95.33" x2="16.98" y2="78.3"/><line class="cls-4" x1="75" y1="95.33" x2="40.87" y2="45.42"/><path class="cls-4" d="M54.39,54.88a32.1,32.1,0,0,0-19.84,61.06L75,95.33Z"/><line class="cls-4" x1="75" y1="95.33" x2="23.29" y2="109.54"/><line class="cls-4" x1="75" y1="95.33" x2="41.52" y2="53.44"/><line class="cls-4" x1="75" y1="95.33" x2="14.56" y2="97.07"/><line class="cls-4" x1="75" y1="95.33" x2="27.12" y2="58.41"/><path class="cls-4" d="M42.9,63.23a32.1,32.1,0,0,0,0,64.2L75,95.33Z"/><line class="cls-4" x1="75" y1="95.33" x2="30.21" y2="124.83"/><line class="cls-4" x1="75" y1="95.33" x2="30.21" y2="65.84"/><line class="cls-4" x1="75" y1="95.33" x2="18.05" y2="115.66"/><line class="cls-4" x1="75" y1="95.33" x2="18.05" y2="75.01"/><path class="cls-4" d="M34.55,74.72a32.1,32.1,0,1,0,19.84,61.06L75,95.33Z"/><line class="cls-4" x1="75" y1="95.33" x2="41.52" y2="137.22"/><line class="cls-4" x1="75" y1="95.33" x2="23.29" y2="81.13"/><line class="cls-4" x1="75" y1="95.33" x2="27.12" y2="132.26"/><line class="cls-4" x1="75" y1="95.33" x2="14.56" y2="93.6"/><path class="cls-4" d="M30.16,88.23A32.11,32.11,0,0,0,67.9,140.18L75,95.33Z"/><line class="cls-4" x1="75" y1="95.33" x2="56.1" y2="145.52"/><line class="cls-4" x1="75" y1="95.33" x2="21.43" y2="97.8"/><line class="cls-4" x1="75" y1="95.33" x2="40.87" y2="145.25"/><line class="cls-4" x1="75" y1="95.33" x2="16.98" y2="112.36"/><path class="cls-4" d="M30.16,102.44A32.1,32.1,0,1,0,82.1,140.18L75,95.33Z"/><line class="cls-4" x1="75" y1="95.33" x2="72.53" y2="148.91"/><line class="cls-4" x1="75" y1="95.33" x2="24.81" y2="114.23"/><line class="cls-4" x1="75" y1="95.33" x2="57.97" y2="153.35"/><line class="cls-4" x1="75" y1="95.33" x2="25.08" y2="129.46"/><path class="cls-4" d="M34.55,115.95a32.1,32.1,0,0,0,61.06,19.84h0L75,95.33Z"/><line class="cls-4" x1="75" y1="95.33" x2="89.21" y2="147.05"/><line class="cls-4" x1="75" y1="95.33" x2="33.11" y2="128.82"/><line class="cls-4" x1="75" y1="95.33" x2="76.73" y2="155.78"/><line class="cls-4" x1="75" y1="95.33" x2="38.07" y2="143.22"/><path class="cls-4" d="M42.9,127.44a32.1,32.1,0,0,0,64.2,0h0L75,95.33Z"/><line class="cls-4" x1="75" y1="95.33" x2="104.49" y2="140.12"/><line class="cls-4" x1="75" y1="95.33" x2="45.51" y2="140.12"/><line class="cls-4" x1="75" y1="95.33" x2="95.33" y2="152.28"/><line class="cls-4" x1="75" y1="95.33" x2="54.67" y2="152.28"/><path class="cls-4" d="M54.39,135.79a32.1,32.1,0,1,0,61.06-19.84L75,95.33Z"/><line class="cls-4" x1="75" y1="95.33" x2="116.89" y2="128.82"/><line class="cls-4" x1="75" y1="95.33" x2="60.79" y2="147.05"/><line class="cls-4" x1="75" y1="95.33" x2="111.93" y2="143.22"/><line class="cls-4" x1="75" y1="95.33" x2="73.27" y2="155.78"/><path class="cls-4" d="M67.9,140.18a32.1,32.1,0,0,0,51.94-37.74h0L75,95.33Z"/><line class="cls-4" x1="75" y1="95.33" x2="125.19" y2="114.23"/><line class="cls-4" x1="75" y1="95.33" x2="77.47" y2="148.91"/><line class="cls-4" x1="75" y1="95.33" x2="124.92" y2="129.46"/><line class="cls-4" x1="75" y1="95.33" x2="92.03" y2="153.35"/><path class="cls-4" d="M82.1,140.18a32.1,32.1,0,1,0,37.74-51.94L75,95.33Z"/><line class="cls-4" x1="75" y1="95.33" x2="128.57" y2="97.8"/><line class="cls-4" x1="75" y1="95.33" x2="93.9" y2="145.52"/><line class="cls-4" x1="75" y1="95.33" x2="133.02" y2="112.36"/><line class="cls-4" x1="75" y1="95.33" x2="109.13" y2="145.25"/><path class="cls-4" d="M95.61,135.79a32.1,32.1,0,1,0,19.84-61.06h0L75,95.33Z"/><line class="cls-4" x1="75" y1="95.33" x2="126.71" y2="81.13"/><line class="cls-4" x1="75" y1="95.33" x2="108.48" y2="137.22"/><line class="cls-4" x1="75" y1="95.33" x2="135.44" y2="93.6"/><line class="cls-4" x1="75" y1="95.33" x2="122.88" y2="132.26"/><path class="cls-4" d="M107.1,127.44a32.1,32.1,0,0,0,0-64.2L75,95.33Z"/><line class="cls-4" x1="75" y1="95.33" x2="119.79" y2="65.84"/><line class="cls-4" x1="75" y1="95.33" x2="119.79" y2="124.83"/><line class="cls-4" x1="75" y1="95.33" x2="131.95" y2="75.01"/><line class="cls-4" x1="75" y1="95.33" x2="131.95" y2="115.66"/><path class="cls-4" d="M115.45,115.95A32.11,32.11,0,1,0,95.61,54.88L75,95.33Z"/><line class="cls-4" x1="75" y1="95.33" x2="108.48" y2="53.44"/><line class="cls-4" x1="75" y1="95.33" x2="126.71" y2="109.54"/><line class="cls-4" x1="75" y1="95.33" x2="122.88" y2="58.41"/><line class="cls-4" x1="75" y1="95.33" x2="135.44" y2="97.07"/><path class="cls-4" d="M119.84,102.44a32.11,32.11,0,1,0-37.74-52L75,95.33Z"/><line class="cls-4" x1="75" y1="95.33" x2="93.9" y2="45.15"/><line class="cls-4" x1="75" y1="95.33" x2="128.57" y2="92.87"/><line class="cls-4" x1="75" y1="95.33" x2="109.13" y2="45.42"/><line class="cls-4" x1="75" y1="95.33" x2="133.02" y2="78.3"/><path class="cls-4" d="M119.84,88.23A32.1,32.1,0,0,0,67.9,50.49h0L75,95.33Z"/><line class="cls-4" x1="75" y1="95.33" x2="77.47" y2="41.76"/><line class="cls-4" x1="75" y1="95.33" x2="125.19" y2="76.44"/><line class="cls-4" x1="75" y1="95.33" x2="92.03" y2="37.31"/><line class="cls-4" x1="75" y1="95.33" x2="124.92" y2="61.21"/><path class="cls-4" d="M115.45,74.72A32.1,32.1,0,1,0,54.39,54.88h0L75,95.33Z"/><line class="cls-4" x1="75" y1="95.33" x2="60.79" y2="43.62"/><line class="cls-4" x1="75" y1="95.33" x2="116.89" y2="61.85"/><line class="cls-4" x1="75" y1="95.33" x2="73.27" y2="34.89"/><line class="cls-4" x1="75" y1="95.33" x2="111.93" y2="47.45"/><path class="cls-5" d="M102.94,67.4a27.94,27.94,0,1,0-55.88,0h0L75,95.33Z"/><line class="cls-5" x1="75" y1="95.33" x2="49.33" y2="56.36"/><line class="cls-5" x1="75" y1="95.33" x2="100.67" y2="56.36"/><line class="cls-5" x1="75" y1="95.33" x2="57.31" y2="45.77"/><line class="cls-5" x1="75" y1="95.33" x2="92.69" y2="45.77"/><path class="cls-5" d="M92.94,60.13A27.94,27.94,0,0,0,39.59,76.75l.21.65L75,95.33Z"/><line class="cls-5" x1="75" y1="95.33" x2="38.54" y2="66.2"/><line class="cls-5" x1="75" y1="95.33" x2="87.37" y2="50.33"/><line class="cls-5" x1="75" y1="95.33" x2="42.86" y2="53.67"/><line class="cls-5" x1="75" y1="95.33" x2="76.51" y2="42.73"/><path class="cls-5" d="M81.18,56.31A27.94,27.94,0,0,0,36,89.15l39,6.18Z"/><line class="cls-5" x1="75" y1="95.33" x2="31.32" y2="78.89"/><line class="cls-5" x1="75" y1="95.33" x2="72.85" y2="48.71"/><line class="cls-5" x1="75" y1="95.33" x2="31.56" y2="65.64"/><line class="cls-5" x1="75" y1="95.33" x2="60.18" y2="44.84"/><path class="cls-5" d="M68.82,56.31A27.94,27.94,0,1,0,35,100.81q.48.37,1,.71l39-6.18Z"/><line class="cls-5" x1="75" y1="95.33" x2="28.38" y2="93.19"/><line class="cls-5" x1="75" y1="95.33" x2="58.55" y2="51.66"/><line class="cls-5" x1="75" y1="95.33" x2="24.51" y2="80.51"/><line class="cls-5" x1="75" y1="95.33" x2="45.3" y2="51.89"/><path class="cls-5" d="M57.06,60.13A27.94,27.94,0,0,0,39.8,113.27L75,95.33Z"/><line class="cls-5" x1="75" y1="95.33" x2="30" y2="107.7"/><line class="cls-5" x1="75" y1="95.33" x2="45.86" y2="58.88"/><line class="cls-5" x1="75" y1="95.33" x2="22.4" y2="96.84"/><line class="cls-5" x1="75" y1="95.33" x2="33.33" y2="63.2"/><path class="cls-5" d="M47.06,67.4a27.94,27.94,0,1,0,0,55.88h0L75,95.33Z"/><line class="cls-5" x1="75" y1="95.33" x2="36.02" y2="121"/><line class="cls-5" x1="75" y1="95.33" x2="36.02" y2="69.67"/><line class="cls-5" x1="75" y1="95.33" x2="25.44" y2="113.02"/><line class="cls-5" x1="75" y1="95.33" x2="25.44" y2="77.65"/><path class="cls-5" d="M39.8,77.4a27.94,27.94,0,1,0,16.62,53.35l.65-.21L75,95.33Z"/><line class="cls-5" x1="75" y1="95.33" x2="45.86" y2="131.79"/><line class="cls-5" x1="75" y1="95.33" x2="30" y2="82.97"/><line class="cls-5" x1="75" y1="95.33" x2="33.33" y2="127.47"/><line class="cls-5" x1="75" y1="95.33" x2="22.4" y2="93.83"/><path class="cls-5" d="M36,89.15a27.94,27.94,0,0,0,32.84,45.2l6.18-39Z"/><line class="cls-5" x1="75" y1="95.33" x2="58.55" y2="139.01"/><line class="cls-5" x1="75" y1="95.33" x2="28.38" y2="97.48"/><line class="cls-5" x1="75" y1="95.33" x2="45.3" y2="138.78"/><line class="cls-5" x1="75" y1="95.33" x2="24.51" y2="110.16"/><path class="cls-5" d="M36,101.52A27.94,27.94,0,1,0,80.59,135.2q.31-.41.61-.84l-6.2-39Z"/><line class="cls-5" x1="75" y1="95.33" x2="72.85" y2="141.96"/><line class="cls-5" x1="75" y1="95.33" x2="31.32" y2="111.78"/><line class="cls-5" x1="75" y1="95.33" x2="60.18" y2="145.83"/><line class="cls-5" x1="75" y1="95.33" x2="31.56" y2="125.03"/><path class="cls-5" d="M39.8,113.27a27.94,27.94,0,0,0,52.93,17.92l.21-.65L75,95.33Z"/><line class="cls-5" x1="75" y1="95.33" x2="87.37" y2="140.34"/><line class="cls-5" x1="75" y1="95.33" x2="38.54" y2="124.47"/><line class="cls-5" x1="75" y1="95.33" x2="76.51" y2="147.94"/><line class="cls-5" x1="75" y1="95.33" x2="42.86" y2="137"/><path class="cls-5" d="M47.06,123.27a27.94,27.94,0,0,0,55.88,0L75,95.33Z"/><line class="cls-5" x1="75" y1="95.33" x2="100.67" y2="134.31"/><line class="cls-5" x1="75" y1="95.33" x2="49.33" y2="134.31"/><line class="cls-5" x1="75" y1="95.33" x2="92.69" y2="144.9"/><line class="cls-5" x1="75" y1="95.33" x2="57.31" y2="144.9"/><path class="cls-5" d="M57.06,130.54a27.94,27.94,0,1,0,53.35-16.62l-.21-.65L75,95.33Z"/><line class="cls-5" x1="75" y1="95.33" x2="111.46" y2="124.47"/><line class="cls-5" x1="75" y1="95.33" x2="62.63" y2="140.34"/><line class="cls-5" x1="75" y1="95.33" x2="107.14" y2="137"/><line class="cls-5" x1="75" y1="95.33" x2="73.49" y2="147.94"/><path class="cls-5" d="M68.82,134.36A27.94,27.94,0,0,0,115,102.89q-.48-.7-1-1.37L75,95.33Z"/><line class="cls-5" x1="75" y1="95.33" x2="118.68" y2="111.78"/><line class="cls-5" x1="75" y1="95.33" x2="77.15" y2="141.96"/><line class="cls-5" x1="75" y1="95.33" x2="118.44" y2="125.03"/><line class="cls-5" x1="75" y1="95.33" x2="89.82" y2="145.83"/><path class="cls-5" d="M81.18,134.36A27.94,27.94,0,0,0,114,89.15L75,95.33Z"/><line class="cls-5" x1="75" y1="95.33" x2="121.62" y2="97.48"/><line class="cls-5" x1="75" y1="95.33" x2="91.45" y2="139.01"/><line class="cls-5" x1="75" y1="95.33" x2="125.49" y2="110.16"/><line class="cls-5" x1="75" y1="95.33" x2="104.7" y2="138.78"/><path class="cls-5" d="M92.94,130.54a27.94,27.94,0,1,0,18.12-52.86l-.86-.28L75,95.33Z"/><line class="cls-5" x1="75" y1="95.33" x2="120" y2="82.97"/><line class="cls-5" x1="75" y1="95.33" x2="104.14" y2="131.79"/><line class="cls-5" x1="75" y1="95.33" x2="127.6" y2="93.83"/><line class="cls-5" x1="75" y1="95.33" x2="116.67" y2="127.47"/><path class="cls-5" d="M102.94,123.27a27.94,27.94,0,1,0,0-55.88h0L75,95.33Z"/><line class="cls-5" x1="75" y1="95.33" x2="113.98" y2="69.67"/><line class="cls-5" x1="75" y1="95.33" x2="113.98" y2="121"/><line class="cls-5" x1="75" y1="95.33" x2="124.56" y2="77.65"/><line class="cls-5" x1="75" y1="95.33" x2="124.56" y2="113.02"/><path class="cls-5" d="M110.2,113.27A27.94,27.94,0,0,0,93.79,59.85l-.85.28L75,95.33Z"/><line class="cls-5" x1="75" y1="95.33" x2="104.14" y2="58.88"/><line class="cls-5" x1="75" y1="95.33" x2="120" y2="107.7"/><line class="cls-5" x1="75" y1="95.33" x2="116.67" y2="63.2"/><line class="cls-5" x1="75" y1="95.33" x2="127.6" y2="96.84"/><path class="cls-5" d="M114,101.52a27.94,27.94,0,0,0-32.84-45.2L75,95.33Z"/><line class="cls-5" x1="75" y1="95.33" x2="91.45" y2="51.66"/><line class="cls-5" x1="75" y1="95.33" x2="121.62" y2="93.19"/><line class="cls-5" x1="75" y1="95.33" x2="104.7" y2="51.89"/><line class="cls-5" x1="75" y1="95.33" x2="125.49" y2="80.51"/><path class="cls-5" d="M114,89.15A27.94,27.94,0,1,0,69.41,55.47q-.31.41-.61.84l6.18,39Z"/><line class="cls-5" x1="75" y1="95.33" x2="77.15" y2="48.71"/><line class="cls-5" x1="75" y1="95.33" x2="118.68" y2="78.89"/><line class="cls-5" x1="75" y1="95.33" x2="89.82" y2="44.84"/><line class="cls-5" x1="75" y1="95.33" x2="118.44" y2="65.64"/><path class="cls-5" d="M110.2,77.4A27.94,27.94,0,0,0,57.27,59.48l-.21.65L75,95.33Z"/><line class="cls-5" x1="75" y1="95.33" x2="62.63" y2="50.33"/><line class="cls-5" x1="75" y1="95.33" x2="111.46" y2="66.2"/><line class="cls-5" x1="75" y1="95.33" x2="73.49" y2="42.73"/><line class="cls-5" x1="75" y1="95.33" x2="107.14" y2="53.67"/><g class="cls-6"><path class="cls-1" d="M38.67,116.61l-1.26-.43a2.8,2.8,0,0,0-.08-2.3,2.4,2.4,0,0,0-1.4-1.26,2.27,2.27,0,0,0-1.82.12,2.33,2.33,0,0,0-1.23,1.43A2.49,2.49,0,0,0,33,116.1a2.23,2.23,0,0,0,.79.92,2.06,2.06,0,0,0,1.17.28l-.91-1.83,1.13-.56,1.59,3.19-.26.14a3.47,3.47,0,0,1-1.79.35,3.36,3.36,0,0,1-1.69-.55,3.55,3.55,0,0,1-1.19-1.41,4,4,0,0,1-.45-2,3.51,3.51,0,0,1,.61-1.83,3.81,3.81,0,0,1,1.49-1.3,3.54,3.54,0,0,1,2.6-.26,3.66,3.66,0,0,1,2.38,2A4.38,4.38,0,0,1,39,115,4,4,0,0,1,38.67,116.61Z"/></g><g class="cls-6"><path class="cls-1" d="M40.84,117.72l2.28,3.12-1.06.78-1.49-2-1,.75,1.49,2-1,.76-1.49-2L37,122.2l1.49,2-1.07.78-2.28-3.12Z"/></g><g class="cls-6"><path class="cls-1" d="M44.07,122l.92.91-1.14,5.44,3.29-3.3,1,.95-5,5-.92-.91,1.13-5.42L40,128l-1-1Z"/></g><g class="cls-6"><path class="cls-1" d="M49.58,127.19l3.13,2.26-.77,1.07-2-1.48-.75,1,2,1.48-.76,1-2-1.48-1.09,1.51,2,1.48-.77,1.07-3.13-2.26Z"/></g><g class="cls-6"><path class="cls-1" d="M54.13,130.33l1.26.67a4.71,4.71,0,0,1,1.38,1,1.71,1.71,0,0,1,.38,1,2.13,2.13,0,0,1-.27,1.16A2,2,0,0,1,56,135a2,2,0,0,1-1.22.16v3.56l-1.3-.69v-3.39l-.11-.06L52,137.21l-1.19-.63ZM54,133.4l.37.2a1.65,1.65,0,0,0,.86.26.63.63,0,0,0,.48-.38.68.68,0,0,0,.08-.41.67.67,0,0,0-.17-.37,2.4,2.4,0,0,0-.62-.41l-.33-.17Z"/></g><g class="cls-6"><path class="cls-1" d="M61.45,133.68l1.3.44.32,7.59-1.33-.45-.06-1.56-2.74-.92-1,1.2-1.33-.45Zm.06,2-1.68,2,1.8.61Z"/></g><g class="cls-6"><path class="cls-1" d="M66.63,135.13l1.33.23-1,5.71,1.93.33-.22,1.27-3.26-.56Z"/></g><g class="cls-6"><path class="cls-1" d="M76.6,135.93l1.36-.08,3.11,6.91-1.4.08L79,141.42l-2.88.16-.49,1.49-1.4.08Zm.79,1.83-.81,2.48,1.89-.1Z"/></g><g class="cls-6"><path class="cls-1" d="M85.79,135.56,85,136.63a1.42,1.42,0,0,0-1.2-.49.65.65,0,0,0-.39.23.42.42,0,0,0-.1.35.56.56,0,0,0,.19.3,9.24,9.24,0,0,0,1.16.68q.89.47,1.09.6a2.82,2.82,0,0,1,.73.65,2,2,0,0,1,.34.77,1.89,1.89,0,0,1-.29,1.53,2.19,2.19,0,0,1-1.41.89,2.33,2.33,0,0,1-1.37-.08,2.92,2.92,0,0,1-1.18-.94l1-.91q.7.81,1.35.67a.86.86,0,0,0,.53-.32.6.6,0,0,0,.13-.5.79.79,0,0,0-.28-.43,5.09,5.09,0,0,0-.92-.55A8,8,0,0,1,82.57,138,1.86,1.86,0,0,1,82,137a1.67,1.67,0,0,1,.28-1.35,2,2,0,0,1,1.24-.81,2.19,2.19,0,0,1,1,0A3.69,3.69,0,0,1,85.79,135.56Z"/></g><g class="cls-6"><path class="cls-1" d="M91.07,133.77l-.64,1.17a1.42,1.42,0,0,0-1.25-.32.65.65,0,0,0-.36.28.42.42,0,0,0-.05.36.55.55,0,0,0,.23.28,9.17,9.17,0,0,0,1.24.52q.94.34,1.16.45a2.82,2.82,0,0,1,.81.55,2,2,0,0,1,.44.72,1.89,1.89,0,0,1-.08,1.56,2.2,2.2,0,0,1-1.28,1.07,2.34,2.34,0,0,1-1.36.1,2.93,2.93,0,0,1-1.3-.77l.83-1a1.44,1.44,0,0,0,1.42.48.86.86,0,0,0,.48-.39.61.61,0,0,0,.06-.52.8.8,0,0,0-.33-.39,5.17,5.17,0,0,0-1-.42,8,8,0,0,1-1.9-.86,1.84,1.84,0,0,1-.67-.85,1.67,1.67,0,0,1,.1-1.38,2,2,0,0,1,1.12-1,2.19,2.19,0,0,1,1-.11A3.68,3.68,0,0,1,91.07,133.77Z"/></g><g class="cls-6"><path class="cls-1" d="M92.34,132.15l3.42-1.79.61,1.17-2.24,1.17.59,1.13L97,132.67l.6,1.15L95.32,135l.86,1.65,2.24-1.17.61,1.17-3.42,1.79Z"/></g><g class="cls-6"><path class="cls-1" d="M97.63,129.27l1-.8,4.31,2.9-1.7-4.91,1-.8,5.25,4.87-1,.79-3.33-3.07,1.54,4.45-.94.72-3.9-2.62,2.11,4-1,.8Z"/></g><g class="cls-6"><path class="cls-1" d="M109.32,128.63l-5.26-4.73.74-.83a5.76,5.76,0,0,1,1-1,1.89,1.89,0,0,1,1.14-.33,1.64,1.64,0,0,1,1.05.44,1.58,1.58,0,0,1,.43.62,1.88,1.88,0,0,1,.09.83,2.2,2.2,0,0,1,1.19-.2,1.91,1.91,0,0,1,1,.5,2,2,0,0,1,.6,1,2,2,0,0,1,0,1.08,3.06,3.06,0,0,1-.72,1.16Zm-3.41-4.87,1.11,1,.2-.22a1.1,1.1,0,0,0,.33-.68.7.7,0,0,0-.26-.55.66.66,0,0,0-.54-.18,1,1,0,0,0-.61.38Zm2,1.8,1.35,1.21.23-.25a2.08,2.08,0,0,0,.6-1,.71.71,0,0,0-.26-.63.86.86,0,0,0-.77-.23,1.9,1.9,0,0,0-1,.67Z"/></g><g class="cls-6"><path class="cls-1" d="M108,119.27l.77-1.1,4.75,3.3,1.12-1.61,1.05.73-1.89,2.71Z"/></g><g class="cls-6"><path class="cls-1" d="M110.34,115.84l.65-1.29,2.87,0-1.68-2.32.64-1.28,2.65,3.65L118.2,116l-.61,1.21-2.74-1.38Z"/></g><g class="cls-6"><path class="cls-1" d="M33.94,73.22l.46,1.25A2.8,2.8,0,0,0,32.68,76a2.4,2.4,0,0,0-.09,1.88,2.27,2.27,0,0,0,1.24,1.33,2.32,2.32,0,0,0,1.88,0,2.48,2.48,0,0,0,1.39-1.35,2.22,2.22,0,0,0,.22-1.19,2.06,2.06,0,0,0-.52-1.08L36,77.49,34.81,77l1.46-3.24.28.11A3.45,3.45,0,0,1,37.95,75a3.36,3.36,0,0,1,.65,1.65,3.54,3.54,0,0,1-.34,1.81A4,4,0,0,1,37,80.06a3.49,3.49,0,0,1-1.8.68,3.79,3.79,0,0,1-1.94-.33,3.54,3.54,0,0,1-1.84-1.85,3.65,3.65,0,0,1,0-3.12,4.38,4.38,0,0,1,1-1.43A4,4,0,0,1,33.94,73.22Z"/></g><g class="cls-6"><path class="cls-1" d="M34.62,69.79l2.16-3.21,1.09.74-1.41,2.1,1.06.72L38.94,68l1.07.73-1.41,2.1,1.54,1,1.41-2.1,1.1.74-2.16,3.21Z"/></g><g class="cls-6"><path class="cls-1" d="M38.62,64.28l.89-.93,5.44,1L41.6,61.17l.93-1,5.09,4.88-.89.93L41.3,65l3.34,3.2-.93,1Z"/></g><g class="cls-6"><path class="cls-1" d="M45,58.07l3.09-2.32.79,1.05-2,1.52.77,1,2-1.52.78,1-2,1.52,1.12,1.49,2-1.52.79,1.06-3.09,2.32Z"/></g><g class="cls-6"><path class="cls-1" d="M50.5,54.2l1.25-.68a4.7,4.7,0,0,1,1.57-.62,1.71,1.71,0,0,1,1,.23,2.12,2.12,0,0,1,.82.86,2,2,0,0,1,.27,1.18,2,2,0,0,1-.54,1.1l3,2-1.29.71-2.83-1.87-.11.06,1.44,2.63-1.18.65ZM53,56l.37-.2a1.64,1.64,0,0,0,.7-.57A.64.64,0,0,0,54,54.6a.68.68,0,0,0-.3-.3.67.67,0,0,0-.4-.06,2.45,2.45,0,0,0-.68.29l-.32.18Z"/></g><g class="cls-6"><path class="cls-1" d="M59,50.2l1.29-.44,4.85,5.83L63.86,56l-1-1.2-2.73.93-.08,1.56-1.33.45Zm1.26,1.55-.12,2.6L62,53.75Z"/></g><g class="cls-6"><path class="cls-1" d="M65.52,48.36l1.33-.23,1,5.73,1.94-.33L70,54.8l-3.28.56Z"/></g><g class="cls-6"><path class="cls-1" d="M77.49,47.54l1.36.09,2.25,7.24-1.4-.09-.46-1.49-2.88-.19-.67,1.42-1.4-.09Zm.56,1.92-1.11,2.36,1.89.13Z"/></g><g class="cls-6"><path class="cls-1" d="M87.58,50.15l-1.17.62q-.34-.83-.87-1a.65.65,0,0,0-.45,0,.42.42,0,0,0-.24.27.54.54,0,0,0,0,.35,9.37,9.37,0,0,0,.75,1.11q.6.8.72,1a2.81,2.81,0,0,1,.38.9,2,2,0,0,1,0,.84,1.88,1.88,0,0,1-.92,1.26,2.19,2.19,0,0,1-1.65.19A2.33,2.33,0,0,1,83,55.12a2.92,2.92,0,0,1-.66-1.35l1.26-.4q.28,1,.92,1.18a.86.86,0,0,0,.61-.06.6.6,0,0,0,.34-.4.82.82,0,0,0-.06-.51,5.23,5.23,0,0,0-.59-.89,7.88,7.88,0,0,1-1.11-1.75,1.83,1.83,0,0,1-.09-1.07,1.66,1.66,0,0,1,.83-1.09,1.94,1.94,0,0,1,1.46-.19,2.18,2.18,0,0,1,.92.47A3.66,3.66,0,0,1,87.58,50.15Z"/></g><g class="cls-6"><path class="cls-1" d="M93.7,52.32l-1.25.46a1.41,1.41,0,0,0-.73-1.07.64.64,0,0,0-.46,0,.41.41,0,0,0-.27.24.55.55,0,0,0,0,.36,9.28,9.28,0,0,0,.59,1.21q.48.88.58,1.1a2.83,2.83,0,0,1,.25.95,2,2,0,0,1-.14.83,1.89,1.89,0,0,1-1.08,1.12,2.19,2.19,0,0,1-1.67,0,2.33,2.33,0,0,1-1.09-.82,2.91,2.91,0,0,1-.47-1.43l1.3-.22q.14,1.06.75,1.3a.86.86,0,0,0,.62,0,.6.6,0,0,0,.39-.35.8.8,0,0,0,0-.51,5.09,5.09,0,0,0-.46-1,7.94,7.94,0,0,1-.86-1.9,1.85,1.85,0,0,1,.06-1.07,1.67,1.67,0,0,1,1-1,1.94,1.94,0,0,1,1.48,0,2.18,2.18,0,0,1,.85.59A3.71,3.71,0,0,1,93.7,52.32Z"/></g><g class="cls-6"><path class="cls-1" d="M96.69,52.7l3.36,1.89-.65,1.15-2.2-1.24-.63,1.11,2.2,1.24L98.15,58,96,56.74,95,58.36l2.2,1.24-.65,1.15-3.36-1.89Z"/></g><g class="cls-6"><path class="cls-1" d="M103.14,56.6l1,.84-1.9,4.84,4.43-2.73,1,.84-3.62,6.19-1-.83,2.28-3.92-4,2.47-.91-.76,1.72-4.39-3.46,2.93-1-.84Z"/></g><g class="cls-6"><path class="cls-1" d="M105,67.8l5.47-4.48.71.86a5.76,5.76,0,0,1,.8,1.17,1.9,1.9,0,0,1,.16,1.18,1.64,1.64,0,0,1-.59,1,1.56,1.56,0,0,1-.68.33,1.86,1.86,0,0,1-.83,0A2.21,2.21,0,0,1,110,69a1.93,1.93,0,0,1-.64.91,2,2,0,0,1-1,.45,2,2,0,0,1-1.07-.15,3,3,0,0,1-1-.89Zm3.25-.92L106.83,68l.21.26a2.08,2.08,0,0,0,.88.74.7.7,0,0,0,.66-.16.86.86,0,0,0,.34-.72,1.89,1.89,0,0,0-.52-1Zm2.08-1.71-1.15.95.19.23a1.09,1.09,0,0,0,.62.43.7.7,0,0,0,.59-.17.65.65,0,0,0,.26-.51,1,1,0,0,0-.29-.66Z"/></g><g class="cls-6"><path class="cls-1" d="M114.81,69.08l.7,1.15-4.92,3,1,1.67-1.09.67-1.72-2.81Z"/></g><g class="cls-6"><path class="cls-1" d="M117.54,73.68l.57,1.33-1.81,2.22,2.86.2.57,1.31-4.5-.31-2.81,1.21-.54-1.25,2.81-1.21Z"/></g><circle class="cls-7" cx="75" cy="95" r="36.15"/><circle class="cls-8" cx="75" cy="95" r="35.47"/><path class="cls-9" d="M85.45,99C85.23,92.78,80.64,87.78,75,87.78S64.77,92.78,64.55,99h0v20.83H85.47V99Z"/><path class="cls-10" d="M85.47,99h0C85.22,92.78,80.64,87.78,75,87.78v32.09H85.47Z"/><circle class="cls-11" cx="79.03" cy="97.09" r="1.6"/><path class="cls-9" d="M90.82,85.87,89,84.14l-1.78,1.74-1.78-1.74v15.1L88,107.81a6.74,6.74,0,0,0,4.56-5.92h0V84.14Z"/><path class="cls-11" d="M85.47,101.58v6.68a7.52,7.52,0,0,0,2.56-.45l-2.56-8.57Z"/><path class="cls-9" d="M90.82,85.87,89,84.14l-1.78,1.74-1.78-1.74v15.1L88,107.81a6.74,6.74,0,0,0,4.56-5.92h0V84.14Z"/><path class="cls-11" d="M85.47,101.58v6.68a7.52,7.52,0,0,0,2.56-.45l-2.56-8.57Z"/><path class="cls-9" d="M59.18,85.87,61,84.14l1.78,1.74,1.78-1.74v15.1L62,107.81a6.74,6.74,0,0,1-4.56-5.92h0V84.14Z"/><path class="cls-11" d="M64.53,101.58v6.68a7.52,7.52,0,0,1-2.56-.45l2.56-8.57Z"/><rect class="cls-11" x="69.77" y="101.2" width="10.45" height="7.06" rx="2.41" ry="2.41"/><path class="cls-1" d="M74.4,108.26H72.66l.87-.87Z"/><path class="cls-1" d="M75.87,108.26H74.13l.87-.87Z"/><path class="cls-1" d="M77.34,108.26H75.6l.87-1.43Z"/><path class="cls-1" d="M73.53,102.63l-.87-1.43H74.4Z"/><path class="cls-1" d="M75,102.07l-.87-.87h1.74Z"/><path class="cls-1" d="M76.47,102.07l-.87-.87h1.74Z"/><path class="cls-11" d="M71,95.48a1.6,1.6,0,0,0-1.6,1.6h3.21a1.6,1.6,0,0,0-1.6-1.6Z"/><path class="cls-12" d="M75,59.53A35.47,35.47,0,1,0,110.47,95,35.47,35.47,0,0,0,75,59.53Zm0,59.3A23.84,23.84,0,1,1,98.84,95h0A23.84,23.84,0,0,1,75,118.84Z"/><g class="cls-6"><path d="M52.84,108.61l.76,1.16L49.09,116l-.78-1.19.93-1.28-1.6-2.46-1.56.32-.78-1.19Zm-1.21,1.63-2.59.54,1,1.61Z"/></g><g class="cls-6"><path d="M55.13,111.88l2.79,2.82-1,.95-.92-.93-4.15,4.1-1-1,4.15-4.1-.9-.91Z"/></g><g class="cls-6"><path d="M58.38,115l1.09.82-3.53,4.7,1.59,1.2-.78,1-2.69-2Z"/></g><g class="cls-6"><path d="M63.46,118.33l1.26.58-.52,7.68L62.9,126l.11-1.58-2.66-1.24-1.15,1.1-1.29-.6Zm-.17,2-1.91,1.83,1.74.81Z"/></g><g class="cls-6"><path d="M67.6,120.16l1.29.22,2.21,5.15.8-4.63,1.34.23-1.22,7L70.73,128l-2.21-5.14-.8,4.62-1.34-.23Z"/></g><g class="cls-6"><path d="M73.73,121.07l4-.1,0,1.35-1.31,0,.15,5.83-1.39,0L75,122.38l-1.27,0Z"/></g><g class="cls-6"><path d="M80.24,120.53l1.35-.32,4.33,6.33-1.38.33-.89-1.3-2.84.67-.23,1.57-1.38.33Zm1.12,1.69L81,124.83l1.86-.44Z"/></g><g class="cls-6"><path d="M87.59,124.3l1.06.06-.29,2.37-.74,0Z"/></g><g class="cls-6"><path d="M95.07,113.7,94.94,115a2.85,2.85,0,0,0-2.25.64,2.44,2.44,0,0,0-.9,1.68,2.3,2.3,0,0,0,.55,1.77A2.37,2.37,0,0,0,94,120a2.53,2.53,0,0,0,1.87-.63,2.26,2.26,0,0,0,.72-1,2.1,2.1,0,0,0,0-1.22L95,118.5l-.83-1L97,115.19l.2.23a3.51,3.51,0,0,1,.78,1.68,3.42,3.42,0,0,1-.13,1.8,3.61,3.61,0,0,1-1.1,1.51,4.06,4.06,0,0,1-1.84.92,3.55,3.55,0,0,1-2-.16A3.85,3.85,0,0,1,91.29,120a3.6,3.6,0,0,1-.88-2.5,3.71,3.71,0,0,1,1.41-2.84,4.4,4.4,0,0,1,1.56-.87A4,4,0,0,1,95.07,113.7Z"/></g><g class="cls-6"><path d="M96.22,110.15,97,109l7.5,1.74-.8,1.18-1.54-.36L100.52,114l.9,1.31-.8,1.18Zm2,.49,1.5,2.18,1.08-1.59Z"/></g><g class="cls-6"><path d="M104.17,107.87a.74.74,0,0,1,.42-.4.76.76,0,0,1,1,.44.76.76,0,0,1-1,1,.73.73,0,0,1-.4-.43A.74.74,0,0,1,104.17,107.87Z"/></g><g class="cls-6"><path class="cls-11" d="M42.36,90.51l.3-1.3,5.25-.5-4.5-2.76.3-1.3,7.27.44-.3,1.29-4.59-.27,4.08,2.51-.27,1.17-4.76.45L49.38,92l-.3,1.3Z"/></g><g class="cls-6"><path class="cls-11" d="M46.83,77.9a3.55,3.55,0,0,1,2.3-1.65,3.66,3.66,0,0,1,2.86.47,3.62,3.62,0,0,1,1.7,2.3,3.74,3.74,0,0,1-2.79,4.5,3.76,3.76,0,0,1-4.07-5.62Zm1.13.71a2.25,2.25,0,0,0-.28,1.79,2.4,2.4,0,0,0,1.15,1.49,2.29,2.29,0,0,0,2,.25,2.33,2.33,0,0,0,1.25-1,2.22,2.22,0,0,0,.26-1.77,2.53,2.53,0,0,0-3-1.8A2.24,2.24,0,0,0,48,78.61Z"/></g><g class="cls-6"><path class="cls-11" d="M50.81,72.66l1-.88,5.45,1.43-3.18-3.5,1-.92,4.83,5.31-1,.88-5.44-1.42,3.17,3.49-1,.92Z"/></g><g class="cls-6"><path class="cls-11" d="M61.2,66.23l-.44,1.27a1.44,1.44,0,0,0-1.31-.11.66.66,0,0,0-.31.34.42.42,0,0,0,0,.37.55.55,0,0,0,.27.24,9.32,9.32,0,0,0,1.32.31q1,.19,1.23.25a2.87,2.87,0,0,1,.91.41,2,2,0,0,1,.56.64,1.92,1.92,0,0,1,.18,1.57,2.23,2.23,0,0,1-1.1,1.28,2.36,2.36,0,0,1-1.35.33,3,3,0,0,1-1.43-.55l.66-1.17a1.46,1.46,0,0,0,1.5.24.88.88,0,0,0,.41-.47.61.61,0,0,0,0-.53.82.82,0,0,0-.4-.34,5.23,5.23,0,0,0-1.06-.26,8,8,0,0,1-2-.54,1.87,1.87,0,0,1-.81-.73,1.69,1.69,0,0,1-.13-1.39,2,2,0,0,1,1-1.15,2.21,2.21,0,0,1,1-.29A3.72,3.72,0,0,1,61.2,66.23Z"/></g><g class="cls-6"><path class="cls-11" d="M62.26,64.69,66,63.38l.45,1.27-1.24.43,1.93,5.51-1.31.46-1.93-5.51-1.2.42Z"/></g><g class="cls-6"><path class="cls-11" d="M67.88,62.91l3.88-.63L72,63.6,69.44,64l.21,1.29,2.54-.41.21,1.3-2.54.41.3,1.87,2.54-.41.21,1.33L69,70Z"/></g><g class="cls-6"><path class="cls-11" d="M74.16,62.15l1.45,0a4.82,4.82,0,0,1,1.69.27,1.74,1.74,0,0,1,.79.73,2.16,2.16,0,0,1,.27,1.18A2,2,0,0,1,78,65.56a2.05,2.05,0,0,1-1,.68l1.59,3.25L77,69.44l-1.51-3.1h-.12l-.11,3-1.37,0ZM75.43,65l.43,0a1.68,1.68,0,0,0,.9-.14.64.64,0,0,0,.26-.56.7.7,0,0,0-.11-.41.67.67,0,0,0-.32-.26,2.45,2.45,0,0,0-.75-.1h-.37Z"/></g><g class="cls-6"><path class="cls-11" d="M85.25,63.7l1.22.53L86,69.49l3.53-3.93,1.22.53L89,73.15l-1.21-.52,1.09-4.47-3.2,3.56-1.11-.48L85,66.48l-2.52,3.85-1.22-.53Z"/></g><g class="cls-6"><path class="cls-11" d="M95.75,69.6l1.05.9-2.57,7.25-1.08-.92.54-1.49-2.23-1.9-1.4.75L89,73.26ZM95,71.5l-2.33,1.25L94.17,74Z"/></g><g class="cls-6"><path class="cls-11" d="M99.82,73.48l2.42,3.15-1.07.82-.8-1L95.74,80l-.84-1.1,4.63-3.55-.78-1Z"/></g><g class="cls-6"><path class="cls-11" d="M105.08,84.91l-1.23-.48a3,3,0,0,0,0-2.42,2.41,2.41,0,0,0-3.24-1.18,2.58,2.58,0,0,0-1,.82,2.24,2.24,0,0,0-.42,1.17,2.55,2.55,0,0,0,.25,1.28,2.6,2.6,0,0,0,.66.89,3.9,3.9,0,0,0,1.19.64l-.49,1.25A5.08,5.08,0,0,1,99.17,86a4.1,4.1,0,0,1-1-1.34A3.73,3.73,0,0,1,98,81.7a3.68,3.68,0,0,1,2-2.12,3.72,3.72,0,0,1,1.94-.36,3.6,3.6,0,0,1,1.8.7,3.91,3.91,0,0,1,1.28,1.55,4.13,4.13,0,0,1,0,3.45Z"/></g><g class="cls-6"><path class="cls-11" d="M106.9,87l.23,1.37-2.67.45.4,2.36,2.67-.45.23,1.36-7.08,1.2-.23-1.36,3.11-.52-.4-2.36-3.11.53-.23-1.37Z"/></g><polygon class="cls-1" points="30.41 90.8 31.45 94.01 34.82 94.01 32.09 95.99 33.13 99.2 30.41 97.22 27.68 99.2 28.72 95.99 25.99 94.01 29.36 94.01 30.41 90.8"/><polygon class="cls-1" points="119.59 90.8 118.55 94.01 115.18 94.01 117.91 95.99 116.86 99.2 119.59 97.22 122.32 99.2 121.28 95.99 124.01 94.01 120.64 94.01 119.59 90.8"/></g></g></svg>