<svg xmlns="http://www.w3.org/2000/svg" viewBox="0 0 129.31 129.34"><defs><style>.cls-1,.cls-11{fill:#231f20;}.cls-1,.cls-12,.cls-2,.cls-3,.cls-4,.cls-8{stroke:#231f20;}.cls-1,.cls-12,.cls-2,.cls-3,.cls-4,.cls-7,.cls-8{stroke-miterlimit:10;}.cls-1{stroke-width:2.01px;}.cls-2,.cls-3,.cls-4,.cls-8{fill:none;}.cls-2{stroke-width:0.45px;}.cls-3{stroke-width:0.92px;}.cls-4{stroke-width:0.41px;}.cls-5{isolation:isolate;}.cls-6,.cls-7{fill:#fff;}.cls-7{stroke:#fff;stroke-width:1.02px;}.cls-12,.cls-7,.cls-8{stroke-linecap:round;}.cls-9{fill:#ffd017;}.cls-10{fill:#efb616;}.cls-12{fill:#fc0;}</style></defs><title>Asset 2highest</title><g id="Layer_2" data-name="Layer 2"><g id="Layer_4" data-name="Layer 4"><circle class="cls-1" cx="64.65" cy="64.33" r="51.28"/><path class="cls-2" d="M95.65,33.67a31,31,0,1,0-62,0l31,31Z"/><line class="cls-2" x1="64.65" y1="64.66" x2="36.17" y2="21.42"/><line class="cls-2" x1="64.65" y1="64.66" x2="93.13" y2="21.42"/><line class="cls-2" x1="64.65" y1="64.66" x2="45.02" y2="9.67"/><line class="cls-2" x1="64.65" y1="64.66" x2="84.28" y2="9.67"/><path class="cls-2" d="M84.55,25.6a31,31,0,0,0-59,19.16l39.1,19.9Z"/><line class="cls-2" x1="64.65" y1="64.66" x2="24.2" y2="32.33"/><line class="cls-2" x1="64.65" y1="64.66" x2="78.37" y2="14.73"/><line class="cls-2" x1="64.65" y1="64.66" x2="28.99" y2="18.43"/><line class="cls-2" x1="64.65" y1="64.66" x2="66.32" y2="6.3"/><path class="cls-2" d="M71.51,21.33A31,31,0,1,0,21.35,57.81l43.3,6.85Z"/><line class="cls-2" x1="64.65" y1="64.66" x2="16.19" y2="46.42"/><line class="cls-2" x1="64.65" y1="64.66" x2="62.27" y2="12.94"/><line class="cls-2" x1="64.65" y1="64.66" x2="16.45" y2="31.71"/><line class="cls-2" x1="64.65" y1="64.66" x2="48.21" y2="8.64"/><path class="cls-2" d="M57.79,21.33A31,31,0,0,0,21.35,71.52l43.3-6.86Z"/><line class="cls-2" x1="64.65" y1="64.66" x2="12.92" y2="62.28"/><line class="cls-2" x1="64.65" y1="64.66" x2="46.4" y2="16.2"/><line class="cls-2" x1="64.65" y1="64.66" x2="8.63" y2="48.22"/><line class="cls-2" x1="64.65" y1="64.66" x2="31.7" y2="16.46"/><path class="cls-2" d="M44.75,25.6a31,31,0,1,0-19.16,59L64.65,64.66Z"/><line class="cls-2" x1="64.65" y1="64.66" x2="14.72" y2="78.39"/><line class="cls-2" x1="64.65" y1="64.66" x2="32.32" y2="24.21"/><line class="cls-2" x1="64.65" y1="64.66" x2="6.29" y2="66.34"/><line class="cls-2" x1="64.65" y1="64.66" x2="18.42" y2="29.01"/><path class="cls-2" d="M33.65,33.67a31,31,0,1,0,0,62l31-31Z"/><line class="cls-2" x1="64.65" y1="64.66" x2="21.4" y2="93.14"/><line class="cls-2" x1="64.65" y1="64.66" x2="21.4" y2="36.19"/><line class="cls-2" x1="64.65" y1="64.66" x2="9.66" y2="84.29"/><line class="cls-2" x1="64.65" y1="64.66" x2="9.66" y2="45.04"/><path class="cls-2" d="M25.59,44.76a31,31,0,0,0,19.16,59l19.9-39.1Z"/><line class="cls-2" x1="64.65" y1="64.66" x2="32.32" y2="105.11"/><line class="cls-2" x1="64.65" y1="64.66" x2="14.72" y2="50.94"/><line class="cls-2" x1="64.65" y1="64.66" x2="18.42" y2="100.32"/><line class="cls-2" x1="64.65" y1="64.66" x2="6.29" y2="62.99"/><path class="cls-2" d="M21.35,57.81A31,31,0,0,0,57.79,108l6.86-43.31Z"/><line class="cls-2" x1="64.65" y1="64.66" x2="46.4" y2="113.13"/><line class="cls-2" x1="64.65" y1="64.66" x2="12.92" y2="67.05"/><line class="cls-2" x1="64.65" y1="64.66" x2="31.7" y2="112.87"/><line class="cls-2" x1="64.65" y1="64.66" x2="8.63" y2="81.11"/><path class="cls-2" d="M21.35,71.52a31,31,0,0,0,50,36.7l.19-.26-6.86-43.3Z"/><line class="cls-2" x1="64.65" y1="64.66" x2="62.27" y2="116.39"/><line class="cls-2" x1="64.65" y1="64.66" x2="16.19" y2="82.91"/><line class="cls-2" x1="64.65" y1="64.66" x2="48.21" y2="120.69"/><line class="cls-2" x1="64.65" y1="64.66" x2="16.45" y2="97.62"/><path class="cls-2" d="M25.59,84.57a31,31,0,0,0,59,19.16L64.65,64.66Z"/><line class="cls-2" x1="64.65" y1="64.66" x2="78.37" y2="114.6"/><line class="cls-2" x1="64.65" y1="64.66" x2="24.2" y2="97"/><line class="cls-2" x1="64.65" y1="64.66" x2="66.32" y2="123.03"/><line class="cls-2" x1="64.65" y1="64.66" x2="28.99" y2="110.9"/><path class="cls-2" d="M33.65,95.66a31,31,0,1,0,62,0l-31-31Z"/><line class="cls-2" x1="64.65" y1="64.66" x2="93.13" y2="107.91"/><line class="cls-2" x1="64.65" y1="64.66" x2="36.17" y2="107.91"/><line class="cls-2" x1="64.65" y1="64.66" x2="84.28" y2="119.66"/><line class="cls-2" x1="64.65" y1="64.66" x2="45.02" y2="119.66"/><path class="cls-2" d="M44.75,103.72a31,31,0,1,0,59-19.16l-39.1-19.9Z"/><line class="cls-2" x1="64.65" y1="64.66" x2="105.1" y2="97"/><line class="cls-2" x1="64.65" y1="64.66" x2="50.93" y2="114.6"/><line class="cls-2" x1="64.65" y1="64.66" x2="100.31" y2="110.9"/><line class="cls-2" x1="64.65" y1="64.66" x2="62.98" y2="123.03"/><path class="cls-2" d="M57.79,108a31,31,0,1,0,50.35-36.18l-.19-.26-43.3-6.86Z"/><line class="cls-2" x1="64.65" y1="64.66" x2="113.11" y2="82.91"/><line class="cls-2" x1="64.65" y1="64.66" x2="67.03" y2="116.39"/><line class="cls-2" x1="64.65" y1="64.66" x2="112.85" y2="97.62"/><line class="cls-2" x1="64.65" y1="64.66" x2="81.09" y2="120.69"/><path class="cls-2" d="M71.51,108a31,31,0,0,0,36.44-50.15l-43.3,6.85Z"/><line class="cls-2" x1="64.65" y1="64.66" x2="116.38" y2="67.05"/><line class="cls-2" x1="64.65" y1="64.66" x2="82.9" y2="113.13"/><line class="cls-2" x1="64.65" y1="64.66" x2="120.67" y2="81.11"/><line class="cls-2" x1="64.65" y1="64.66" x2="97.6" y2="112.87"/><path class="cls-2" d="M84.55,103.72a31,31,0,0,0,19.16-59h0L64.65,64.66Z"/><line class="cls-2" x1="64.65" y1="64.66" x2="114.58" y2="50.94"/><line class="cls-2" x1="64.65" y1="64.66" x2="96.98" y2="105.11"/><line class="cls-2" x1="64.65" y1="64.66" x2="123.01" y2="62.99"/><line class="cls-2" x1="64.65" y1="64.66" x2="110.88" y2="100.32"/><path class="cls-2" d="M95.65,95.66a31,31,0,1,0,0-62l-31,31Z"/><line class="cls-2" x1="64.65" y1="64.66" x2="107.9" y2="36.19"/><line class="cls-2" x1="64.65" y1="64.66" x2="107.9" y2="93.14"/><line class="cls-2" x1="64.65" y1="64.66" x2="119.64" y2="45.04"/><line class="cls-2" x1="64.65" y1="64.66" x2="119.64" y2="84.29"/><path class="cls-2" d="M103.71,84.57a31,31,0,1,0-19.16-59L64.65,64.66Z"/><line class="cls-2" x1="64.65" y1="64.66" x2="96.98" y2="24.21"/><line class="cls-2" x1="64.65" y1="64.66" x2="114.58" y2="78.39"/><line class="cls-2" x1="64.65" y1="64.66" x2="110.88" y2="29.01"/><line class="cls-2" x1="64.65" y1="64.66" x2="123.01" y2="66.34"/><path class="cls-2" d="M107.95,71.52A31,31,0,0,0,71.51,21.33L64.65,64.66Z"/><line class="cls-2" x1="64.65" y1="64.66" x2="82.9" y2="16.2"/><line class="cls-2" x1="64.65" y1="64.66" x2="116.38" y2="62.28"/><line class="cls-2" x1="64.65" y1="64.66" x2="97.6" y2="16.46"/><line class="cls-2" x1="64.65" y1="64.66" x2="120.67" y2="48.22"/><path class="cls-2" d="M107.95,57.81A31,31,0,0,0,57.79,21.33l6.86,43.33Z"/><line class="cls-2" x1="64.65" y1="64.66" x2="67.03" y2="12.94"/><line class="cls-2" x1="64.65" y1="64.66" x2="113.11" y2="46.42"/><line class="cls-2" x1="64.65" y1="64.66" x2="81.09" y2="8.64"/><line class="cls-2" x1="64.65" y1="64.66" x2="112.85" y2="31.71"/><path class="cls-2" d="M103.71,44.76a31,31,0,0,0-59-19.16h0L64.65,64.66Z"/><line class="cls-2" x1="64.65" y1="64.66" x2="50.93" y2="14.73"/><line class="cls-2" x1="64.65" y1="64.66" x2="105.1" y2="32.33"/><line class="cls-2" x1="64.65" y1="64.66" x2="62.98" y2="6.3"/><line class="cls-2" x1="64.65" y1="64.66" x2="100.31" y2="18.43"/><path class="cls-3" d="M96.75,32.56a32.1,32.1,0,0,0-64.2,0h0l32.1,32.1Z"/><line class="cls-3" x1="64.65" y1="64.66" x2="35.16" y2="19.88"/><line class="cls-3" x1="64.65" y1="64.66" x2="94.14" y2="19.88"/><line class="cls-3" x1="64.65" y1="64.66" x2="44.32" y2="7.72"/><line class="cls-3" x1="64.65" y1="64.66" x2="84.98" y2="7.72"/><path class="cls-3" d="M85.26,24.21A32.1,32.1,0,1,0,24.2,44.05h0L64.65,64.66Z"/><line class="cls-3" x1="64.65" y1="64.66" x2="22.76" y2="31.18"/><line class="cls-3" x1="64.65" y1="64.66" x2="78.86" y2="12.95"/><line class="cls-3" x1="64.65" y1="64.66" x2="27.72" y2="16.78"/><line class="cls-3" x1="64.65" y1="64.66" x2="66.38" y2="4.22"/><path class="cls-3" d="M71.75,19.82A32.1,32.1,0,0,0,19.81,57.56h0l44.84,7.1Z"/><line class="cls-3" x1="64.65" y1="64.66" x2="14.46" y2="45.77"/><line class="cls-3" x1="64.65" y1="64.66" x2="62.18" y2="11.09"/><line class="cls-3" x1="64.65" y1="64.66" x2="14.73" y2="30.54"/><line class="cls-3" x1="64.65" y1="64.66" x2="47.62" y2="6.64"/><path class="cls-3" d="M57.55,19.82A32.1,32.1,0,1,0,19.81,71.76l44.84-7.1Z"/><line class="cls-3" x1="64.65" y1="64.66" x2="11.08" y2="62.2"/><line class="cls-3" x1="64.65" y1="64.66" x2="45.75" y2="14.48"/><line class="cls-3" x1="64.65" y1="64.66" x2="6.63" y2="47.63"/><line class="cls-3" x1="64.65" y1="64.66" x2="30.52" y2="14.75"/><path class="cls-3" d="M44,24.21A32.1,32.1,0,0,0,24.2,85.27L64.65,64.66Z"/><line class="cls-3" x1="64.65" y1="64.66" x2="12.94" y2="78.87"/><line class="cls-3" x1="64.65" y1="64.66" x2="31.17" y2="22.77"/><line class="cls-3" x1="64.65" y1="64.66" x2="4.21" y2="66.4"/><line class="cls-3" x1="64.65" y1="64.66" x2="16.77" y2="27.74"/><path class="cls-3" d="M32.55,32.56a32.1,32.1,0,0,0,0,64.2l32.1-32.1Z"/><line class="cls-3" x1="64.65" y1="64.66" x2="19.86" y2="94.16"/><line class="cls-3" x1="64.65" y1="64.66" x2="19.86" y2="35.17"/><line class="cls-3" x1="64.65" y1="64.66" x2="7.7" y2="84.99"/><line class="cls-3" x1="64.65" y1="64.66" x2="7.7" y2="44.34"/><path class="cls-3" d="M24.2,44.05A32.1,32.1,0,1,0,44,105.11L64.65,64.66Z"/><line class="cls-3" x1="64.65" y1="64.66" x2="31.17" y2="106.55"/><line class="cls-3" x1="64.65" y1="64.66" x2="12.94" y2="50.46"/><line class="cls-3" x1="64.65" y1="64.66" x2="16.77" y2="101.59"/><line class="cls-3" x1="64.65" y1="64.66" x2="4.21" y2="62.93"/><path class="cls-3" d="M19.81,57.56a32.11,32.11,0,0,0,37.74,51.95l7.1-44.85Z"/><line class="cls-3" x1="64.65" y1="64.66" x2="45.75" y2="114.85"/><line class="cls-3" x1="64.65" y1="64.66" x2="11.08" y2="67.13"/><line class="cls-3" x1="64.65" y1="64.66" x2="30.52" y2="114.58"/><line class="cls-3" x1="64.65" y1="64.66" x2="6.63" y2="81.69"/><path class="cls-3" d="M19.81,71.77a32.1,32.1,0,1,0,51.94,37.74l-7.1-44.85Z"/><line class="cls-3" x1="64.65" y1="64.66" x2="62.18" y2="118.24"/><line class="cls-3" x1="64.65" y1="64.66" x2="14.46" y2="83.56"/><line class="cls-3" x1="64.65" y1="64.66" x2="47.62" y2="122.68"/><line class="cls-3" x1="64.65" y1="64.66" x2="14.73" y2="98.79"/><path class="cls-3" d="M24.2,85.28a32.1,32.1,0,0,0,61.06,19.84h0L64.65,64.66Z"/><line class="cls-3" x1="64.65" y1="64.66" x2="78.86" y2="116.38"/><line class="cls-3" x1="64.65" y1="64.66" x2="22.76" y2="98.15"/><line class="cls-3" x1="64.65" y1="64.66" x2="66.38" y2="125.11"/><line class="cls-3" x1="64.65" y1="64.66" x2="27.72" y2="112.55"/><path class="cls-3" d="M32.55,96.77a32.1,32.1,0,0,0,64.2,0h0L64.65,64.66Z"/><line class="cls-3" x1="64.65" y1="64.66" x2="94.14" y2="109.45"/><line class="cls-3" x1="64.65" y1="64.66" x2="35.16" y2="109.45"/><line class="cls-3" x1="64.65" y1="64.66" x2="84.98" y2="121.61"/><line class="cls-3" x1="64.65" y1="64.66" x2="44.32" y2="121.61"/><path class="cls-3" d="M44,105.12A32.1,32.1,0,0,0,105.1,85.28L64.65,64.66Z"/><line class="cls-3" x1="64.65" y1="64.66" x2="106.54" y2="98.15"/><line class="cls-3" x1="64.65" y1="64.66" x2="50.44" y2="116.38"/><line class="cls-3" x1="64.65" y1="64.66" x2="101.58" y2="112.55"/><line class="cls-3" x1="64.65" y1="64.66" x2="62.92" y2="125.11"/><path class="cls-3" d="M57.55,109.51a32.1,32.1,0,0,0,51.94-37.74h0L64.65,64.66Z"/><line class="cls-3" x1="64.65" y1="64.66" x2="114.84" y2="83.56"/><line class="cls-3" x1="64.65" y1="64.66" x2="67.12" y2="118.24"/><line class="cls-3" x1="64.65" y1="64.66" x2="114.57" y2="98.79"/><line class="cls-3" x1="64.65" y1="64.66" x2="81.68" y2="122.68"/><path class="cls-3" d="M71.75,109.51a32.1,32.1,0,1,0,37.74-51.94L64.65,64.66Z"/><line class="cls-3" x1="64.65" y1="64.66" x2="118.22" y2="67.13"/><line class="cls-3" x1="64.65" y1="64.66" x2="83.55" y2="114.85"/><line class="cls-3" x1="64.65" y1="64.66" x2="122.67" y2="81.69"/><line class="cls-3" x1="64.65" y1="64.66" x2="98.78" y2="114.58"/><path class="cls-3" d="M85.26,105.12A32.1,32.1,0,0,0,105.1,44.06h0L64.65,64.66Z"/><line class="cls-3" x1="64.65" y1="64.66" x2="116.36" y2="50.46"/><line class="cls-3" x1="64.65" y1="64.66" x2="98.13" y2="106.55"/><line class="cls-3" x1="64.65" y1="64.66" x2="125.09" y2="62.93"/><line class="cls-3" x1="64.65" y1="64.66" x2="112.53" y2="101.59"/><path class="cls-3" d="M96.75,96.77a32.1,32.1,0,0,0,0-64.2L64.65,64.66Z"/><line class="cls-3" x1="64.65" y1="64.66" x2="109.44" y2="35.17"/><line class="cls-3" x1="64.65" y1="64.66" x2="109.44" y2="94.16"/><line class="cls-3" x1="64.65" y1="64.66" x2="121.6" y2="44.34"/><line class="cls-3" x1="64.65" y1="64.66" x2="121.6" y2="84.99"/><path class="cls-3" d="M105.1,85.28A32.11,32.11,0,1,0,85.26,24.21L64.65,64.66Z"/><line class="cls-3" x1="64.65" y1="64.66" x2="98.13" y2="22.77"/><line class="cls-3" x1="64.65" y1="64.66" x2="116.36" y2="78.87"/><line class="cls-3" x1="64.65" y1="64.66" x2="112.53" y2="27.74"/><line class="cls-3" x1="64.65" y1="64.66" x2="125.09" y2="66.4"/><path class="cls-3" d="M109.49,71.77a32.11,32.11,0,1,0-37.74-52l-7.1,44.84Z"/><line class="cls-3" x1="64.65" y1="64.66" x2="83.55" y2="14.48"/><line class="cls-3" x1="64.65" y1="64.66" x2="118.22" y2="62.2"/><line class="cls-3" x1="64.65" y1="64.66" x2="98.78" y2="14.75"/><line class="cls-3" x1="64.65" y1="64.66" x2="122.67" y2="47.63"/><path class="cls-3" d="M109.49,57.56A32.1,32.1,0,0,0,57.55,19.82h0l7.1,44.84Z"/><line class="cls-3" x1="64.65" y1="64.66" x2="67.12" y2="11.09"/><line class="cls-3" x1="64.65" y1="64.66" x2="114.84" y2="45.77"/><line class="cls-3" x1="64.65" y1="64.66" x2="81.68" y2="6.64"/><line class="cls-3" x1="64.65" y1="64.66" x2="114.57" y2="30.54"/><path class="cls-3" d="M105.1,44.05A32.1,32.1,0,1,0,44,24.21h0L64.65,64.66Z"/><line class="cls-3" x1="64.65" y1="64.66" x2="50.44" y2="12.95"/><line class="cls-3" x1="64.65" y1="64.66" x2="106.54" y2="31.18"/><line class="cls-3" x1="64.65" y1="64.66" x2="62.92" y2="4.22"/><line class="cls-3" x1="64.65" y1="64.66" x2="101.58" y2="16.78"/><path class="cls-4" d="M92.59,36.73a27.94,27.94,0,1,0-55.88,0h0L64.65,64.66Z"/><line class="cls-4" x1="64.65" y1="64.66" x2="38.98" y2="25.69"/><line class="cls-4" x1="64.65" y1="64.66" x2="90.32" y2="25.69"/><line class="cls-4" x1="64.65" y1="64.66" x2="46.96" y2="15.1"/><line class="cls-4" x1="64.65" y1="64.66" x2="82.34" y2="15.1"/><path class="cls-4" d="M82.59,29.46A27.94,27.94,0,0,0,29.24,46.09l.21.65,35.2,17.93Z"/><line class="cls-4" x1="64.65" y1="64.66" x2="28.19" y2="35.53"/><line class="cls-4" x1="64.65" y1="64.66" x2="77.02" y2="19.66"/><line class="cls-4" x1="64.65" y1="64.66" x2="32.51" y2="23"/><line class="cls-4" x1="64.65" y1="64.66" x2="66.16" y2="12.06"/><path class="cls-4" d="M70.83,25.64A27.94,27.94,0,0,0,25.65,58.48l39,6.18Z"/><line class="cls-4" x1="64.65" y1="64.66" x2="20.97" y2="48.22"/><line class="cls-4" x1="64.65" y1="64.66" x2="62.5" y2="18.04"/><line class="cls-4" x1="64.65" y1="64.66" x2="21.21" y2="34.97"/><line class="cls-4" x1="64.65" y1="64.66" x2="49.83" y2="14.17"/><path class="cls-4" d="M58.47,25.64a27.94,27.94,0,1,0-33.8,44.5q.48.37,1,.71l39-6.18Z"/><line class="cls-4" x1="64.65" y1="64.66" x2="18.03" y2="62.52"/><line class="cls-4" x1="64.65" y1="64.66" x2="48.2" y2="20.99"/><line class="cls-4" x1="64.65" y1="64.66" x2="14.16" y2="49.84"/><line class="cls-4" x1="64.65" y1="64.66" x2="34.95" y2="21.22"/><path class="cls-4" d="M46.71,29.46A27.94,27.94,0,0,0,29.45,82.6l35.2-17.94Z"/><line class="cls-4" x1="64.65" y1="64.66" x2="19.65" y2="77.03"/><line class="cls-4" x1="64.65" y1="64.66" x2="35.51" y2="28.21"/><line class="cls-4" x1="64.65" y1="64.66" x2="12.05" y2="66.17"/><line class="cls-4" x1="64.65" y1="64.66" x2="22.98" y2="32.53"/><path class="cls-4" d="M36.71,36.73a27.94,27.94,0,1,0,0,55.88h0L64.65,64.66Z"/><line class="cls-4" x1="64.65" y1="64.66" x2="25.67" y2="90.33"/><line class="cls-4" x1="64.65" y1="64.66" x2="25.67" y2="39"/><line class="cls-4" x1="64.65" y1="64.66" x2="15.09" y2="82.35"/><line class="cls-4" x1="64.65" y1="64.66" x2="15.09" y2="46.98"/><path class="cls-4" d="M29.45,46.73a27.94,27.94,0,1,0,16.62,53.35l.65-.21L64.65,64.66Z"/><line class="cls-4" x1="64.65" y1="64.66" x2="35.51" y2="101.12"/><line class="cls-4" x1="64.65" y1="64.66" x2="19.65" y2="52.3"/><line class="cls-4" x1="64.65" y1="64.66" x2="22.98" y2="96.8"/><line class="cls-4" x1="64.65" y1="64.66" x2="12.05" y2="63.16"/><path class="cls-4" d="M25.65,58.48a27.94,27.94,0,0,0,32.84,45.2l6.18-39Z"/><line class="cls-4" x1="64.65" y1="64.66" x2="48.2" y2="108.34"/><line class="cls-4" x1="64.65" y1="64.66" x2="18.03" y2="66.81"/><line class="cls-4" x1="64.65" y1="64.66" x2="34.95" y2="108.11"/><line class="cls-4" x1="64.65" y1="64.66" x2="14.16" y2="79.49"/><path class="cls-4" d="M25.65,70.85a27.94,27.94,0,1,0,44.59,33.68q.31-.41.61-.84l-6.2-39Z"/><line class="cls-4" x1="64.65" y1="64.66" x2="62.5" y2="111.29"/><line class="cls-4" x1="64.65" y1="64.66" x2="20.97" y2="81.11"/><line class="cls-4" x1="64.65" y1="64.66" x2="49.83" y2="115.16"/><line class="cls-4" x1="64.65" y1="64.66" x2="21.21" y2="94.36"/><path class="cls-4" d="M29.45,82.6a27.94,27.94,0,0,0,52.93,17.92l.21-.65L64.65,64.66Z"/><line class="cls-4" x1="64.65" y1="64.66" x2="77.02" y2="109.67"/><line class="cls-4" x1="64.65" y1="64.66" x2="28.19" y2="93.8"/><line class="cls-4" x1="64.65" y1="64.66" x2="66.16" y2="117.27"/><line class="cls-4" x1="64.65" y1="64.66" x2="32.51" y2="106.33"/><path class="cls-4" d="M36.71,92.6a27.94,27.94,0,0,0,55.88,0L64.65,64.66Z"/><line class="cls-4" x1="64.65" y1="64.66" x2="90.32" y2="103.64"/><line class="cls-4" x1="64.65" y1="64.66" x2="38.98" y2="103.64"/><line class="cls-4" x1="64.65" y1="64.66" x2="82.34" y2="114.23"/><line class="cls-4" x1="64.65" y1="64.66" x2="46.96" y2="114.23"/><path class="cls-4" d="M46.71,99.87a27.94,27.94,0,1,0,53.35-16.62l-.21-.65L64.65,64.66Z"/><line class="cls-4" x1="64.65" y1="64.66" x2="101.11" y2="93.8"/><line class="cls-4" x1="64.65" y1="64.66" x2="52.28" y2="109.67"/><line class="cls-4" x1="64.65" y1="64.66" x2="96.79" y2="106.33"/><line class="cls-4" x1="64.65" y1="64.66" x2="63.14" y2="117.27"/><path class="cls-4" d="M58.47,103.69a27.94,27.94,0,1,0,46.18-31.47q-.48-.7-1-1.37l-39-6.19Z"/><line class="cls-4" x1="64.65" y1="64.66" x2="108.33" y2="81.11"/><line class="cls-4" x1="64.65" y1="64.66" x2="66.8" y2="111.29"/><line class="cls-4" x1="64.65" y1="64.66" x2="108.09" y2="94.36"/><line class="cls-4" x1="64.65" y1="64.66" x2="79.47" y2="115.16"/><path class="cls-4" d="M70.83,103.69a27.94,27.94,0,0,0,32.82-45.21l-39,6.18Z"/><line class="cls-4" x1="64.65" y1="64.66" x2="111.27" y2="66.81"/><line class="cls-4" x1="64.65" y1="64.66" x2="81.1" y2="108.34"/><line class="cls-4" x1="64.65" y1="64.66" x2="115.14" y2="79.49"/><line class="cls-4" x1="64.65" y1="64.66" x2="94.35" y2="108.11"/><path class="cls-4" d="M82.59,99.87A27.94,27.94,0,1,0,100.7,47l-.86-.28L64.65,64.66Z"/><line class="cls-4" x1="64.65" y1="64.66" x2="109.65" y2="52.3"/><line class="cls-4" x1="64.65" y1="64.66" x2="93.79" y2="101.12"/><line class="cls-4" x1="64.65" y1="64.66" x2="117.25" y2="63.16"/><line class="cls-4" x1="64.65" y1="64.66" x2="106.32" y2="96.8"/><path class="cls-4" d="M92.59,92.6a27.94,27.94,0,1,0,0-55.88h0L64.65,64.66Z"/><line class="cls-4" x1="64.65" y1="64.66" x2="103.63" y2="39"/><line class="cls-4" x1="64.65" y1="64.66" x2="103.63" y2="90.33"/><line class="cls-4" x1="64.65" y1="64.66" x2="114.21" y2="46.98"/><line class="cls-4" x1="64.65" y1="64.66" x2="114.21" y2="82.35"/><path class="cls-4" d="M99.85,82.6A27.94,27.94,0,0,0,83.44,29.19l-.85.28L64.65,64.66Z"/><line class="cls-4" x1="64.65" y1="64.66" x2="93.79" y2="28.21"/><line class="cls-4" x1="64.65" y1="64.66" x2="109.65" y2="77.03"/><line class="cls-4" x1="64.65" y1="64.66" x2="106.32" y2="32.53"/><line class="cls-4" x1="64.65" y1="64.66" x2="117.25" y2="66.17"/><path class="cls-4" d="M103.65,70.85a27.94,27.94,0,0,0-32.84-45.2l-6.16,39Z"/><line class="cls-4" x1="64.65" y1="64.66" x2="81.1" y2="20.99"/><line class="cls-4" x1="64.65" y1="64.66" x2="111.27" y2="62.52"/><line class="cls-4" x1="64.65" y1="64.66" x2="94.35" y2="21.22"/><line class="cls-4" x1="64.65" y1="64.66" x2="115.14" y2="49.84"/><path class="cls-4" d="M103.65,58.48A27.94,27.94,0,1,0,59.06,24.81q-.31.41-.61.84l6.18,39Z"/><line class="cls-4" x1="64.65" y1="64.66" x2="66.8" y2="18.04"/><line class="cls-4" x1="64.65" y1="64.66" x2="108.33" y2="48.22"/><line class="cls-4" x1="64.65" y1="64.66" x2="79.47" y2="14.17"/><line class="cls-4" x1="64.65" y1="64.66" x2="108.09" y2="34.97"/><path class="cls-4" d="M99.85,46.73A27.94,27.94,0,0,0,46.92,28.82l-.21.65,17.94,35.2Z"/><line class="cls-4" x1="64.65" y1="64.66" x2="52.28" y2="19.66"/><line class="cls-4" x1="64.65" y1="64.66" x2="101.11" y2="35.53"/><line class="cls-4" x1="64.65" y1="64.66" x2="63.14" y2="12.06"/><line class="cls-4" x1="64.65" y1="64.66" x2="96.79" y2="23"/><g class="cls-5"><path class="cls-6" d="M28.32,85.94l-1.26-.43a2.8,2.8,0,0,0-.08-2.3A2.4,2.4,0,0,0,25.57,82a2.27,2.27,0,0,0-1.82.12,2.33,2.33,0,0,0-1.23,1.43,2.49,2.49,0,0,0,.17,1.93,2.23,2.23,0,0,0,.79.92,2.06,2.06,0,0,0,1.17.28l-.91-1.83,1.13-.56,1.59,3.19-.26.14a3.47,3.47,0,0,1-1.79.35,3.36,3.36,0,0,1-1.69-.55A3.55,3.55,0,0,1,21.52,86a4,4,0,0,1-.45-2,3.51,3.51,0,0,1,.61-1.83,3.81,3.81,0,0,1,1.49-1.3,3.54,3.54,0,0,1,2.6-.26,3.66,3.66,0,0,1,2.38,2,4.38,4.38,0,0,1,.46,1.7A4,4,0,0,1,28.32,85.94Z"/></g><g class="cls-5"><path class="cls-6" d="M30.49,87.06l2.28,3.12L31.7,91l-1.49-2-1,.75,1.49,2-1,.76-1.49-2-1.5,1.1,1.49,2-1.07.78-2.28-3.12Z"/></g><g class="cls-5"><path class="cls-6" d="M33.72,91.36l.92.91-1.14,5.44,3.29-3.3,1,.95-5,5-.92-.91L33,94l-3.27,3.29-1-1Z"/></g><g class="cls-5"><path class="cls-6" d="M39.23,96.53l3.13,2.26-.77,1.07-2-1.48-.75,1,2,1.48-.76,1-2-1.48L36.95,102l2,1.48-.77,1.07-3.13-2.26Z"/></g><g class="cls-5"><path class="cls-6" d="M43.78,99.66l1.26.67a4.71,4.71,0,0,1,1.38,1,1.71,1.71,0,0,1,.38,1,2.13,2.13,0,0,1-.27,1.16,2,2,0,0,1-.84.88,2,2,0,0,1-1.22.16V108l-1.3-.69V104l-.11-.06-1.4,2.65-1.19-.63Zm-.1,3.08.37.2a1.65,1.65,0,0,0,.86.26.63.63,0,0,0,.48-.38.68.68,0,0,0,.08-.41.67.67,0,0,0-.17-.37,2.4,2.4,0,0,0-.62-.41l-.33-.17Z"/></g><g class="cls-5"><path class="cls-6" d="M51.1,103l1.3.44.32,7.59-1.33-.45L51.33,109l-2.74-.92-1,1.2-1.33-.45Zm.06,2-1.68,2,1.8.61Z"/></g><g class="cls-5"><path class="cls-6" d="M56.28,104.47l1.33.23-1,5.71,1.93.33L58.34,112l-3.26-.56Z"/></g><g class="cls-5"><path class="cls-6" d="M66.25,105.26l1.36-.08,3.11,6.91-1.4.08-.63-1.42-2.88.16-.49,1.49-1.4.08ZM67,107.1l-.81,2.48,1.89-.1Z"/></g><g class="cls-5"><path class="cls-6" d="M75.44,104.89,74.65,106a1.42,1.42,0,0,0-1.2-.49.65.65,0,0,0-.39.23.42.42,0,0,0-.1.35.56.56,0,0,0,.19.3,9.24,9.24,0,0,0,1.16.68q.89.47,1.09.6a2.82,2.82,0,0,1,.73.65,2,2,0,0,1,.34.77,1.89,1.89,0,0,1-.29,1.53,2.19,2.19,0,0,1-1.41.89,2.33,2.33,0,0,1-1.37-.08,2.92,2.92,0,0,1-1.18-.94l1-.91q.7.81,1.35.67a.86.86,0,0,0,.53-.32.6.6,0,0,0,.13-.5.79.79,0,0,0-.28-.43,5.09,5.09,0,0,0-.92-.55,8,8,0,0,1-1.77-1.11,1.86,1.86,0,0,1-.55-.93A1.67,1.67,0,0,1,72,105a2,2,0,0,1,1.24-.81,2.19,2.19,0,0,1,1,0A3.69,3.69,0,0,1,75.44,104.89Z"/></g><g class="cls-5"><path class="cls-6" d="M80.72,103.1l-.64,1.17a1.42,1.42,0,0,0-1.25-.32.65.65,0,0,0-.36.28.42.42,0,0,0-.05.36.55.55,0,0,0,.23.28,9.17,9.17,0,0,0,1.24.52q.94.34,1.16.45a2.82,2.82,0,0,1,.81.55,2,2,0,0,1,.44.72,1.89,1.89,0,0,1-.08,1.56,2.2,2.2,0,0,1-1.28,1.07,2.34,2.34,0,0,1-1.36.1,2.93,2.93,0,0,1-1.3-.77l.83-1a1.44,1.44,0,0,0,1.42.48.86.86,0,0,0,.48-.39.61.61,0,0,0,.06-.52.8.8,0,0,0-.33-.39,5.17,5.17,0,0,0-1-.42,8,8,0,0,1-1.9-.86,1.84,1.84,0,0,1-.67-.85,1.67,1.67,0,0,1,.1-1.38,2,2,0,0,1,1.12-1,2.19,2.19,0,0,1,1-.11A3.68,3.68,0,0,1,80.72,103.1Z"/></g><g class="cls-5"><path class="cls-6" d="M82,101.49l3.42-1.79.61,1.17L83.78,102l.59,1.13L86.61,102l.6,1.15L85,104.32l.86,1.65,2.24-1.17.61,1.17-3.42,1.79Z"/></g><g class="cls-5"><path class="cls-6" d="M87.27,98.6l1-.8,4.31,2.9-1.7-4.91,1-.8,5.25,4.87-1,.79-3.33-3.07L94.39,102l-.94.72-3.9-2.62,2.11,4-1,.8Z"/></g><g class="cls-5"><path class="cls-6" d="M99,98l-5.26-4.73.74-.83a5.76,5.76,0,0,1,1-1,1.89,1.89,0,0,1,1.14-.33,1.64,1.64,0,0,1,1.05.44,1.58,1.58,0,0,1,.43.62,1.88,1.88,0,0,1,.09.83,2.2,2.2,0,0,1,1.19-.2,1.91,1.91,0,0,1,1,.5,2,2,0,0,1,.6,1,2,2,0,0,1,0,1.08,3.06,3.06,0,0,1-.72,1.16Zm-3.41-4.87,1.11,1,.2-.22a1.1,1.1,0,0,0,.33-.68.7.7,0,0,0-.26-.55.66.66,0,0,0-.54-.18,1,1,0,0,0-.61.38Zm2,1.8,1.35,1.21.23-.25a2.08,2.08,0,0,0,.6-1,.71.71,0,0,0-.26-.63.86.86,0,0,0-.77-.23,1.9,1.9,0,0,0-1,.67Z"/></g><g class="cls-5"><path class="cls-6" d="M97.66,88.61l.77-1.1,4.75,3.3,1.12-1.61,1.05.73-1.89,2.71Z"/></g><g class="cls-5"><path class="cls-6" d="M100,85.18l.65-1.29,2.87,0-1.68-2.32.64-1.28,2.65,3.65,2.74,1.38-.61,1.21-2.74-1.38Z"/></g><g class="cls-5"><path class="cls-6" d="M23.59,42.56l.46,1.25a2.8,2.8,0,0,0-1.73,1.52,2.4,2.4,0,0,0-.09,1.88,2.27,2.27,0,0,0,1.24,1.33,2.32,2.32,0,0,0,1.88,0,2.48,2.48,0,0,0,1.39-1.35A2.22,2.22,0,0,0,27,46,2.06,2.06,0,0,0,26.45,45l-.84,1.86-1.15-.52,1.46-3.24.28.11a3.45,3.45,0,0,1,1.4,1.16A3.36,3.36,0,0,1,28.24,46a3.54,3.54,0,0,1-.34,1.81,4,4,0,0,1-1.24,1.59,3.49,3.49,0,0,1-1.8.68,3.79,3.79,0,0,1-1.94-.33,3.54,3.54,0,0,1-1.84-1.85,3.65,3.65,0,0,1,0-3.12,4.38,4.38,0,0,1,1-1.43A4,4,0,0,1,23.59,42.56Z"/></g><g class="cls-5"><path class="cls-6" d="M24.27,39.13l2.16-3.21,1.09.74-1.41,2.1,1.06.72,1.41-2.1,1.07.73-1.41,2.1,1.54,1,1.41-2.1,1.1.74-2.16,3.21Z"/></g><g class="cls-5"><path class="cls-6" d="M28.26,33.62l.89-.93,5.44,1-3.35-3.21.93-1,5.09,4.88-.89.93-5.43-1,3.34,3.2-.93,1Z"/></g><g class="cls-5"><path class="cls-6" d="M34.65,27.4l3.09-2.32.79,1.05-2,1.52.77,1,2-1.52.78,1-2,1.52,1.12,1.49,2-1.52L42,30.75,38.9,33.07Z"/></g><g class="cls-5"><path class="cls-6" d="M40.15,23.53l1.25-.68A4.7,4.7,0,0,1,43,22.23a1.71,1.71,0,0,1,1,.23,2.12,2.12,0,0,1,.82.86,2,2,0,0,1,.27,1.18,2,2,0,0,1-.54,1.1l3,2-1.29.71-2.83-1.87-.11.06,1.44,2.63-1.18.65Zm2.51,1.78.37-.2a1.64,1.64,0,0,0,.7-.57.64.64,0,0,0-.06-.61.68.68,0,0,0-.3-.3.67.67,0,0,0-.4-.06,2.45,2.45,0,0,0-.68.29L42,24Z"/></g><g class="cls-5"><path class="cls-6" d="M48.69,19.53,50,19.09l4.85,5.83-1.33.45-1-1.2-2.73.93-.08,1.56-1.33.45ZM50,21.08l-.12,2.6,1.79-.61Z"/></g><g class="cls-5"><path class="cls-6" d="M55.17,17.69l1.33-.23,1,5.73,1.94-.33.22,1.27-3.28.56Z"/></g><g class="cls-5"><path class="cls-6" d="M67.14,16.87,68.5,17l2.25,7.24-1.4-.09-.46-1.49L66,22.43l-.67,1.42-1.4-.09Zm.56,1.92-1.11,2.36,1.89.13Z"/></g><g class="cls-5"><path class="cls-6" d="M77.23,19.48l-1.17.62q-.34-.83-.87-1a.65.65,0,0,0-.45,0,.42.42,0,0,0-.24.27.54.54,0,0,0,0,.35,9.37,9.37,0,0,0,.75,1.11q.6.8.72,1a2.81,2.81,0,0,1,.38.9,2,2,0,0,1,0,.84,1.88,1.88,0,0,1-.92,1.26,2.19,2.19,0,0,1-1.65.19,2.33,2.33,0,0,1-1.19-.66,2.92,2.92,0,0,1-.66-1.35l1.26-.4q.28,1,.92,1.18a.86.86,0,0,0,.61-.06.6.6,0,0,0,.34-.4.82.82,0,0,0-.06-.51,5.23,5.23,0,0,0-.59-.89,7.88,7.88,0,0,1-1.11-1.75,1.83,1.83,0,0,1-.09-1.07A1.66,1.66,0,0,1,74,18.1a1.94,1.94,0,0,1,1.46-.19,2.18,2.18,0,0,1,.92.47A3.66,3.66,0,0,1,77.23,19.48Z"/></g><g class="cls-5"><path class="cls-6" d="M83.35,21.65l-1.25.46A1.41,1.41,0,0,0,81.37,21a.64.64,0,0,0-.46,0,.41.41,0,0,0-.27.24.55.55,0,0,0,0,.36,9.28,9.28,0,0,0,.59,1.21q.48.88.58,1.1a2.83,2.83,0,0,1,.25.95,2,2,0,0,1-.14.83,1.89,1.89,0,0,1-1.08,1.12,2.19,2.19,0,0,1-1.67,0,2.33,2.33,0,0,1-1.09-.82,2.91,2.91,0,0,1-.47-1.43l1.3-.22q.14,1.06.75,1.3a.86.86,0,0,0,.62,0,.6.6,0,0,0,.39-.35.8.8,0,0,0,0-.51,5.09,5.09,0,0,0-.46-1,7.94,7.94,0,0,1-.86-1.9,1.85,1.85,0,0,1,.06-1.07,1.67,1.67,0,0,1,1-1,1.94,1.94,0,0,1,1.48,0,2.18,2.18,0,0,1,.85.59A3.71,3.71,0,0,1,83.35,21.65Z"/></g><g class="cls-5"><path class="cls-6" d="M86.34,22l3.36,1.89-.65,1.15-2.2-1.24L86.23,25l2.2,1.24-.63,1.13-2.2-1.24-.91,1.62,2.2,1.24-.65,1.15-3.36-1.89Z"/></g><g class="cls-5"><path class="cls-6" d="M92.79,25.94l1,.84-1.9,4.84,4.43-2.73,1,.84-3.62,6.19-1-.83L95,31.17l-4,2.47-.91-.76,1.72-4.39-3.46,2.93-1-.84Z"/></g><g class="cls-5"><path class="cls-6" d="M94.63,37.14l5.47-4.48.71.86a5.76,5.76,0,0,1,.8,1.17,1.9,1.9,0,0,1,.16,1.18,1.64,1.64,0,0,1-.59,1,1.56,1.56,0,0,1-.68.33,1.86,1.86,0,0,1-.83,0,2.21,2.21,0,0,1,0,1.21,1.93,1.93,0,0,1-.64.91,2,2,0,0,1-1,.45,2,2,0,0,1-1.07-.15,3,3,0,0,1-1-.89Zm3.25-.92-1.4,1.15.21.26a2.08,2.08,0,0,0,.88.74.7.7,0,0,0,.66-.16.86.86,0,0,0,.34-.72,1.89,1.89,0,0,0-.52-1ZM100,34.51l-1.15.95.19.23a1.09,1.09,0,0,0,.62.43.7.7,0,0,0,.59-.17.65.65,0,0,0,.26-.51,1,1,0,0,0-.29-.66Z"/></g><g class="cls-5"><path class="cls-6" d="M104.45,38.41l.7,1.15-4.92,3,1,1.67-1.09.67-1.72-2.81Z"/></g><g class="cls-5"><path class="cls-6" d="M107.19,43l.57,1.33-1.81,2.22,2.86.2.57,1.31-4.5-.31L102,49l-.54-1.25,2.81-1.21Z"/></g><circle class="cls-7" cx="64.65" cy="64.33" r="36.15"/><circle class="cls-8" cx="64.65" cy="64.33" r="35.47"/><path class="cls-9" d="M75.1,68.33c-.22-6.22-4.81-11.22-10.45-11.22s-10.23,5-10.45,11.22h0V89.16H75.12V68.33Z"/><path class="cls-10" d="M75.12,68.33h0c-.25-6.22-4.83-11.22-10.47-11.22V89.2H75.12Z"/><circle class="cls-11" cx="68.68" cy="66.42" r="1.6"/><path class="cls-9" d="M80.47,55.2l-1.82-1.73-1.78,1.74-1.78-1.74v15.1l2.56,8.57a6.74,6.74,0,0,0,4.56-5.92h0V53.47Z"/><path class="cls-11" d="M75.12,70.91v6.68a7.52,7.52,0,0,0,2.56-.45l-2.56-8.57Z"/><path class="cls-9" d="M80.47,55.2l-1.82-1.73-1.78,1.74-1.78-1.74v15.1l2.56,8.57a6.74,6.74,0,0,0,4.56-5.92h0V53.47Z"/><path class="cls-11" d="M75.12,70.91v6.68a7.52,7.52,0,0,0,2.56-.45l-2.56-8.57Z"/><path class="cls-9" d="M48.83,55.2l1.82-1.73,1.78,1.74,1.78-1.74v15.1l-2.56,8.57a6.74,6.74,0,0,1-4.56-5.92h0V53.47Z"/><path class="cls-11" d="M54.18,70.91v6.68a7.52,7.52,0,0,1-2.56-.45l2.56-8.57Z"/><rect class="cls-11" x="59.42" y="70.53" width="10.45" height="7.06" rx="2.41" ry="2.41"/><path class="cls-6" d="M64,77.59H62.31l.87-.87Z"/><path class="cls-6" d="M65.52,77.59H63.78l.87-.87Z"/><path class="cls-6" d="M67,77.59H65.25l.87-1.43Z"/><path class="cls-6" d="M63.18,72l-.87-1.43H64Z"/><path class="cls-6" d="M64.65,71.4l-.87-.87h1.74Z"/><path class="cls-6" d="M66.12,71.4l-.87-.87H67Z"/><path class="cls-11" d="M60.65,64.81a1.6,1.6,0,0,0-1.6,1.6h3.21a1.6,1.6,0,0,0-1.6-1.6Z"/><path class="cls-12" d="M64.65,28.86a35.47,35.47,0,1,0,35.47,35.47A35.47,35.47,0,0,0,64.65,28.86Zm0,59.3A23.84,23.84,0,1,1,88.49,64.32h0A23.84,23.84,0,0,1,64.65,88.17Z"/><g class="cls-5"><path d="M42.49,77.94l.76,1.16-4.51,6.24L38,84.15l.93-1.28-1.6-2.46-1.56.32L35,79.55Zm-1.21,1.63-2.59.54,1,1.61Z"/></g><g class="cls-5"><path d="M44.78,81.21,47.57,84l-1,.95-.92-.93-4.15,4.1-1-1,4.15-4.1-.9-.91Z"/></g><g class="cls-5"><path d="M48,84.38l1.09.82-3.53,4.7,1.59,1.2-.78,1-2.69-2Z"/></g><g class="cls-5"><path d="M53.11,87.66l1.26.58-.52,7.68-1.29-.6.11-1.58L50,92.51l-1.15,1.1L47.57,93Zm-.17,2L51,91.51l1.74.81Z"/></g><g class="cls-5"><path d="M57.25,89.5l1.29.22,2.21,5.15.8-4.63,1.34.23-1.22,7-1.29-.22-2.21-5.14-.8,4.62L56,96.53Z"/></g><g class="cls-5"><path d="M63.38,90.4l4-.1,0,1.35-1.31,0,.15,5.83-1.39,0-.15-5.83-1.27,0Z"/></g><g class="cls-5"><path d="M69.89,89.86l1.35-.32,4.33,6.33-1.38.33-.89-1.3-2.84.67-.23,1.57-1.38.33ZM71,91.55l-.37,2.61,1.86-.44Z"/></g><g class="cls-5"><path d="M77.24,93.63l1.06.06L78,96.06l-.74,0Z"/></g><g class="cls-5"><path d="M84.71,83l-.12,1.35a2.85,2.85,0,0,0-2.25.64,2.44,2.44,0,0,0-.9,1.68A2.3,2.3,0,0,0,82,88.47a2.37,2.37,0,0,0,1.71.87,2.53,2.53,0,0,0,1.87-.63,2.26,2.26,0,0,0,.72-1,2.1,2.1,0,0,0,0-1.22l-1.59,1.34-.83-1,2.76-2.33.2.23a3.51,3.51,0,0,1,.78,1.68,3.42,3.42,0,0,1-.13,1.8,3.61,3.61,0,0,1-1.1,1.51,4.06,4.06,0,0,1-1.84.92,3.55,3.55,0,0,1-2-.16,3.85,3.85,0,0,1-1.64-1.15,3.6,3.6,0,0,1-.88-2.5A3.71,3.71,0,0,1,81.47,84,4.4,4.4,0,0,1,83,83.13,4,4,0,0,1,84.71,83Z"/></g><g class="cls-5"><path d="M85.87,79.48l.78-1.15,7.5,1.74-.8,1.18-1.54-.36-1.64,2.43.9,1.31-.8,1.18Zm2,.49,1.5,2.18,1.08-1.59Z"/></g><g class="cls-5"><path d="M93.82,77.21a.74.74,0,0,1,.42-.4.76.76,0,0,1,1,.44.76.76,0,0,1-1,1,.73.73,0,0,1-.4-.43A.74.74,0,0,1,93.82,77.21Z"/></g><g class="cls-5"><path class="cls-11" d="M32,59.84l.3-1.3,5.25-.5-4.5-2.76.3-1.3,7.27.44-.3,1.29-4.59-.27L39.82,58l-.27,1.17-4.76.45L39,61.37l-.3,1.3Z"/></g><g class="cls-5"><path class="cls-11" d="M36.48,47.23a3.55,3.55,0,0,1,2.3-1.65,3.66,3.66,0,0,1,2.86.47,3.62,3.62,0,0,1,1.7,2.3,3.74,3.74,0,0,1-2.79,4.5,3.76,3.76,0,0,1-4.07-5.62Zm1.13.71a2.25,2.25,0,0,0-.28,1.79,2.4,2.4,0,0,0,1.15,1.49,2.29,2.29,0,0,0,2,.25,2.33,2.33,0,0,0,1.25-1A2.22,2.22,0,0,0,42,48.69a2.53,2.53,0,0,0-3-1.8A2.24,2.24,0,0,0,37.61,47.94Z"/></g><g class="cls-5"><path class="cls-11" d="M40.46,42l1-.88,5.45,1.43L43.7,39l1-.92,4.83,5.31-1,.88L43.13,42.9l3.17,3.49-1,.92Z"/></g><g class="cls-5"><path class="cls-11" d="M50.85,35.57l-.44,1.27a1.44,1.44,0,0,0-1.31-.11.66.66,0,0,0-.31.34.42.42,0,0,0,0,.37.55.55,0,0,0,.27.24,9.32,9.32,0,0,0,1.32.31q1,.19,1.23.25a2.87,2.87,0,0,1,.91.41,2,2,0,0,1,.56.64,1.92,1.92,0,0,1,.18,1.57,2.23,2.23,0,0,1-1.1,1.28,2.36,2.36,0,0,1-1.35.33,3,3,0,0,1-1.43-.55l.66-1.17a1.46,1.46,0,0,0,1.5.24.88.88,0,0,0,.41-.47A.61.61,0,0,0,52,40a.82.82,0,0,0-.4-.34,5.23,5.23,0,0,0-1.06-.26,8,8,0,0,1-2-.54,1.87,1.87,0,0,1-.81-.73,1.69,1.69,0,0,1-.13-1.39,2,2,0,0,1,1-1.15,2.21,2.21,0,0,1,1-.29A3.72,3.72,0,0,1,50.85,35.57Z"/></g><g class="cls-5"><path class="cls-11" d="M51.91,34l3.75-1.31L56.1,34l-1.24.43,1.93,5.51-1.31.46-1.93-5.51-1.2.42Z"/></g><g class="cls-5"><path class="cls-11" d="M57.53,32.24l3.88-.63.21,1.33-2.54.41.21,1.29,2.54-.41.21,1.3-2.54.41.3,1.87,2.54-.41.21,1.33-3.88.63Z"/></g><g class="cls-5"><path class="cls-11" d="M63.81,31.49l1.45,0a4.82,4.82,0,0,1,1.69.27,1.74,1.74,0,0,1,.79.73A2.16,2.16,0,0,1,68,33.72a2,2,0,0,1-.38,1.17,2.05,2.05,0,0,1-1,.68l1.59,3.25-1.49-.05-1.51-3.1H65l-.11,3-1.37,0Zm1.27,2.85.43,0a1.68,1.68,0,0,0,.9-.14.64.64,0,0,0,.26-.56.7.7,0,0,0-.11-.41.67.67,0,0,0-.32-.26,2.45,2.45,0,0,0-.75-.1h-.37Z"/></g><g class="cls-5"><path class="cls-11" d="M74.9,33l1.22.53-.46,5.26,3.53-3.93,1.22.53-1.74,7.07L77.46,42l1.09-4.47-3.2,3.56-1.11-.48.41-4.76-2.52,3.85-1.22-.53Z"/></g><g class="cls-5"><path class="cls-11" d="M85.4,38.93l1.05.9-2.57,7.25-1.08-.92.54-1.49-2.23-1.9-1.4.75-1.08-.92Zm-.7,1.9-2.33,1.25,1.46,1.25Z"/></g><g class="cls-5"><path class="cls-11" d="M89.47,42.81,91.88,46l-1.07.82-.8-1-4.63,3.55-.84-1.1,4.63-3.55-.78-1Z"/></g><g class="cls-5"><path class="cls-11" d="M94.73,54.25l-1.23-.48a3,3,0,0,0,0-2.42,2.41,2.41,0,0,0-3.24-1.18,2.58,2.58,0,0,0-1,.82,2.24,2.24,0,0,0-.42,1.17,2.55,2.55,0,0,0,.25,1.28,2.6,2.6,0,0,0,.66.89,3.9,3.9,0,0,0,1.19.64l-.49,1.25a5.08,5.08,0,0,1-1.61-.91,4.1,4.1,0,0,1-1-1.34A3.73,3.73,0,0,1,87.67,51a3.68,3.68,0,0,1,2-2.12,3.72,3.72,0,0,1,1.94-.36,3.6,3.6,0,0,1,1.8.7,3.91,3.91,0,0,1,1.28,1.55,4.13,4.13,0,0,1,0,3.45Z"/></g><g class="cls-5"><path class="cls-11" d="M96.55,56.29l.23,1.37-2.67.45.4,2.36L97.18,60l.23,1.36-7.08,1.2-.23-1.36,3.11-.52-.4-2.36-3.11.53-.23-1.37Z"/></g><polygon class="cls-6" points="20.06 60.13 21.1 63.34 24.47 63.34 21.74 65.32 22.78 68.53 20.06 66.55 17.33 68.53 18.37 65.32 15.64 63.34 19.01 63.34 20.06 60.13"/><polygon class="cls-6" points="109.24 60.13 108.2 63.34 104.83 63.34 107.56 65.32 106.51 68.53 109.24 66.55 111.97 68.53 110.93 65.32 113.66 63.34 110.29 63.34 109.24 60.13"/></g></g></svg>