<svg xmlns="http://www.w3.org/2000/svg" viewBox="0 0 602 129.33"><defs><style>.cls-1,.cls-10,.cls-14{fill:#231f20;}.cls-1,.cls-12,.cls-2,.cls-3,.cls-4,.cls-7{stroke:#231f20;}.cls-1,.cls-12,.cls-2,.cls-3,.cls-4,.cls-6,.cls-7{stroke-miterlimit:10;}.cls-1{stroke-width:2.01px;}.cls-2,.cls-3,.cls-4,.cls-7{fill:none;}.cls-2{stroke-width:0.45px;}.cls-3{stroke-width:0.92px;}.cls-4{stroke-width:0.41px;}.cls-5{font-size:9.85px;}.cls-11,.cls-5,.cls-6{fill:#fff;}.cls-13,.cls-14,.cls-5{font-family:CenturyGothic-Bold, Century Gothic;font-weight:700;}.cls-6{stroke:#fff;stroke-width:1.02px;}.cls-12,.cls-6,.cls-7{stroke-linecap:round;}.cls-8{fill:#ffd017;}.cls-9{fill:#efb616;}.cls-12{fill:#fc0;}.cls-13,.cls-14{font-size:10px;}.cls-15{fill:#194bd8;}.cls-16{fill:#1856ef;}.cls-17{fill:#dd071c;}.cls-18{fill:#0ad863;}.cls-19{fill:#17ef37;}</style></defs><title>Asset 1highest</title><g id="Layer_2" data-name="Layer 2"><g id="Layer_4" data-name="Layer 4"><circle class="cls-1" cx="64.67" cy="64.33" r="51.28"/><path class="cls-2" d="M95.66,33.67a31,31,0,0,0-62,0l31,31Z"/><line class="cls-2" x1="64.67" y1="64.67" x2="36.19" y2="21.42"/><line class="cls-2" x1="64.67" y1="64.67" x2="93.14" y2="21.42"/><line class="cls-2" x1="64.67" y1="64.67" x2="45.04" y2="9.67"/><line class="cls-2" x1="64.67" y1="64.67" x2="84.29" y2="9.67"/><path class="cls-2" d="M84.57,25.61a31,31,0,0,0-59,19.16l39.06,19.9Z"/><line class="cls-2" x1="64.67" y1="64.67" x2="24.22" y2="32.33"/><line class="cls-2" x1="64.67" y1="64.67" x2="78.39" y2="14.73"/><line class="cls-2" x1="64.67" y1="64.67" x2="29.01" y2="18.43"/><line class="cls-2" x1="64.67" y1="64.67" x2="66.34" y2="6.3"/><path class="cls-2" d="M71.52,21.37A31,31,0,1,0,21.37,57.81l43.3,6.86Z"/><line class="cls-2" x1="64.67" y1="64.67" x2="16.2" y2="46.42"/><line class="cls-2" x1="64.67" y1="64.67" x2="62.28" y2="12.94"/><line class="cls-2" x1="64.67" y1="64.67" x2="16.46" y2="31.71"/><line class="cls-2" x1="64.67" y1="64.67" x2="48.22" y2="8.64"/><path class="cls-2" d="M57.81,21.37A31,31,0,0,0,21.37,71.52l43.3-6.86Z"/><line class="cls-2" x1="64.67" y1="64.67" x2="12.94" y2="62.28"/><line class="cls-2" x1="64.67" y1="64.67" x2="46.42" y2="16.2"/><line class="cls-2" x1="64.67" y1="64.67" x2="8.64" y2="48.22"/><line class="cls-2" x1="64.67" y1="64.67" x2="31.71" y2="16.46"/><path class="cls-2" d="M44.76,25.61a31,31,0,0,0-19.16,59l39.06-19.9Z"/><line class="cls-2" x1="64.67" y1="64.67" x2="14.73" y2="78.39"/><line class="cls-2" x1="64.67" y1="64.67" x2="32.33" y2="24.22"/><line class="cls-2" x1="64.67" y1="64.67" x2="6.3" y2="66.34"/><line class="cls-2" x1="64.67" y1="64.67" x2="18.43" y2="29.01"/><path class="cls-2" d="M33.67,33.67a31,31,0,0,0,0,62l31-31Z"/><line class="cls-2" x1="64.67" y1="64.67" x2="21.42" y2="93.14"/><line class="cls-2" x1="64.67" y1="64.67" x2="21.42" y2="36.19"/><line class="cls-2" x1="64.67" y1="64.67" x2="9.67" y2="84.29"/><line class="cls-2" x1="64.67" y1="64.67" x2="9.67" y2="45.04"/><path class="cls-2" d="M25.61,44.76a31,31,0,0,0,19.16,59l19.9-39.06Z"/><line class="cls-2" x1="64.67" y1="64.67" x2="32.33" y2="105.12"/><line class="cls-2" x1="64.67" y1="64.67" x2="14.73" y2="50.94"/><line class="cls-2" x1="64.67" y1="64.67" x2="18.43" y2="100.32"/><line class="cls-2" x1="64.67" y1="64.67" x2="6.3" y2="62.99"/><path class="cls-2" d="M21.37,57.81A31,31,0,1,0,57.81,108l6.86-43.3Z"/><line class="cls-2" x1="64.67" y1="64.67" x2="46.42" y2="113.13"/><line class="cls-2" x1="64.67" y1="64.67" x2="12.94" y2="67.05"/><line class="cls-2" x1="64.67" y1="64.67" x2="31.71" y2="112.87"/><line class="cls-2" x1="64.67" y1="64.67" x2="8.64" y2="81.11"/><path class="cls-2" d="M21.37,71.52A31,31,0,1,0,71.52,108l-6.86-43.3Z"/><line class="cls-2" x1="64.67" y1="64.67" x2="62.28" y2="116.39"/><line class="cls-2" x1="64.67" y1="64.67" x2="16.2" y2="82.91"/><line class="cls-2" x1="64.67" y1="64.67" x2="48.22" y2="120.69"/><line class="cls-2" x1="64.67" y1="64.67" x2="16.46" y2="97.62"/><path class="cls-2" d="M25.61,84.57a31,31,0,0,0,59,19.16L64.67,64.67Z"/><line class="cls-2" x1="64.67" y1="64.67" x2="78.39" y2="114.6"/><line class="cls-2" x1="64.67" y1="64.67" x2="24.22" y2="97"/><line class="cls-2" x1="64.67" y1="64.67" x2="66.34" y2="123.03"/><line class="cls-2" x1="64.67" y1="64.67" x2="29.01" y2="110.9"/><path class="cls-2" d="M33.67,95.66a31,31,0,1,0,62,0l-31-31Z"/><line class="cls-2" x1="64.67" y1="64.67" x2="93.14" y2="107.91"/><line class="cls-2" x1="64.67" y1="64.67" x2="36.19" y2="107.91"/><line class="cls-2" x1="64.67" y1="64.67" x2="84.29" y2="119.66"/><line class="cls-2" x1="64.67" y1="64.67" x2="45.04" y2="119.66"/><path class="cls-2" d="M44.76,103.73a31,31,0,0,0,59-19.16L64.67,64.67Z"/><line class="cls-2" x1="64.67" y1="64.67" x2="105.12" y2="97"/><line class="cls-2" x1="64.67" y1="64.67" x2="50.94" y2="114.6"/><line class="cls-2" x1="64.67" y1="64.67" x2="100.32" y2="110.9"/><line class="cls-2" x1="64.67" y1="64.67" x2="62.99" y2="123.03"/><path class="cls-2" d="M57.81,108A31,31,0,1,0,108,71.52l-43.3-6.86Z"/><line class="cls-2" x1="64.67" y1="64.67" x2="113.13" y2="82.91"/><line class="cls-2" x1="64.67" y1="64.67" x2="67.05" y2="116.39"/><line class="cls-2" x1="64.67" y1="64.67" x2="112.87" y2="97.62"/><line class="cls-2" x1="64.67" y1="64.67" x2="81.11" y2="120.69"/><path class="cls-2" d="M71.52,108A31,31,0,1,0,108,57.81l-43.3,6.86Z"/><line class="cls-2" x1="64.67" y1="64.67" x2="116.39" y2="67.05"/><line class="cls-2" x1="64.67" y1="64.67" x2="82.91" y2="113.13"/><line class="cls-2" x1="64.67" y1="64.67" x2="120.69" y2="81.11"/><line class="cls-2" x1="64.67" y1="64.67" x2="97.62" y2="112.87"/><path class="cls-2" d="M84.57,103.73a31,31,0,0,0,19.16-59L64.67,64.67Z"/><line class="cls-2" x1="64.67" y1="64.67" x2="114.6" y2="50.94"/><line class="cls-2" x1="64.67" y1="64.67" x2="97" y2="105.12"/><line class="cls-2" x1="64.67" y1="64.67" x2="123.03" y2="62.99"/><line class="cls-2" x1="64.67" y1="64.67" x2="110.9" y2="100.32"/><path class="cls-2" d="M95.66,95.66a31,31,0,1,0,0-62l-31,31Z"/><line class="cls-2" x1="64.67" y1="64.67" x2="107.91" y2="36.19"/><line class="cls-2" x1="64.67" y1="64.67" x2="107.91" y2="93.14"/><line class="cls-2" x1="64.67" y1="64.67" x2="119.66" y2="45.04"/><line class="cls-2" x1="64.67" y1="64.67" x2="119.66" y2="84.29"/><path class="cls-2" d="M103.73,84.57a31,31,0,0,0-19.16-59L64.67,64.67Z"/><line class="cls-2" x1="64.67" y1="64.67" x2="97" y2="24.22"/><line class="cls-2" x1="64.67" y1="64.67" x2="114.6" y2="78.39"/><line class="cls-2" x1="64.67" y1="64.67" x2="110.9" y2="29.01"/><line class="cls-2" x1="64.67" y1="64.67" x2="123.03" y2="66.34"/><path class="cls-2" d="M108,71.52A31,31,0,1,0,71.52,21.37l-6.86,43.3Z"/><line class="cls-2" x1="64.67" y1="64.67" x2="82.91" y2="16.2"/><line class="cls-2" x1="64.67" y1="64.67" x2="116.39" y2="62.28"/><line class="cls-2" x1="64.67" y1="64.67" x2="97.62" y2="16.46"/><line class="cls-2" x1="64.67" y1="64.67" x2="120.69" y2="48.22"/><path class="cls-2" d="M108,57.81A31,31,0,1,0,57.81,21.37l6.86,43.3Z"/><line class="cls-2" x1="64.67" y1="64.67" x2="67.05" y2="12.94"/><line class="cls-2" x1="64.67" y1="64.67" x2="113.13" y2="46.42"/><line class="cls-2" x1="64.67" y1="64.67" x2="81.11" y2="8.64"/><line class="cls-2" x1="64.67" y1="64.67" x2="112.87" y2="31.71"/><path class="cls-2" d="M103.73,44.76a31,31,0,0,0-59-19.16l19.9,39.06Z"/><line class="cls-2" x1="64.67" y1="64.67" x2="50.94" y2="14.73"/><line class="cls-2" x1="64.67" y1="64.67" x2="105.12" y2="32.33"/><line class="cls-2" x1="64.67" y1="64.67" x2="62.99" y2="6.3"/><line class="cls-2" x1="64.67" y1="64.67" x2="100.32" y2="18.43"/><path class="cls-3" d="M96.77,32.56a32.1,32.1,0,0,0-64.2,0l32.1,32.1Z"/><line class="cls-3" x1="64.67" y1="64.67" x2="35.17" y2="19.88"/><line class="cls-3" x1="64.67" y1="64.67" x2="94.16" y2="19.88"/><line class="cls-3" x1="64.67" y1="64.67" x2="44.34" y2="7.72"/><line class="cls-3" x1="64.67" y1="64.67" x2="84.99" y2="7.72"/><path class="cls-3" d="M85.28,24.21A32.1,32.1,0,1,0,24.21,44.05L64.67,64.67Z"/><line class="cls-3" x1="64.67" y1="64.67" x2="22.78" y2="31.18"/><line class="cls-3" x1="64.67" y1="64.67" x2="78.87" y2="12.95"/><line class="cls-3" x1="64.67" y1="64.67" x2="27.74" y2="16.78"/><line class="cls-3" x1="64.67" y1="64.67" x2="66.4" y2="4.22"/><path class="cls-3" d="M71.77,19.82A32.1,32.1,0,1,0,19.82,57.56l44.84,7.1Z"/><line class="cls-3" x1="64.67" y1="64.67" x2="14.48" y2="45.77"/><line class="cls-3" x1="64.67" y1="64.67" x2="62.2" y2="11.09"/><line class="cls-3" x1="64.67" y1="64.67" x2="14.75" y2="30.54"/><line class="cls-3" x1="64.67" y1="64.67" x2="47.64" y2="6.65"/><path class="cls-3" d="M57.56,19.82A32.1,32.1,0,1,0,19.82,71.77l44.84-7.1Z"/><line class="cls-3" x1="64.67" y1="64.67" x2="11.09" y2="62.2"/><line class="cls-3" x1="64.67" y1="64.67" x2="45.77" y2="14.48"/><line class="cls-3" x1="64.67" y1="64.67" x2="6.65" y2="47.64"/><line class="cls-3" x1="64.67" y1="64.67" x2="30.54" y2="14.75"/><path class="cls-3" d="M44.05,24.21A32.1,32.1,0,0,0,24.21,85.28L64.67,64.67Z"/><line class="cls-3" x1="64.67" y1="64.67" x2="12.95" y2="78.87"/><line class="cls-3" x1="64.67" y1="64.67" x2="31.18" y2="22.78"/><line class="cls-3" x1="64.67" y1="64.67" x2="4.22" y2="66.4"/><line class="cls-3" x1="64.67" y1="64.67" x2="16.78" y2="27.74"/><path class="cls-3" d="M32.56,32.56a32.1,32.1,0,0,0,0,64.2l32.1-32.1Z"/><line class="cls-3" x1="64.67" y1="64.67" x2="19.88" y2="94.16"/><line class="cls-3" x1="64.67" y1="64.67" x2="19.88" y2="35.17"/><line class="cls-3" x1="64.67" y1="64.67" x2="7.72" y2="84.99"/><line class="cls-3" x1="64.67" y1="64.67" x2="7.72" y2="44.34"/><path class="cls-3" d="M24.21,44.05a32.1,32.1,0,1,0,19.84,61.06L64.67,64.67Z"/><line class="cls-3" x1="64.67" y1="64.67" x2="31.18" y2="106.56"/><line class="cls-3" x1="64.67" y1="64.67" x2="12.95" y2="50.46"/><line class="cls-3" x1="64.67" y1="64.67" x2="16.78" y2="101.59"/><line class="cls-3" x1="64.67" y1="64.67" x2="4.22" y2="62.93"/><path class="cls-3" d="M19.82,57.56a32.1,32.1,0,1,0,37.74,51.94l7.1-44.84Z"/><line class="cls-3" x1="64.67" y1="64.67" x2="45.77" y2="114.85"/><line class="cls-3" x1="64.67" y1="64.67" x2="11.09" y2="67.13"/><line class="cls-3" x1="64.67" y1="64.67" x2="30.54" y2="114.58"/><line class="cls-3" x1="64.67" y1="64.67" x2="6.65" y2="81.7"/><path class="cls-3" d="M19.82,71.77a32.1,32.1,0,0,0,51.94,37.74l-7.1-44.84Z"/><line class="cls-3" x1="64.67" y1="64.67" x2="62.2" y2="118.24"/><line class="cls-3" x1="64.67" y1="64.67" x2="14.48" y2="83.56"/><line class="cls-3" x1="64.67" y1="64.67" x2="47.64" y2="122.69"/><line class="cls-3" x1="64.67" y1="64.67" x2="14.75" y2="98.79"/><path class="cls-3" d="M24.21,85.28a32.1,32.1,0,1,0,61.06,19.84L64.67,64.67Z"/><line class="cls-3" x1="64.67" y1="64.67" x2="78.87" y2="116.38"/><line class="cls-3" x1="64.67" y1="64.67" x2="22.78" y2="98.15"/><line class="cls-3" x1="64.67" y1="64.67" x2="66.4" y2="125.11"/><line class="cls-3" x1="64.67" y1="64.67" x2="27.74" y2="112.55"/><path class="cls-3" d="M32.56,96.77a32.1,32.1,0,1,0,64.2,0l-32.1-32.1Z"/><line class="cls-3" x1="64.67" y1="64.67" x2="94.16" y2="109.45"/><line class="cls-3" x1="64.67" y1="64.67" x2="35.17" y2="109.45"/><line class="cls-3" x1="64.67" y1="64.67" x2="84.99" y2="121.61"/><line class="cls-3" x1="64.67" y1="64.67" x2="44.34" y2="121.61"/><path class="cls-3" d="M44.05,105.12a32.1,32.1,0,1,0,61.06-19.84L64.67,64.67Z"/><line class="cls-3" x1="64.67" y1="64.67" x2="106.56" y2="98.15"/><line class="cls-3" x1="64.67" y1="64.67" x2="50.46" y2="116.38"/><line class="cls-3" x1="64.67" y1="64.67" x2="101.59" y2="112.55"/><line class="cls-3" x1="64.67" y1="64.67" x2="62.93" y2="125.11"/><path class="cls-3" d="M57.56,109.51a32.1,32.1,0,0,0,51.94-37.74l-44.84-7.1Z"/><line class="cls-3" x1="64.67" y1="64.67" x2="114.85" y2="83.56"/><line class="cls-3" x1="64.67" y1="64.67" x2="67.13" y2="118.24"/><line class="cls-3" x1="64.67" y1="64.67" x2="114.58" y2="98.79"/><line class="cls-3" x1="64.67" y1="64.67" x2="81.7" y2="122.69"/><path class="cls-3" d="M71.77,109.51a32.1,32.1,0,0,0,37.74-51.94l-44.84,7.1Z"/><line class="cls-3" x1="64.67" y1="64.67" x2="118.24" y2="67.13"/><line class="cls-3" x1="64.67" y1="64.67" x2="83.56" y2="114.85"/><line class="cls-3" x1="64.67" y1="64.67" x2="122.69" y2="81.7"/><line class="cls-3" x1="64.67" y1="64.67" x2="98.79" y2="114.58"/><path class="cls-3" d="M85.28,105.12a32.1,32.1,0,1,0,19.84-61.06L64.67,64.67Z"/><line class="cls-3" x1="64.67" y1="64.67" x2="116.38" y2="50.46"/><line class="cls-3" x1="64.67" y1="64.67" x2="98.15" y2="106.56"/><line class="cls-3" x1="64.67" y1="64.67" x2="125.11" y2="62.93"/><line class="cls-3" x1="64.67" y1="64.67" x2="112.55" y2="101.59"/><path class="cls-3" d="M96.77,96.77a32.1,32.1,0,1,0,0-64.2l-32.1,32.1Z"/><line class="cls-3" x1="64.67" y1="64.67" x2="109.45" y2="35.17"/><line class="cls-3" x1="64.67" y1="64.67" x2="109.45" y2="94.16"/><line class="cls-3" x1="64.67" y1="64.67" x2="121.61" y2="44.34"/><line class="cls-3" x1="64.67" y1="64.67" x2="121.61" y2="84.99"/><path class="cls-3" d="M105.12,85.28A32.1,32.1,0,1,0,85.28,24.21L64.67,64.67Z"/><line class="cls-3" x1="64.67" y1="64.67" x2="98.15" y2="22.78"/><line class="cls-3" x1="64.67" y1="64.67" x2="116.38" y2="78.87"/><line class="cls-3" x1="64.67" y1="64.67" x2="112.55" y2="27.74"/><line class="cls-3" x1="64.67" y1="64.67" x2="125.11" y2="66.4"/><path class="cls-3" d="M109.51,71.77A32.1,32.1,0,0,0,71.77,19.82l-7.1,44.84Z"/><line class="cls-3" x1="64.67" y1="64.67" x2="83.56" y2="14.48"/><line class="cls-3" x1="64.67" y1="64.67" x2="118.24" y2="62.2"/><line class="cls-3" x1="64.67" y1="64.67" x2="98.79" y2="14.75"/><line class="cls-3" x1="64.67" y1="64.67" x2="122.69" y2="47.64"/><path class="cls-3" d="M109.51,57.56A32.1,32.1,0,1,0,57.56,19.82l7.1,44.84Z"/><line class="cls-3" x1="64.67" y1="64.67" x2="67.13" y2="11.09"/><line class="cls-3" x1="64.67" y1="64.67" x2="114.85" y2="45.77"/><line class="cls-3" x1="64.67" y1="64.67" x2="81.7" y2="6.65"/><line class="cls-3" x1="64.67" y1="64.67" x2="114.58" y2="30.54"/><path class="cls-3" d="M105.12,44.05A32.1,32.1,0,0,0,44.05,24.21L64.67,64.67Z"/><line class="cls-3" x1="64.67" y1="64.67" x2="50.46" y2="12.95"/><line class="cls-3" x1="64.67" y1="64.67" x2="106.56" y2="31.18"/><line class="cls-3" x1="64.67" y1="64.67" x2="62.93" y2="4.22"/><line class="cls-3" x1="64.67" y1="64.67" x2="101.59" y2="16.78"/><path class="cls-4" d="M92.6,36.73a27.94,27.94,0,1,0-55.88,0L64.67,64.67Z"/><line class="cls-4" x1="64.67" y1="64.67" x2="39" y2="25.69"/><line class="cls-4" x1="64.67" y1="64.67" x2="90.33" y2="25.69"/><line class="cls-4" x1="64.67" y1="64.67" x2="46.98" y2="15.1"/><line class="cls-4" x1="64.67" y1="64.67" x2="82.35" y2="15.1"/><path class="cls-4" d="M82.6,29.46A27.94,27.94,0,0,0,29.46,46.73l35.2,17.94Z"/><line class="cls-4" x1="64.67" y1="64.67" x2="28.21" y2="35.53"/><line class="cls-4" x1="64.67" y1="64.67" x2="77.03" y2="19.66"/><line class="cls-4" x1="64.67" y1="64.67" x2="32.53" y2="23"/><line class="cls-4" x1="64.67" y1="64.67" x2="66.17" y2="12.06"/><path class="cls-4" d="M70.85,25.64a27.94,27.94,0,0,0-45.2,32.84l39,6.18Z"/><line class="cls-4" x1="64.67" y1="64.67" x2="20.99" y2="48.22"/><line class="cls-4" x1="64.67" y1="64.67" x2="62.52" y2="18.04"/><line class="cls-4" x1="64.67" y1="64.67" x2="21.22" y2="34.97"/><line class="cls-4" x1="64.67" y1="64.67" x2="49.84" y2="14.17"/><path class="cls-4" d="M58.48,25.64a27.94,27.94,0,0,0-32.84,45.2l39-6.18Z"/><line class="cls-4" x1="64.67" y1="64.67" x2="18.04" y2="62.52"/><line class="cls-4" x1="64.67" y1="64.67" x2="48.22" y2="20.99"/><line class="cls-4" x1="64.67" y1="64.67" x2="14.17" y2="49.84"/><line class="cls-4" x1="64.67" y1="64.67" x2="34.97" y2="21.22"/><path class="cls-4" d="M46.73,29.46A27.94,27.94,0,0,0,29.46,82.6l35.2-17.94Z"/><line class="cls-4" x1="64.67" y1="64.67" x2="19.66" y2="77.03"/><line class="cls-4" x1="64.67" y1="64.67" x2="35.53" y2="28.21"/><line class="cls-4" x1="64.67" y1="64.67" x2="12.06" y2="66.17"/><line class="cls-4" x1="64.67" y1="64.67" x2="23" y2="32.53"/><path class="cls-4" d="M36.73,36.73a27.94,27.94,0,1,0,0,55.88L64.67,64.67Z"/><line class="cls-4" x1="64.67" y1="64.67" x2="25.69" y2="90.33"/><line class="cls-4" x1="64.67" y1="64.67" x2="25.69" y2="39"/><line class="cls-4" x1="64.67" y1="64.67" x2="15.1" y2="82.35"/><line class="cls-4" x1="64.67" y1="64.67" x2="15.1" y2="46.98"/><path class="cls-4" d="M29.46,46.73A27.94,27.94,0,1,0,46.73,99.87l17.94-35.2Z"/><line class="cls-4" x1="64.67" y1="64.67" x2="35.53" y2="101.12"/><line class="cls-4" x1="64.67" y1="64.67" x2="19.66" y2="52.3"/><line class="cls-4" x1="64.67" y1="64.67" x2="23" y2="96.8"/><line class="cls-4" x1="64.67" y1="64.67" x2="12.06" y2="63.16"/><path class="cls-4" d="M25.64,58.48a27.94,27.94,0,0,0,32.84,45.2l6.18-39Z"/><line class="cls-4" x1="64.67" y1="64.67" x2="48.22" y2="108.34"/><line class="cls-4" x1="64.67" y1="64.67" x2="18.04" y2="66.81"/><line class="cls-4" x1="64.67" y1="64.67" x2="34.97" y2="108.11"/><line class="cls-4" x1="64.67" y1="64.67" x2="14.17" y2="79.49"/><path class="cls-4" d="M25.64,70.85a27.94,27.94,0,1,0,45.2,32.84l-6.18-39Z"/><line class="cls-4" x1="64.67" y1="64.67" x2="62.52" y2="111.29"/><line class="cls-4" x1="64.67" y1="64.67" x2="20.99" y2="81.11"/><line class="cls-4" x1="64.67" y1="64.67" x2="49.84" y2="115.16"/><line class="cls-4" x1="64.67" y1="64.67" x2="21.22" y2="94.36"/><path class="cls-4" d="M29.46,82.6A27.94,27.94,0,0,0,82.6,99.87L64.67,64.67Z"/><line class="cls-4" x1="64.67" y1="64.67" x2="77.03" y2="109.67"/><line class="cls-4" x1="64.67" y1="64.67" x2="28.21" y2="93.8"/><line class="cls-4" x1="64.67" y1="64.67" x2="66.17" y2="117.27"/><line class="cls-4" x1="64.67" y1="64.67" x2="32.53" y2="106.33"/><path class="cls-4" d="M36.73,92.6a27.94,27.94,0,0,0,55.88,0L64.67,64.67Z"/><line class="cls-4" x1="64.67" y1="64.67" x2="90.33" y2="103.64"/><line class="cls-4" x1="64.67" y1="64.67" x2="39" y2="103.64"/><line class="cls-4" x1="64.67" y1="64.67" x2="82.35" y2="114.23"/><line class="cls-4" x1="64.67" y1="64.67" x2="46.98" y2="114.23"/><path class="cls-4" d="M46.73,99.87A27.94,27.94,0,0,0,99.87,82.6L64.67,64.67Z"/><line class="cls-4" x1="64.67" y1="64.67" x2="101.12" y2="93.8"/><line class="cls-4" x1="64.67" y1="64.67" x2="52.3" y2="109.67"/><line class="cls-4" x1="64.67" y1="64.67" x2="96.8" y2="106.33"/><line class="cls-4" x1="64.67" y1="64.67" x2="63.16" y2="117.27"/><path class="cls-4" d="M58.48,103.69a27.94,27.94,0,0,0,45.2-32.84l-39-6.18Z"/><line class="cls-4" x1="64.67" y1="64.67" x2="108.34" y2="81.11"/><line class="cls-4" x1="64.67" y1="64.67" x2="66.81" y2="111.29"/><line class="cls-4" x1="64.67" y1="64.67" x2="108.11" y2="94.36"/><line class="cls-4" x1="64.67" y1="64.67" x2="79.49" y2="115.16"/><path class="cls-4" d="M70.85,103.69a27.94,27.94,0,1,0,32.84-45.2l-39,6.18Z"/><line class="cls-4" x1="64.67" y1="64.67" x2="111.29" y2="66.81"/><line class="cls-4" x1="64.67" y1="64.67" x2="81.11" y2="108.34"/><line class="cls-4" x1="64.67" y1="64.67" x2="115.16" y2="79.49"/><line class="cls-4" x1="64.67" y1="64.67" x2="94.36" y2="108.11"/><path class="cls-4" d="M82.6,99.87A27.94,27.94,0,0,0,99.87,46.73L64.67,64.67Z"/><line class="cls-4" x1="64.67" y1="64.67" x2="109.67" y2="52.3"/><line class="cls-4" x1="64.67" y1="64.67" x2="93.8" y2="101.12"/><line class="cls-4" x1="64.67" y1="64.67" x2="117.27" y2="63.16"/><line class="cls-4" x1="64.67" y1="64.67" x2="106.33" y2="96.8"/><path class="cls-4" d="M92.6,92.6a27.94,27.94,0,0,0,0-55.88L64.67,64.67Z"/><line class="cls-4" x1="64.67" y1="64.67" x2="103.64" y2="39"/><line class="cls-4" x1="64.67" y1="64.67" x2="103.64" y2="90.33"/><line class="cls-4" x1="64.67" y1="64.67" x2="114.23" y2="46.98"/><line class="cls-4" x1="64.67" y1="64.67" x2="114.23" y2="82.35"/><path class="cls-4" d="M99.87,82.6A27.94,27.94,0,0,0,82.6,29.46L64.67,64.67Z"/><line class="cls-4" x1="64.67" y1="64.67" x2="93.8" y2="28.21"/><line class="cls-4" x1="64.67" y1="64.67" x2="109.67" y2="77.03"/><line class="cls-4" x1="64.67" y1="64.67" x2="106.33" y2="32.53"/><line class="cls-4" x1="64.67" y1="64.67" x2="117.27" y2="66.17"/><path class="cls-4" d="M103.69,70.85a27.94,27.94,0,0,0-32.84-45.2l-6.18,39Z"/><line class="cls-4" x1="64.67" y1="64.67" x2="81.11" y2="20.99"/><line class="cls-4" x1="64.67" y1="64.67" x2="111.29" y2="62.52"/><line class="cls-4" x1="64.67" y1="64.67" x2="94.36" y2="21.22"/><line class="cls-4" x1="64.67" y1="64.67" x2="115.16" y2="49.84"/><path class="cls-4" d="M103.69,58.48a27.94,27.94,0,0,0-45.2-32.84l6.18,39Z"/><line class="cls-4" x1="64.67" y1="64.67" x2="66.81" y2="18.04"/><line class="cls-4" x1="64.67" y1="64.67" x2="108.34" y2="48.22"/><line class="cls-4" x1="64.67" y1="64.67" x2="79.49" y2="14.17"/><line class="cls-4" x1="64.67" y1="64.67" x2="108.11" y2="34.97"/><path class="cls-4" d="M99.87,46.73A27.94,27.94,0,0,0,46.73,29.46l17.94,35.2Z"/><line class="cls-4" x1="64.67" y1="64.67" x2="52.3" y2="19.66"/><line class="cls-4" x1="64.67" y1="64.67" x2="101.12" y2="35.53"/><line class="cls-4" x1="64.67" y1="64.67" x2="63.16" y2="12.06"/><line class="cls-4" x1="64.67" y1="64.67" x2="96.8" y2="23"/><text class="cls-5" transform="translate(19.77 82.01) rotate(63.53)">G</text><text class="cls-5" transform="translate(24.31 90.57) rotate(53.85)">E</text><text class="cls-5" transform="translate(28.16 95.8) rotate(44.87)">N</text><text class="cls-5" transform="translate(34.44 101.78) rotate(35.87)">E</text><text class="cls-5" transform="translate(39.69 105.49) rotate(27.86)">R</text><text class="cls-5" transform="matrix(0.95, 0.32, -0.32, 0.95, 46.03, 108.78)">A</text><text class="cls-5" transform="translate(54.29 111.3) rotate(9.77)">L</text><text class="cls-5" transform="translate(59.7 112.13) rotate(4.19)"> </text><text class="cls-5" transform="translate(63.7 112.49) rotate(-3.17)">A</text><text class="cls-5" transform="translate(72.32 111.82) rotate(-12.19)">S</text><text class="cls-5" transform="matrix(0.94, -0.34, 0.34, 0.94, 78.57, 110.38)">S</text><text class="cls-5" transform="translate(84.55 108.13) rotate(-27.56)">E</text><text class="cls-5" transform="matrix(0.79, -0.61, 0.61, 0.79, 90.42, 105.1)">M</text><text class="cls-5" transform="translate(98.45 98.56) rotate(-48.03)">B</text><text class="cls-5" transform="matrix(0.57, -0.82, 0.82, 0.57, 103.01, 93.3)">L</text><text class="cls-5" transform="translate(106.19 88.63) rotate(-63.27)">Y</text><text class="cls-5" transform="matrix(0.41, -0.91, 0.91, 0.41, 25.98, 51.66)">G</text><text class="cls-5" transform="matrix(0.56, -0.83, 0.83, 0.56, 29.7, 43.76)">E</text><text class="cls-5" transform="matrix(0.69, -0.72, 0.72, 0.69, 32.82, 39.08)">N</text><text class="cls-5" transform="matrix(0.8, -0.6, 0.6, 0.8, 38.26, 33.55)">E</text><text class="cls-5" transform="translate(42.76 30.17) rotate(-28.64)">R</text><text class="cls-5" transform="translate(48.18 27.18) rotate(-18.74)">A</text><text class="cls-5" transform="matrix(0.99, -0.17, 0.17, 0.99, 55.59, 24.84)">L</text><text class="cls-5" transform="matrix(1, -0.07, 0.07, 1, 60.43, 24.07)"> </text><text class="cls-5" transform="translate(63.72 23.73) rotate(3.81)">A</text><text class="cls-5" transform="matrix(0.97, 0.23, -0.23, 0.97, 71.46, 24.37)">S</text><text class="cls-5" transform="translate(76.93 25.7) rotate(21.3)">S</text><text class="cls-5" transform="matrix(0.87, 0.49, -0.49, 0.87, 82.19, 27.79)">E</text><text class="cls-5" transform="translate(87.12 30.41) rotate(39.83)">M</text><text class="cls-5" transform="translate(94.13 36.51) rotate(50.68)">B</text><text class="cls-5" transform="matrix(0.52, 0.85, -0.85, 0.52, 98.03, 41.4)">L</text><text class="cls-5" transform="translate(100.59 45.53) rotate(66.68)">Y</text><circle class="cls-6" cx="64.67" cy="64.33" r="36.15"/><circle class="cls-7" cx="64.67" cy="64.33" r="35.47"/><path class="cls-8" d="M75.12,68.37c-.23-6.26-4.81-11.26-10.45-11.26s-10.23,5-10.45,11.26h0V89.2H75.14V68.37Z"/><path class="cls-9" d="M75.14,68.37h0c-.23-6.26-4.81-11.26-10.45-11.26V89.2H75.14Z"/><circle class="cls-10" cx="68.69" cy="66.42" r="1.6"/><path class="cls-8" d="M80.49,55.21l-1.78-1.74-1.78,1.74-1.78-1.74v15.1l2.56,8.57a6.74,6.74,0,0,0,4.56-5.92h0V53.47Z"/><path class="cls-10" d="M75.14,70.91v6.68a7.52,7.52,0,0,0,2.56-.45l-2.56-8.57Z"/><path class="cls-8" d="M80.49,55.21l-1.78-1.74-1.78,1.74-1.78-1.74v15.1l2.56,8.57a6.74,6.74,0,0,0,4.56-5.92h0V53.47Z"/><path class="cls-10" d="M75.14,70.91v6.68a7.52,7.52,0,0,0,2.56-.45l-2.56-8.57Z"/><path class="cls-8" d="M48.84,55.21l1.78-1.74,1.78,1.74,1.78-1.74v15.1l-2.56,8.57a6.74,6.74,0,0,1-4.56-5.92h0V53.47Z"/><path class="cls-10" d="M54.19,70.91v6.68a7.52,7.52,0,0,1-2.56-.45l2.56-8.57Z"/><rect class="cls-10" x="59.44" y="70.53" width="10.45" height="7.06" rx="2.41" ry="2.41"/><path class="cls-11" d="M64.07,77.59H62.32l.87-.87Z"/><path class="cls-11" d="M65.54,77.59H63.79l.87-.87Z"/><path class="cls-11" d="M67,77.59H65.26l.87-1.43Z"/><path class="cls-11" d="M63.2,72l-.87-1.43h1.74Z"/><path class="cls-11" d="M64.67,71.4l-.87-.87h1.74Z"/><path class="cls-11" d="M66.13,71.4l-.87-.87H67Z"/><path class="cls-10" d="M60.64,64.81a1.6,1.6,0,0,0-1.6,1.6h3.21A1.6,1.6,0,0,0,60.64,64.81Z"/><path class="cls-12" d="M64.67,28.86a35.47,35.47,0,1,0,35.47,35.47A35.47,35.47,0,0,0,64.67,28.86Zm0,59.3A23.84,23.84,0,1,1,88.5,64.33,23.84,23.84,0,0,1,64.67,88.17Z"/><text class="cls-13" transform="translate(34.85 79.34) rotate(56.9)">A</text><text class="cls-13" transform="translate(39.61 86.18) rotate(45.34)">T</text><text class="cls-13" transform="matrix(0.8, 0.6, -0.6, 0.8, 43.08, 89.63)">L</text><text class="cls-13" transform="translate(47.37 92.9) rotate(24.94)">A</text><text class="cls-13" transform="matrix(0.98, 0.17, -0.17, 0.98, 55.24, 96.39)">N</text><text class="cls-13" transform="translate(63.47 97.58) rotate(-1.45)">T</text><text class="cls-13" transform="matrix(0.97, -0.23, 0.23, 0.97, 68.63, 97.52)">A</text><text class="cls-13" transform="translate(76.58 95.39) rotate(-23.37)">,</text><text class="cls-13" transform="translate(79.56 94.08) rotate(-28.99)"> </text><text class="cls-13" transform="translate(82.91 92.43) rotate(-40.17)">G</text><text class="cls-13" transform="translate(90.14 86) rotate(-55.87)">A</text><text class="cls-13" transform="matrix(0.41, -0.91, 0.91, 0.41, 94.52, 79.05)">.</text><text class="cls-14" transform="translate(38.68 62.93) rotate(-77)">M</text><text class="cls-14" transform="matrix(0.52, -0.85, 0.85, 0.52, 40.57, 54.64)">O</text><text class="cls-14" transform="translate(44.69 47.86) rotate(-42.27)">N</text><text class="cls-14" transform="matrix(0.87, -0.49, 0.49, 0.87, 49.92, 43.21)">S</text><text class="cls-14" transform="translate(54.2 40.84) rotate(-19.31)">T</text><text class="cls-14" transform="matrix(0.99, -0.16, 0.16, 0.99, 57.87, 39.49)">E</text><text class="cls-14" transform="translate(62.66 38.63) rotate(2)">R</text><text class="cls-14" transform="matrix(0.98, 0.19, -0.19, 0.98, 68.17, 38.92)"> </text><text class="cls-14" transform="translate(70.67 39.02) rotate(23.37)">M</text><text class="cls-14" transform="matrix(0.76, 0.65, -0.65, 0.76, 78.46, 42.44)">A</text><text class="cls-14" transform="translate(83.72 47.09) rotate(52.52)">T</text><text class="cls-14" transform="translate(86.25 50.01) rotate(65.06)">C</text><text class="cls-14" transform="translate(89.34 56.68) rotate(80.41)">H</text><polygon class="cls-11" points="20.07 60.13 21.11 63.34 24.49 63.34 21.76 65.32 22.8 68.53 20.07 66.55 17.34 68.53 18.39 65.32 15.66 63.34 19.03 63.34 20.07 60.13"/><polygon class="cls-11" points="109.26 60.13 108.22 63.34 104.84 63.34 107.57 65.32 106.53 68.53 109.26 66.55 111.99 68.53 110.95 65.32 113.67 63.34 110.3 63.34 109.26 60.13"/></g><g id="Layer_7" data-name="Layer 7"><path class="cls-8" d="M259.82,54.46c-.75-20.86-16-37.52-34.82-37.52S190.93,33.6,190.18,54.46h-.07v69.4h69.78V54.46Z"/><path class="cls-9" d="M259.89,54.46h-.07c-.75-20.86-16-37.52-34.82-37.52V123.86h34.89Z"/><circle class="cls-10" cx="238.41" cy="47.95" r="5.34"/><path class="cls-8" d="M277.72,10.59,271.78,4.8l-5.94,5.78L259.89,4.8V55.1l8.52,28.57c8.58-3.09,14.76-10.7,15.2-19.73h.06V4.8Z"/><circle class="cls-8" cx="238.15" cy="28.6" r="3.29"/><circle class="cls-8" cx="242.83" cy="34.06" r="2.18"/><circle class="cls-8" cx="244.08" cy="28.79" r="1.6"/><path class="cls-10" d="M259.89,62.9V85.17a25.06,25.06,0,0,0,8.52-1.49L259.89,55.1Z"/><path class="cls-8" d="M277.72,10.59,271.78,4.8l-5.94,5.78L259.89,4.8V55.1l8.52,28.57c8.58-3.09,14.76-10.7,15.2-19.73h.06V4.8Z"/><path class="cls-10" d="M259.89,62.9V85.17a25.06,25.06,0,0,0,8.52-1.49L259.89,55.1Z"/><path class="cls-8" d="M172.28,10.59l5.94-5.78,5.94,5.78,5.94-5.78V55.1l-8.52,28.57C173,80.58,166.84,73,166.39,63.95h-.06V4.8Z"/><path class="cls-10" d="M190.11,62.9V85.17a25.06,25.06,0,0,1-8.52-1.49l8.52-28.57Z"/><rect class="cls-10" x="207.59" y="61.65" width="34.82" height="23.52" rx="8.05" ry="8.05"/><path class="cls-11" d="M223,85.17H217.2l2.91-2.91Z"/><path class="cls-11" d="M227.9,85.17h-5.81L225,82.26Z"/><path class="cls-11" d="M232.8,85.17H227l2.91-4.76Z"/><path class="cls-11" d="M220.11,66.41l-2.91-4.77H223Z"/><path class="cls-11" d="M225,64.55l-2.91-2.91h5.81Z"/><path class="cls-11" d="M229.89,64.55,227,61.65h5.81Z"/><path class="cls-10" d="M211.59,42.6a5.34,5.34,0,0,0-5.34,5.34h10.69A5.34,5.34,0,0,0,211.59,42.6Z"/></g><g id="Layer_5" data-name="Layer 5"><polygon class="cls-15" points="347.87 71.75 338.75 113.21 347.93 104.03 357.11 113.21 366.29 104.03 375.48 113.21 384 104.69 384 71.75 347.87 71.75"/><polygon class="cls-16" points="420.07 71.75 384 71.75 384 104.69 384.66 104.03 393.84 113.21 403.02 104.03 411.54 112.56 420.07 104.03 429.25 113.21 420.07 71.75"/><polygon class="cls-15" points="365.4 25.78 361.31 6.88 371.54 21.64 365.4 25.78"/><polygon class="cls-16" points="402.6 25.78 406.69 6.88 396.46 21.64 402.6 25.78"/><path class="cls-16" d="M418.52,54c-.74-20.68-15.89-37.2-34.52-37.2S350.22,33.37,349.48,54h-.07v68.81h69.19V54Z"/><path class="cls-15" d="M418.59,54h-.07c-.74-20.68-15.89-37.2-34.52-37.2v106h34.59Z"/><circle class="cls-10" cx="370.7" cy="47.59" r="5.3"/><circle class="cls-10" cx="397.3" cy="47.59" r="5.3"/><path class="cls-8" d="M436.27,10.55l-5.89-5.73-5.89,5.73-5.89-5.73V54.69L427,83c8.5-3.07,14.63-10.61,15.07-19.56h.06V4.82Z"/><path class="cls-10" d="M418.59,62.42V84.49A24.84,24.84,0,0,0,427,83l-8.44-28.33Z"/><path class="cls-16" d="M436.27,10.55l-5.89-5.73-5.89,5.73-5.89-5.73V54.69L427,83c8.5-3.07,14.63-10.61,15.07-19.56h.06V4.82Z"/><path class="cls-10" d="M418.59,62.42V84.49A24.84,24.84,0,0,0,427,83l-8.44-28.33Z"/><path class="cls-16" d="M331.73,10.55l5.89-5.73,5.89,5.73,5.89-5.73V54.69L341,83c-8.5-3.07-14.63-10.61-15.07-19.56h-.06V4.82Z"/><path class="cls-10" d="M349.41,62.42V84.49A24.84,24.84,0,0,1,341,83l8.44-28.33Z"/><rect class="cls-10" x="366.74" y="61.18" width="34.53" height="23.32" rx="7.98" ry="7.98"/><path class="cls-11" d="M382,84.49h-5.76l2.88-2.88Z"/><path class="cls-11" d="M386.88,84.49h-5.76L384,81.61Z"/><path class="cls-11" d="M391.73,84.49H386l2.88-2.88Z"/><path class="cls-11" d="M379.15,65.51l-2.88-4.33H382Z"/><path class="cls-11" d="M388.85,65.51,386,61.18h5.76Z"/><polygon class="cls-17" points="377.71 63.34 380.59 63.34 379.15 65.51 377.71 63.34"/><polygon class="cls-17" points="387.41 63.34 390.29 63.34 388.85 65.51 387.41 63.34"/></g><g id="Layer_6" data-name="Layer 6"><path class="cls-18" d="M521.25,13.32c-2.06,1.31-1.16,6.43,2,11.44L530.73,20C527.56,15,523.32,12,521.25,13.32Z"/><path class="cls-19" d="M522.38,14.87c-1.73,1.1-1,5.39,1.69,9.59l6.26-4C527.66,16.29,524.11,13.77,522.38,14.87Z"/><path class="cls-19" d="M565.41,13.32c2.06,1.31,1.16,6.43-2,11.44L555.93,20C559.1,15,563.35,12,565.41,13.32Z"/><path class="cls-18" d="M564.29,14.87c1.73,1.1,1,5.39-1.69,9.59l-6.26-4C559,16.29,562.56,13.77,564.29,14.87Z"/><path class="cls-19" d="M578.15,54.46c-.75-20.86-16-37.52-34.82-37.52S509.26,33.6,508.51,54.46h-.07v69.4h69.78V54.46Z"/><path class="cls-18" d="M578.22,54.46h-.07c-.75-20.86-16-37.52-34.82-37.52V123.86h34.89Z"/><path class="cls-10" d="M524.58,47.95a5.34,5.34,0,1,0,5.34-5.34,5.34,5.34,0,0,0-5.34,5.34"/><path class="cls-10" d="M551.4,47.95a5.34,5.34,0,0,0,10.69,0"/><path class="cls-8" d="M596.05,10.59,590.11,4.8l-5.94,5.78L578.22,4.8V55.1l8.52,28.57c8.58-3.09,14.76-10.7,15.2-19.73H602V4.8Z"/><path class="cls-10" d="M578.22,62.9V85.17a25.06,25.06,0,0,0,8.52-1.49L578.22,55.1Z"/><path class="cls-19" d="M596.05,10.59,590.11,4.8l-5.94,5.78L578.22,4.8V55.1l8.52,28.57c8.58-3.09,14.76-10.7,15.2-19.73H602V4.8Z"/><path class="cls-10" d="M578.22,62.9V85.17a25.06,25.06,0,0,0,8.52-1.49L578.22,55.1Z"/><path class="cls-19" d="M490.61,10.59l5.94-5.78,5.94,5.78,5.94-5.78V55.1l-8.52,28.57c-8.58-3.09-14.76-10.7-15.2-19.73h-.06V4.8Z"/><path class="cls-10" d="M508.44,62.9V85.17a25.06,25.06,0,0,1-8.52-1.49l8.52-28.57Z"/><rect class="cls-10" x="525.92" y="61.65" width="34.82" height="23.52" rx="8.05" ry="8.05"/><path class="cls-11" d="M541.35,85.17h-5.81l2.91-11Z"/><path class="cls-11" d="M551.13,85.17h-5.81l2.91-11Z"/><path class="cls-11" d="M538.44,66l-2.91-4.37h5.81Z"/><path class="cls-11" d="M548.22,66l-2.91-4.37h5.81Z"/><circle class="cls-18" cx="513.65" cy="100.84" r="4.02"/><circle class="cls-18" cx="517.67" cy="108.88" r="2.25"/><circle class="cls-18" cx="512.54" cy="107.61" r="1.59"/><path class="cls-18" d="M571,29.29a2.28,2.28,0,0,0-3.18-.53l2.66,3.71A2.28,2.28,0,0,0,571,29.29Z"/><path class="cls-18" d="M572.43,32.72a1.64,1.64,0,0,0-2.29-.38L572.05,35A1.64,1.64,0,0,0,572.43,32.72Z"/></g></g></svg>