<svg xmlns="http://www.w3.org/2000/svg" viewBox="0 0 863.9 179.53"><defs><style>.cls-1{fill:#fff;}.cls-2{fill:#47cfe2;}</style></defs><title>Asset 2highest</title><g id="Layer_2" data-name="Layer 2"><g id="Layer_1-2" data-name="Layer 1"><g id="Layer_2-2" data-name="Layer 2"><g id="Layer_1-2-2" data-name="Layer 1-2"><path class="cls-1" d="M863.9,121.29v42.76H825.45a42.78,42.78,0,0,1-4.55.24H367.45q-1.77,0-3.51-.15-1.73.15-3.48.15H43a43.16,43.16,0,0,1-4.57-.24H0V121.29a43,43,0,0,1,41.62-43A79.7,79.7,0,0,1,172.91,24c18.43-14.86,43.88-24,72-24,39,0,72.79,17.64,89.91,43.56q1.26-.09,2.55-.09a34.85,34.85,0,0,1,31.39,19.72A79.72,79.72,0,0,1,497.36,24c18.42-14.86,43.87-24,72-24,26.14,0,50,8,68,21,18-13.07,41.86-21,68-21,39,0,72.79,17.64,89.91,43.56.84-.06,1.69-.09,2.54-.09A34.82,34.82,0,0,1,832.6,78.29v1.6A43,43,0,0,1,863.9,121.29Z"/></g></g><g id="Layer_2-3" data-name="Layer 2"><g id="Layer_1-2-3" data-name="Layer 1-2"><path class="cls-2" d="M863.9,136.53v42.76H825.45a42.78,42.78,0,0,1-4.55.24H367.45q-1.77,0-3.51-.15-1.73.15-3.48.15H43a43.16,43.16,0,0,1-4.57-.24H0V136.53a43,43,0,0,1,41.62-43A79.7,79.7,0,0,1,172.91,39.24c18.43-14.86,43.88-24,72-24,39,0,72.79,17.64,89.91,43.56q1.26-.09,2.55-.09a34.85,34.85,0,0,1,31.39,19.72,79.72,79.72,0,0,1,128.6-39.19c18.42-14.86,43.87-24,72-24,26.14,0,50,8,68,21,18-13.07,41.86-21,68-21,39,0,72.79,17.64,89.91,43.56.84-.06,1.69-.09,2.54-.09A34.82,34.82,0,0,1,832.6,93.53v1.6A43,43,0,0,1,863.9,136.53Z"/></g></g></g></g></svg>