<svg xmlns="http://www.w3.org/2000/svg" viewBox="0 0 863.9 301.49"><defs><style>.cls-1{fill:#fcfcfc;}.cls-2{fill:#47cfe2;}</style></defs><title>Asset 13highest</title><g id="Layer_2" data-name="Layer 2"><g id="Layer_1-2" data-name="Layer 1"><circle class="cls-1" cx="627.1" cy="41.2" r="41.2"/><circle class="cls-1" cx="569.1" cy="41.2" r="41.2"/><ellipse class="cls-1" cx="757.62" cy="50.2" rx="42.32" ry="35.17"/><circle class="cls-1" cx="370.1" cy="71.41" r="41.2"/><circle class="cls-1" cx="177.17" cy="30.2" r="17"/><path class="cls-1" d="M863.9,134.49v42.76H825.45a42.78,42.78,0,0,1-4.55.24H367.45q-1.77,0-3.51-.15-1.73.15-3.48.15H43a43.16,43.16,0,0,1-4.57-.24H0V134.49a43,43,0,0,1,41.62-43A79.7,79.7,0,0,1,172.91,37.24c18.43-14.86,43.88-24,72-24,39,0,72.79,17.64,89.91,43.56q1.26-.09,2.55-.09a34.85,34.85,0,0,1,31.39,19.72A79.72,79.72,0,0,1,497.36,37.24c18.42-14.86,43.87-24,72-24,26.14,0,50,8,68,21,18-13.07,41.86-21,68-21,39,0,72.79,17.64,89.91,43.56.84-.06,1.69-.09,2.54-.09A34.82,34.82,0,0,1,832.6,91.49c0,.54,0,1.07,0,1.6A43,43,0,0,1,863.9,134.49Z"/><path class="cls-2" d="M863.9,171.49v42.76H825.45a42.78,42.78,0,0,1-4.55.24H367.45q-1.77,0-3.51-.15-1.73.15-3.48.15H43a43.16,43.16,0,0,1-4.57-.24H0V171.49a43,43,0,0,1,41.62-43A79.7,79.7,0,0,1,172.91,74.24c18.43-14.86,43.88-24,72-24,39,0,72.79,17.64,89.91,43.56q1.26-.09,2.55-.09a34.85,34.85,0,0,1,31.39,19.72A79.72,79.72,0,0,1,497.36,74.24c18.42-14.86,43.87-24,72-24,26.14,0,50,8,68,21,18-13.07,41.86-21,68-21,39,0,72.79,17.64,89.91,43.56.84-.06,1.69-.09,2.54-.09a34.82,34.82,0,0,1,34.82,34.82c0,.54,0,1.07,0,1.6A43,43,0,0,1,863.9,171.49Z"/><path class="cls-1" d="M863.9,216.64V259.4H825.45a42.78,42.78,0,0,1-4.55.24H367.45q-1.77,0-3.51-.15-1.73.15-3.48.15H43a43.16,43.16,0,0,1-4.57-.24H0V216.64a43,43,0,0,1,41.62-43,79.7,79.7,0,0,1,131.29-54.27c18.43-14.86,43.88-24,72-24,39,0,72.79,17.64,89.91,43.56q1.26-.09,2.55-.09a34.85,34.85,0,0,1,31.39,19.72,79.72,79.72,0,0,1,128.63-39.15c18.42-14.86,43.87-24,72-24,26.14,0,50,8,68,21,18-13.07,41.86-21,68-21,39,0,72.79,17.64,89.91,43.56.84-.06,1.69-.09,2.54-.09a34.82,34.82,0,0,1,34.82,34.82c0,.54,0,1.07,0,1.6A43,43,0,0,1,863.9,216.64Z"/><circle class="cls-1" cx="249.1" cy="123.61" r="41.2"/><circle class="cls-1" cx="498.99" cy="132.35" r="41.2"/><path class="cls-2" d="M863.9,258.49v42.76H825.45a42.78,42.78,0,0,1-4.55.24H367.45q-1.77,0-3.51-.15-1.73.15-3.48.15H43a43.16,43.16,0,0,1-4.57-.24H0V258.49a43,43,0,0,1,41.62-43,79.7,79.7,0,0,1,131.29-54.27c18.43-14.86,43.88-24,72-24,39,0,72.79,17.64,89.91,43.56q1.26-.09,2.55-.09a34.85,34.85,0,0,1,31.39,19.72,79.72,79.72,0,0,1,128.63-39.15c18.42-14.86,43.87-24,72-24,26.14,0,50,8,68,21,18-13.07,41.86-21,68-21,39,0,72.79,17.64,89.91,43.56.84-.06,1.69-.09,2.54-.09a34.82,34.82,0,0,1,34.82,34.82c0,.54,0,1.07,0,1.6A43,43,0,0,1,863.9,258.49Z"/></g></g></svg>