<svg xmlns="http://www.w3.org/2000/svg" viewBox="0 0 863.9 164.29"><defs><style>.cls-1{fill:#47cfe2;}</style></defs><title>Asset 2highest</title><g id="Layer_2" data-name="Layer 2"><g id="Layer_1-2" data-name="Layer 1"><path class="cls-1" d="M727.9,121.29a43,43,0,0,1-43,43H367.45a43,43,0,0,1-1.38-86A79.7,79.7,0,0,1,497.36,24c18.42-14.86,43.87-24,72-24,39,0,72.79,17.64,89.91,43.56.84-.06,1.69-.09,2.54-.09A34.82,34.82,0,0,1,696.6,78.29c0,.54,0,1.07,0,1.6A43,43,0,0,1,727.9,121.29Z"/><path class="cls-1" d="M863.9,121.29a43,43,0,0,1-43,43H503.45a43,43,0,0,1-1.38-86A79.7,79.7,0,0,1,633.36,24c18.42-14.86,43.87-24,72-24,39,0,72.79,17.64,89.91,43.56.84-.06,1.69-.09,2.54-.09A34.82,34.82,0,0,1,832.6,78.29c0,.54,0,1.07,0,1.6A43,43,0,0,1,863.9,121.29Z"/><path class="cls-1" d="M403.45,121.29a43,43,0,0,1-43,43H43a43,43,0,0,1-1.38-86A79.7,79.7,0,0,1,172.91,24c18.42-14.86,43.87-24,72-24,39,0,72.79,17.64,89.91,43.56.84-.06,1.69-.09,2.54-.09a34.82,34.82,0,0,1,34.82,34.82c0,.54,0,1.07,0,1.6A43,43,0,0,1,403.45,121.29Z"/></g></g></svg>