<svg xmlns="http://www.w3.org/2000/svg" viewBox="0 0 301.87 301.87"><defs><style>.cls-1{fill:#231f20;}.cls-2{fill:#ddd;}</style></defs><title>Asset 17highest</title><g id="Layer_2" data-name="Layer 2"><g id="Layer_1-2" data-name="Layer 1"><circle class="cls-1" cx="150.93" cy="150.93" r="150.93"/><circle class="cls-2" cx="150.93" cy="150.93" r="135.1"/><path d="M166.88,124.14v69.8a64.57,64.57,0,0,1-11.8,5.6,125.37,125.37,0,0,1-13.7,4.1,116.68,116.68,0,0,1-14.4,2.5,126.71,126.71,0,0,1-13.7.8q-18,0-32.1-6A68.85,68.85,0,0,1,42.58,161a80,80,0,0,1-5.1-28.5,77.66,77.66,0,0,1,5.5-29.4,72.54,72.54,0,0,1,15.2-23.6,69.37,69.37,0,0,1,23.3-15.7,76.33,76.33,0,0,1,29.8-5.7q19.6,0,32,4.9a58.89,58.89,0,0,1,20.8,13.5l-13.6,14.6a50.34,50.34,0,0,0-18.6-11.7,64.11,64.11,0,0,0-20.6-3.3,51.47,51.47,0,0,0-38.8,16.6,53.33,53.33,0,0,0-10.8,17.9,62.75,62.75,0,0,0-3.8,21.9,58.49,58.49,0,0,0,4.2,22.3,55.22,55.22,0,0,0,11.6,17.9,53.42,53.42,0,0,0,17.4,11.9,54.55,54.55,0,0,0,21.8,4.3,94.17,94.17,0,0,0,19.3-1.9,54.12,54.12,0,0,0,15.5-5.5v-39.4h-31.4v-18Z"/><path d="M169.19,124.14H219q13.6,0,22.4,3.7a38.13,38.13,0,0,1,13.9,9.4,32,32,0,0,1,7.1,12.8,47.92,47.92,0,0,1,0,27.4,32,32,0,0,1-7.1,12.8,38.08,38.08,0,0,1-13.9,9.4q-8.8,3.7-22.4,3.7h-30.6v62.4h-19.2Zm19.2,62.4h25.2a68.65,68.65,0,0,0,11.1-.9,29.85,29.85,0,0,0,9.8-3.3,18.06,18.06,0,0,0,6.9-6.9q2.6-4.5,2.6-11.7t-2.6-11.7a18.06,18.06,0,0,0-6.9-6.9,29.85,29.85,0,0,0-9.8-3.3,68.65,68.65,0,0,0-11.1-.9h-25.2Z"/></g></g></svg>