<svg xmlns="http://www.w3.org/2000/svg" viewBox="0 0 216 215.99"><defs><style>.cls-1{fill:#fff;}.cls-2{stroke:#000;stroke-miterlimit:10;stroke-width:4px;}.cls-3{fill:#231f20;}</style></defs><title>Asset 14highest</title><g id="Layer_2" data-name="Layer 2"><g id="Layer_1-2" data-name="Layer 1"><rect class="cls-1" x="6.5" y="6.5" width="203" height="203"/><path class="cls-2" d="M131,128.56H32.59L81.81,43.29Zm-92.16-3.64h85.86L81.81,50.56Z"/><path class="cls-2" d="M179.86,128.56H81.41l49.23-85.26Zm-92.16-3.64h85.86L130.64,50.56Z"/><path class="cls-3" d="M21.95,138.93h6.69L33.26,152h.06L38,138.93h6.66V159H40.2V143.6h-.06L34.87,159H31.5L26.43,143.6h-.06V159H21.95Z"/><path class="cls-3" d="M57.43,138.93h3.66L69.81,159h-5l-1.73-4.25H55.3L53.63,159H48.76Zm1.7,5.84L56.69,151h4.9Z"/><path class="cls-3" d="M75.23,142.84H69.5v-3.91H85.37v3.91H79.65V159H75.23Z"/><path class="cls-3" d="M89.91,138.93h13.63V143H94.33v3.74H103v4.08h-8.7v4.08H104V159H89.91Z"/><path class="cls-3" d="M109.72,138.93h7.76a13.71,13.71,0,0,1,2.9.3,6.91,6.91,0,0,1,2.41,1,5,5,0,0,1,1.64,1.87A6.33,6.33,0,0,1,125,145a5.89,5.89,0,0,1-1.11,3.61,5,5,0,0,1-3.23,1.88l5.1,8.47h-5.3l-4.19-8h-2.18v8h-4.42Zm4.42,8.3h2.61q.6,0,1.26,0a4,4,0,0,0,1.2-.25,2.08,2.08,0,0,0,.89-.67,2,2,0,0,0,.35-1.28,2.12,2.12,0,0,0-.31-1.22,2.09,2.09,0,0,0-.79-.69,3.53,3.53,0,0,0-1.11-.33,9,9,0,0,0-1.22-.08h-2.89Z"/><path class="cls-3" d="M130.15,138.93h4.42V159h-4.42Z"/><path class="cls-3" d="M147.32,138.93H151L159.71,159h-5L153,154.74H145.2L143.52,159h-4.87Zm1.7,5.84L146.58,151h4.9Z"/><path class="cls-3" d="M164,138.93h4.42v16h8.19V159H164Z"/><path class="cls-3" d="M191.1,143.83a3.15,3.15,0,0,0-1.46-1,5.24,5.24,0,0,0-1.74-.33,4.53,4.53,0,0,0-1,.11,3.8,3.8,0,0,0-1,.35,2.11,2.11,0,0,0-.74.64,1.62,1.62,0,0,0-.28,1,1.6,1.6,0,0,0,.68,1.39,6.42,6.42,0,0,0,1.71.82q1,.34,2.22.68a9.15,9.15,0,0,1,2.22,1,5.26,5.26,0,0,1,1.71,1.67,5.1,5.1,0,0,1,.68,2.81,6.46,6.46,0,0,1-.62,2.92,5.93,5.93,0,0,1-1.69,2.07,7.18,7.18,0,0,1-2.47,1.22,11.31,11.31,0,0,1-6.59-.2,9.09,9.09,0,0,1-3.12-1.93l3.15-3.46a4.59,4.59,0,0,0,1.71,1.4,4.83,4.83,0,0,0,3.23.37,3.56,3.56,0,0,0,1-.38,2.14,2.14,0,0,0,.71-.65,1.63,1.63,0,0,0,.27-.94,1.7,1.7,0,0,0-.69-1.43,6.45,6.45,0,0,0-1.74-.89q-1-.37-2.27-.74a10.13,10.13,0,0,1-2.27-1,5.45,5.45,0,0,1-1.74-1.64,4.7,4.7,0,0,1-.69-2.69,6,6,0,0,1,.64-2.83,6.15,6.15,0,0,1,1.7-2,7.4,7.4,0,0,1,2.45-1.23,10.05,10.05,0,0,1,2.86-.41,11.25,11.25,0,0,1,3.29.48,7.6,7.6,0,0,1,2.86,1.62Z"/><path class="cls-3" d="M216,216H0V0H216ZM13,203H203V13H13Z"/></g></g></svg>