<?xml version="1.0" encoding="utf-8"?>
<!-- Generator: Adobe Illustrator 21.0.2, SVG Export Plug-In . SVG Version: 6.00 Build 0)  -->
<svg version="1.1" id="Layer_1" xmlns="http://www.w3.org/2000/svg" xmlns:xlink="http://www.w3.org/1999/xlink" x="0px" y="0px"
	 viewBox="0 0 216 216" style="enable-background:new 0 0 216 216;" xml:space="preserve">
<style type="text/css">
	.st0{stroke:#000000;stroke-width:4;stroke-miterlimit:10;}
	.st1{fill:#231F20;}
	.st2{font-family:'Avenir-Black';}
	.st3{font-size:28.34px;}
	.st4{letter-spacing:2;}
</style>
<title>MATERIALS LOGO</title>
<g>
	<path class="st0" d="M131.3,127.1H32.8l49.2-85.3L131.3,127.1z M39.1,123.5H125L82.1,49.1L39.1,123.5z"/>
	<path class="st0" d="M180.1,127.1H81.7l49.2-85.3L180.1,127.1z M88,123.5h85.9l-43-74.4L88,123.5z"/>
	<text transform="matrix(1 0 0 1 20.16 157.55)" class="st1 st2 st3 st4">M</text>
	<text transform="matrix(1 0 0 1 49.04 157.55)" class="st1 st2 st3">A</text>
	<text transform="matrix(1 0 0 1 69.56 157.55)" class="st1 st2 st3 st4">TERIALS</text>
	<path class="st1" d="M216,216H0V0h216V216z M13,203h190V13H13V203z"/>
</g>
</svg>
