
<svg xmlns="http://www.w3.org/2000/svg" viewBox="0 0 286.48 273.43"><defs><style>.cls-1{fill:#f95d48;}</style></defs><title>Asset 6highest</title><g id="Layer_2" data-name="Layer 2"><g id="Layer_1-2" data-name="Layer 1"><polygon class="cls-1" points="186 0 186 80.34 164 73.39 142.01 66.45 186 0"/><polygon class="cls-1" points="97.47 0.97 144.7 65.97 122.82 73.28 100.94 80.59 97.47 0.97"/><polygon class="cls-1" points="26.43 53.8 102.84 78.63 89.43 97.4 76.03 116.17 26.43 53.8"/><polygon class="cls-1" points="0 138.29 76.41 113.47 76.6 136.53 76.79 159.6 0 138.29"/><polygon class="cls-1" points="28.28 222.19 75.51 157.19 89.22 175.74 102.93 194.29 28.28 222.19"/><polygon class="cls-1" points="100.48 273.43 100.48 193.09 122.47 200.04 144.47 206.99 100.48 273.43"/><polygon class="cls-1" points="189 272.46 141.78 207.46 163.66 200.15 185.54 192.84 189 272.46"/><polygon class="cls-1" points="260.05 219.63 183.64 194.81 197.05 176.03 210.45 157.26 260.05 219.63"/><polygon class="cls-1" points="286.48 135.14 210.07 159.97 209.88 136.9 209.69 113.83 286.48 135.14"/><polygon class="cls-1" points="258.19 51.25 210.97 116.24 197.26 97.69 183.55 79.14 258.19 51.25"/></g></g></svg>
