<svg xmlns="http://www.w3.org/2000/svg" viewBox="0 0 202.69 318.82"><defs><style>.cls-1{fill:#47cfe2;}.cls-2{fill:#ff9c0a;}.cls-3{fill:#fcfcfc;}.cls-4{fill:#ff5103;}.cls-5{fill:#ea8a0a;}.cls-6{fill:#e84707;}.cls-7{fill:#3fb3bc;}.cls-8{fill:#ccc;}.cls-9{fill:#fff;}</style></defs><title>Asset 10highest</title><g id="Layer_2" data-name="Layer 2"><g id="Layer_1-2" data-name="Layer 1"><path class="cls-1" d="M73.25,248.37s2.7,52.27,28.1,70.45V248.37Z"/><path class="cls-1" d="M129.44,248.37s-2.7,52.27-28.1,70.45V248.37Z"/><path class="cls-2" d="M79.63,248.37s2.09,40.4,21.72,54.45V248.37Z"/><path class="cls-2" d="M123.06,248.37s-2.09,40.4-21.72,54.45V248.37Z"/><path class="cls-3" d="M84,248.37s1.67,32.24,17.33,43.45V248.37Z"/><path class="cls-3" d="M118.67,248.37s-1.67,32.24-17.33,43.45V248.37Z"/><path class="cls-2" d="M101.34,0S13.63,51.34,63.89,223.57h37.45Z"/><polygon class="cls-4" points="101.34 149.04 89.75 191.27 101.34 310.51 101.34 149.04"/><path class="cls-4" d="M48.77,140.55c-3.38,3-52.92,48.51-48.49,116.9a.15.15,0,0,0,.28,0c2.68-7,27.8-69.53,63-34.26a.14.14,0,0,0,.24-.12S48.85,140.48,48.77,140.55Z"/><path class="cls-1" d="M56,180.82C18.38,181,2.41,232.55.39,257.48a.08.08,0,0,0,.16,0c2.51-6.48,27.79-67.86,63.34-33.95Z"/><path class="cls-1" d="M101.34,46.37s-19.19.43-30.92-12c0,0,12.91-24.43,30.92-34.37Z"/><path class="cls-5" d="M101.34,0s87.71,51.34,37.45,223.57H101.34Z"/><polygon class="cls-6" points="101.34 149.04 112.94 191.27 101.34 310.51 101.34 149.04"/><path class="cls-6" d="M153.92,140.55c3.38,3,52.92,48.51,48.49,116.9a.15.15,0,0,1-.28,0c-2.68-7-27.8-69.53-63-34.26a.14.14,0,0,1-.24-.12S153.84,140.48,153.92,140.55Z"/><path class="cls-7" d="M146.69,180.82c37.62.14,53.59,51.73,55.6,76.66a.08.08,0,0,1-.16,0c-2.51-6.48-27.79-67.86-63.34-33.95Z"/><path class="cls-7" d="M101.34,46.37s19.19.43,30.92-12c0,0-12.91-24.43-30.92-34.37Z"/><circle class="cls-6" cx="101.34" cy="74.94" r="20.49"/><circle class="cls-8" cx="101.34" cy="74.94" r="17.11"/><path class="cls-5" d="M101.34,54.44a20.49,20.49,0,0,0,0,41Z"/><path class="cls-9" d="M101.34,57.83a17.11,17.11,0,1,0,0,34.22Z"/><circle class="cls-6" cx="101.34" cy="120.89" r="15.46"/><circle class="cls-8" cx="101.34" cy="120.89" r="12.9"/><path class="cls-5" d="M101.34,105.44a15.46,15.46,0,1,0,0,30.92Z"/><path class="cls-9" d="M101.34,108a12.9,12.9,0,1,0,0,25.81Z"/><polygon class="cls-1" points="63.9 223.57 67.19 240.44 94.53 240.44 92.79 223.57 63.9 223.57"/><polygon class="cls-7" points="138.79 223.57 135.5 240.44 108.16 240.44 109.9 223.57 138.79 223.57"/></g></g></svg>