<svg xmlns="http://www.w3.org/2000/svg" viewBox="0 0 362 554.57"><defs><style>.cls-1{fill:#ff9c0a;}.cls-2{fill:#ff5103;}.cls-3{fill:#47cfe2;}.cls-4{fill:#ea8a0a;}.cls-5{fill:#e84707;}.cls-6{fill:#3fb3bc;}.cls-7{fill:#ccc;}.cls-8{fill:#fff;}</style></defs><title>Asset 1highest</title><g id="Layer_2" data-name="Layer 2"><g id="Layer_1-2" data-name="Layer 1"><path class="cls-1" d="M181,0S24.35,91.69,114.12,399.29H181Z"/><polygon class="cls-2" points="181 266.19 160.3 341.61 181 554.57 181 266.19"/><path class="cls-2" d="M87.1,251c-6,5.42-94.51,86.64-86.6,208.79a.26.26,0,0,0,.51.08c4.78-12.57,49.65-124.19,112.53-61.19a.25.25,0,0,0,.43-.21S87.25,250.89,87.1,251Z"/><path class="cls-3" d="M100,322.95C32.83,323.2,4.3,415.34.7,459.85a.15.15,0,0,0,.29.06c4.48-11.58,49.63-121.2,113.12-60.63Z"/><path class="cls-3" d="M181,82.82s-34.27.76-55.22-21.43c0,0,23.05-43.64,55.22-61.38Z"/><path class="cls-4" d="M181,0s156.65,91.69,66.88,399.29H181Z"/><polygon class="cls-5" points="181 266.19 201.7 341.61 181 554.57 181 266.19"/><path class="cls-5" d="M274.9,251c6,5.42,94.51,86.64,86.6,208.79a.26.26,0,0,1-.51.08c-4.78-12.57-49.65-124.19-112.53-61.19a.25.25,0,0,1-.43-.21S274.75,250.89,274.9,251Z"/><path class="cls-6" d="M262,322.95c67.18.25,95.71,92.39,99.31,136.91a.15.15,0,0,1-.29.06c-4.48-11.58-49.63-121.2-113.12-60.63Z"/><path class="cls-6" d="M181,82.82s34.27.76,55.22-21.43c0,0-23.05-43.64-55.22-61.38Z"/><circle class="cls-5" cx="181" cy="133.84" r="36.6"/><circle class="cls-7" cx="181" cy="133.84" r="30.55"/><path class="cls-4" d="M181,97.24a36.6,36.6,0,1,0,0,73.2Z"/><path class="cls-8" d="M181,103.28a30.55,30.55,0,1,0,0,61.11Z"/><circle class="cls-5" cx="181" cy="215.91" r="27.61"/><circle class="cls-7" cx="181" cy="215.91" r="23.05"/><path class="cls-4" d="M181,188.31a27.61,27.61,0,1,0,0,55.22Z"/><path class="cls-8" d="M181,192.87A23,23,0,1,0,181,239Z"/><polygon class="cls-3" points="114.11 399.29 120 429.42 168.83 429.42 165.72 399.29 114.11 399.29"/><polygon class="cls-6" points="247.88 399.29 242 429.42 193.16 429.42 196.28 399.29 247.88 399.29"/></g></g></svg>