<?xml version="1.0" encoding="utf-8"?>
<!-- Generator: Adobe Illustrator 21.0.2, SVG Export Plug-In . SVG Version: 6.00 Build 0)  -->
<svg version="1.1" id="Layer_1" xmlns="http://www.w3.org/2000/svg" xmlns:xlink="http://www.w3.org/1999/xlink" x="0px" y="0px"
	 viewBox="0 0 576 792" style="enable-background:new 0 0 576 792;" xml:space="preserve">
<style type="text/css">
	.st0{fill:#FF9C0A;}
	.st1{fill:#FF5103;}
	.st2{fill:#47CFE2;}
	.st3{fill:#EA8A0A;}
	.st4{fill:#E84707;}
	.st5{fill:#3FB3BC;}
	.st6{fill:#CCCCCC;}
	.st7{fill:#FFFFFF;}
	.st8{fill:url(#SVGID_1_);}
</style>
<g>
	<path class="st0" d="M288,168.3c0,0-70.6,41.3-30.2,180H288V168.3z"/>
	<polygon class="st1" points="288,288.3 278.7,322.3 288,418.3 	"/>
	<path class="st1" d="M245.7,281.5c-2.7,2.4-42.6,39.1-39,94.1c0,0.1,0.2,0.2,0.2,0c2.2-5.7,22.4-56,50.7-27.6
		c0.1,0.1,0.2,0,0.2-0.1C257.8,348,245.7,281.4,245.7,281.5z"/>
	<path class="st2" d="M251.5,313.9c-30.3,0.1-43.1,41.7-44.8,61.7c0,0.1,0.1,0.1,0.1,0c2-5.2,22.4-54.6,51-27.3L251.5,313.9z"/>
	<path class="st2" d="M288,205.7c0,0-15.4,0.3-24.9-9.7c0,0,10.4-19.7,24.9-27.7V205.7z"/>
	<path class="st3" d="M288,168.3c0,0,70.6,41.3,30.2,180H288V168.3z"/>
	<polygon class="st4" points="288,288.3 297.3,322.3 288,418.3 	"/>
	<path class="st4" d="M330.3,281.5c2.7,2.4,42.6,39.1,39,94.1c0,0.1-0.2,0.2-0.2,0c-2.2-5.7-22.4-56-50.7-27.6
		c-0.1,0.1-0.2,0-0.2-0.1C318.2,348,330.3,281.4,330.3,281.5z"/>
	<path class="st5" d="M324.5,313.9c30.3,0.1,43.1,41.7,44.8,61.7c0,0.1-0.1,0.1-0.1,0c-2-5.2-22.4-54.6-51-27.3L324.5,313.9z"/>
	<path class="st5" d="M288,205.7c0,0,15.4,0.3,24.9-9.7c0,0-10.4-19.7-24.9-27.7V205.7z"/>
	<circle class="st4" cx="288" cy="228.7" r="16.5"/>
	<circle class="st6" cx="288" cy="228.7" r="13.8"/>
	<path class="st3" d="M288,212.2c-9.1,0-16.5,7.4-16.5,16.5c0,9.1,7.4,16.5,16.5,16.5V212.2z"/>
	<path class="st7" d="M288,214.9c-7.6,0-13.8,6.2-13.8,13.8c0,7.6,6.2,13.8,13.8,13.8V214.9z"/>
	<circle class="st4" cx="288" cy="265.7" r="12.4"/>
	<circle class="st6" cx="288" cy="265.7" r="10.4"/>
	<path class="st3" d="M288,253.2c-6.9,0-12.4,5.6-12.4,12.4c0,6.9,5.6,12.4,12.4,12.4V253.2z"/>
	<path class="st7" d="M288,255.3c-5.7,0-10.4,4.7-10.4,10.4c0,5.7,4.7,10.4,10.4,10.4V255.3z"/>
	<polygon class="st2" points="257.8,348.3 260.5,361.9 282.5,361.9 281.1,348.3 	"/>
	<polygon class="st5" points="318.2,348.3 315.5,361.9 293.5,361.9 294.9,348.3 	"/>
</g>
<path class="st2" d="M-56.5,718.8v0.2H-61C-59.5,719-58,718.9-56.5,718.8z"/>
<path class="st2" d="M628.2,676v42.8h-38.5c-1.5,0.2-3,0.2-4.5,0.2H131.7c-1.2,0-2.3,0-3.5-0.2c-1.2,0.1-2.3,0.2-3.5,0.2h-317.5
	c-1.5,0-3.1-0.1-4.6-0.2h-38.4V676c0-23.3,18.5-42.2,41.6-43c3.2-41.1,37.5-73.4,79.5-73.4c19.8,0,37.9,7.2,51.8,19.2
	c18.4-14.9,43.9-24,72-24c39,0,72.8,17.6,89.9,43.6c0.8-0.1,1.7-0.1,2.5-0.1c13.8,0,25.8,8,31.4,19.7c9.4-33.6,40.2-58.3,76.8-58.3
	c19.8,0,37.9,7.2,51.8,19.2c18.4-14.9,43.9-24,72-24c26.1,0,50,8,68,21c18-13.1,41.9-21,68-21c39,0,72.8,17.6,89.9,43.6
	c0.8-0.1,1.7-0.1,2.5-0.1c19.2,0,34.8,15.6,34.8,34.8c0,0.5,0,1.1,0,1.6C614.9,639.7,628.2,656.3,628.2,676z"/>
<linearGradient id="SVGID_1_" gradientUnits="userSpaceOnUse" x1="1102.5497" y1="505.585" x2="1102.5497" y2="-47.8955">
	<stop  offset="0" style="stop-color:#FFF33B"/>
	<stop  offset="4.541215e-03" style="stop-color:#FFF13B"/>
	<stop  offset="9.333974e-02" style="stop-color:#F9C73B"/>
	<stop  offset="0.1841" style="stop-color:#F5A53C"/>
	<stop  offset="0.276" style="stop-color:#F18A3C"/>
	<stop  offset="0.3694" style="stop-color:#EF773C"/>
	<stop  offset="0.4653" style="stop-color:#ED6C3C"/>
	<stop  offset="0.5674" style="stop-color:#ED683C"/>
	<stop  offset="0.6372" style="stop-color:#E66556"/>
	<stop  offset="0.7866" style="stop-color:#D65F98"/>
	<stop  offset="1" style="stop-color:#BB55FF"/>
</linearGradient>
<rect x="819.1" y="21.1" class="st8" width="567" height="397.2"/>
</svg>
