<?xml version="1.0" encoding="utf-8"?>
<!-- Generator: Adobe Illustrator 21.0.2, SVG Export Plug-In . SVG Version: 6.00 Build 0)  -->
<svg version="1.1" id="Layer_1" xmlns="http://www.w3.org/2000/svg" xmlns:xlink="http://www.w3.org/1999/xlink" x="0px" y="0px"
	 viewBox="0 0 576 792" style="enable-background:new 0 0 576 792;" xml:space="preserve">
<style type="text/css">
	.st0{fill:#FCFCFC;}
	.st1{fill:#47CFE2;}
	.st2{fill:#FF9C0A;}
	.st3{fill:#FFFFFF;}
	.st4{fill:url(#SVGID_1_);}
	.st5{fill:#FF5103;}
	.st6{fill:#EA8A0A;}
	.st7{fill:#E84707;}
	.st8{fill:#3FB3BC;}
	.st9{fill:#CCCCCC;}
</style>
<circle class="st0" cx="430.2" cy="881.1" r="41.2"/>
<circle class="st0" cx="372.2" cy="881.1" r="41.2"/>
<ellipse class="st0" cx="560.7" cy="890.1" rx="42.3" ry="35.2"/>
<circle class="st0" cx="173.2" cy="911.3" r="41.2"/>
<circle class="st0" cx="-19.8" cy="870.1" r="17"/>
<g>
	<path class="st1" d="M259.9,386.5c0,0,2.7,52.3,28.1,70.5v-70.5H259.9z"/>
	<path class="st1" d="M316.1,386.5c0,0-2.7,52.3-28.1,70.5v-70.5H316.1z"/>
	<path class="st2" d="M266.3,386.5c0,0,2.1,40.4,21.7,54.5v-54.5H266.3z"/>
	<path class="st2" d="M309.7,386.5c0,0-2.1,40.4-21.7,54.5v-54.5H309.7z"/>
	<path class="st0" d="M270.7,386.5c0,0,1.7,32.2,17.3,43.5v-43.5H270.7z"/>
	<path class="st0" d="M305.3,386.5c0,0-1.7,32.2-17.3,43.5v-43.5H305.3z"/>
</g>
<path class="st1" d="M-56.5,718.8v0.2H-61C-59.5,719-58,718.9-56.5,718.8z"/>
<path class="st0" d="M667,974.4v42.8h-38.5c-1.5,0.2-3,0.2-4.5,0.2H170.5c-1.2,0-2.3,0-3.5-0.2c-1.2,0.1-2.3,0.2-3.5,0.2h-317.5
	c-1.5,0-3.1-0.1-4.6-0.2h-38.4v-42.8c0-23.3,18.5-42.2,41.6-43c3.2-41.1,37.5-73.4,79.5-73.4c19.8,0,37.9,7.2,51.8,19.2
	c18.4-14.9,43.9-24,72-24c39,0,72.8,17.6,89.9,43.6c0.8-0.1,1.7-0.1,2.5-0.1c13.8,0,25.8,8,31.4,19.7c9.4-33.6,40.2-58.3,76.8-58.3
	c19.8,0,37.9,7.2,51.8,19.2c18.4-14.9,43.9-24,72-24c26.1,0,50,8,68,21c18-13.1,41.9-21,68-21c38.9,0,72.8,17.6,89.9,43.6
	c0.8-0.1,1.7-0.1,2.5-0.1c19.2,0,34.8,15.6,34.8,34.8c0,0.5,0,1.1,0,1.6C653.7,938.1,667,954.7,667,974.4z"/>
<path class="st3" d="M667,1056.6v42.8h-38.5c-1.5,0.2-3,0.2-4.5,0.2H170.5c-1.2,0-2.3-0.1-3.5-0.2c-1.2,0.1-2.3,0.2-3.5,0.2h-317.5
	c-1.5,0-3.1-0.1-4.6-0.2h-38.4v-42.8c0-23.3,18.5-42.3,41.6-43c3.2-41.1,37.5-73.4,79.5-73.4c19.8,0,37.9,7.2,51.8,19.2
	c18.4-14.9,43.9-24,72-24c39,0,72.8,17.6,89.9,43.6c0.8-0.1,1.7-0.1,2.5-0.1c13.8,0,25.8,8,31.4,19.7c9.4-33.6,40.2-58.3,76.8-58.3
	c19.8,0,37.9,7.2,51.8,19.2c18.4-14.9,43.9-24,72-24c26.1,0,50,8,68,21c18-13.1,41.9-21,68-21c38.9,0,72.8,17.6,89.9,43.6
	c0.8-0.1,1.7-0.1,2.5-0.1c19.2,0,34.8,15.6,34.8,34.8c0,0.5,0,1.1,0,1.6C653.7,1020.2,667,1036.8,667,1056.6z"/>
<linearGradient id="SVGID_1_" gradientUnits="userSpaceOnUse" x1="1102.5497" y1="505.585" x2="1102.5497" y2="-47.8955">
	<stop  offset="0" style="stop-color:#FFF33B"/>
	<stop  offset="4.541215e-03" style="stop-color:#FFF13B"/>
	<stop  offset="9.333974e-02" style="stop-color:#F9C73B"/>
	<stop  offset="0.1841" style="stop-color:#F5A53C"/>
	<stop  offset="0.276" style="stop-color:#F18A3C"/>
	<stop  offset="0.3694" style="stop-color:#EF773C"/>
	<stop  offset="0.4653" style="stop-color:#ED6C3C"/>
	<stop  offset="0.5674" style="stop-color:#ED683C"/>
	<stop  offset="0.6372" style="stop-color:#E66556"/>
	<stop  offset="0.7866" style="stop-color:#D65F98"/>
	<stop  offset="1" style="stop-color:#BB55FF"/>
</linearGradient>
<rect x="819.1" y="21.1" class="st4" width="567" height="397.2"/>
<path class="st2" d="M288,138.1c0,0-87.7,51.3-37.4,223.6H288V138.1z"/>
<polygon class="st5" points="288,287.1 276.4,329.4 288,448.6 "/>
<path class="st5" d="M235.4,278.6c-3.4,3-52.9,48.5-48.5,116.9c0,0.2,0.2,0.2,0.3,0c2.7-7,27.8-69.5,63-34.3c0.1,0.1,0.3,0,0.2-0.1
	C250.5,361.2,235.5,278.6,235.4,278.6z"/>
<path class="st1" d="M242.7,318.9c-37.6,0.1-53.6,51.7-55.6,76.7c0,0.1,0.1,0.1,0.2,0c2.5-6.5,27.8-67.9,63.3-33.9L242.7,318.9z"/>
<path class="st1" d="M288,184.4c0,0-19.2,0.4-30.9-12c0,0,12.9-24.4,30.9-34.4V184.4z"/>
<path class="st6" d="M288,138.1c0,0,87.7,51.3,37.4,223.6H288V138.1z"/>
<polygon class="st7" points="288,287.1 299.6,329.4 288,448.6 "/>
<path class="st7" d="M340.6,278.6c3.4,3,52.9,48.5,48.5,116.9c0,0.2-0.2,0.2-0.3,0c-2.7-7-27.8-69.5-63-34.3c-0.1,0.1-0.3,0-0.2-0.1
	C325.5,361.2,340.5,278.6,340.6,278.6z"/>
<path class="st8" d="M333.3,318.9c37.6,0.1,53.6,51.7,55.6,76.7c0,0.1-0.1,0.1-0.2,0c-2.5-6.5-27.8-67.9-63.3-33.9L333.3,318.9z"/>
<path class="st8" d="M288,184.4c0,0,19.2,0.4,30.9-12c0,0-12.9-24.4-30.9-34.4V184.4z"/>
<circle class="st7" cx="288" cy="213" r="20.5"/>
<circle class="st9" cx="288" cy="213" r="17.1"/>
<path class="st6" d="M288,192.5c-11.3,0-20.5,9.2-20.5,20.5c0,11.3,9.2,20.5,20.5,20.5V192.5z"/>
<path class="st3" d="M288,195.9c-9.4,0-17.1,7.7-17.1,17.1c0,9.4,7.7,17.1,17.1,17.1V195.9z"/>
<circle class="st7" cx="288" cy="259" r="15.5"/>
<circle class="st9" cx="288" cy="259" r="12.9"/>
<path class="st6" d="M288,243.5c-8.5,0-15.5,6.9-15.5,15.5c0,8.5,6.9,15.5,15.5,15.5V243.5z"/>
<path class="st3" d="M288,246.1c-7.1,0-12.9,5.8-12.9,12.9c0,7.1,5.8,12.9,12.9,12.9V246.1z"/>
<polygon class="st1" points="250.6,361.6 253.8,378.5 281.2,378.5 279.4,361.6 "/>
<polygon class="st8" points="325.4,361.6 322.2,378.5 294.8,378.5 296.6,361.6 "/>
<circle class="st0" cx="52.2" cy="963.5" r="41.2"/>
<circle class="st0" cx="302" cy="972.3" r="41.2"/>
<path class="st1" d="M667,1098.4v42.8h-38.5c-1.5,0.2-3,0.2-4.5,0.2H170.5c-1.2,0-2.3-0.1-3.5-0.2c-1.2,0.1-2.3,0.2-3.5,0.2h-317.5
	c-1.5,0-3.1-0.1-4.6-0.2h-38.4v-42.8c0-23.3,18.5-42.2,41.6-43c3.2-41.1,37.5-73.4,79.5-73.4c19.8,0,37.9,7.2,51.8,19.2
	c18.4-14.9,43.9-24,72-24c39,0,72.8,17.6,89.9,43.6c0.8-0.1,1.7-0.1,2.5-0.1c13.8,0,25.8,8.1,31.4,19.7
	c9.4-33.6,40.2-58.3,76.8-58.3c19.8,0,37.9,7.2,51.8,19.2c18.4-14.9,43.9-24,72-24c26.1,0,50,8,68,21c18-13.1,41.9-21,68-21
	c38.9,0,72.8,17.6,89.9,43.6c0.8-0.1,1.7-0.1,2.5-0.1c19.2,0,34.8,15.6,34.8,34.8c0,0.5,0,1.1,0,1.6
	C653.7,1062.1,667,1078.7,667,1098.4z"/>
</svg>
