<svg xmlns="http://www.w3.org/2000/svg" viewBox="0 0 556.76 246.6"><defs><style>.cls-1{fill:#47cfe2;}.cls-2{fill:#ff9c0a;}.cls-3{fill:#fcfcfc;}.cls-4{fill:#ff5103;}.cls-5{fill:#ea8a0a;}.cls-6{fill:#e84707;}.cls-7{fill:#3fb3bc;}.cls-8{fill:#ccc;}.cls-9{fill:#fff;}</style></defs><title>Asset 1highest</title><g id="Layer_2" data-name="Layer 2"><g id="Layer_1-2" data-name="Layer 1"><path class="cls-1" d="M376.81,246.36v.24h-4.6A43.73,43.73,0,0,0,376.81,246.36Z"/><g id="Layer_2-2" data-name="Layer 2"><g id="Layer_1-2-2" data-name="Layer 1-2"><path class="cls-1" d="M311.69,76s-48.95,18.54-58.5,48.28l67.08-21.53Z"/><path class="cls-1" d="M328.86,129.54s-50.6,13.4-75.67-5.23l67.08-21.53Z"/><path class="cls-2" d="M313.64,82.11s-37.83,14.33-45.21,37.32l51.85-16.64Z"/><path class="cls-2" d="M326.91,123.47s-39.11,10.35-58.48-4l51.85-16.64Z"/><path class="cls-3" d="M315,86.28s-30.19,11.44-36.08,29.78l41.37-13.28Z"/><path class="cls-3" d="M325.57,119.29s-31.21,8.26-46.67-3.23l41.37-13.28Z"/><path class="cls-2" d="M556.76,26.9S481.08-40.93,332.44,59.55l11.44,35.66Z"/><polygon class="cls-4" points="414.85 72.44 371.1 74.3 261.1 121.77 414.85 72.44"/><path class="cls-4" d="M406.87,19.79C403,17.48,344.51-15.78,280.75,9.33a.15.15,0,0,0,.09.27c7.48.41,74.7,5.23,51.87,49.52a.14.14,0,0,0,.19.19S407,19.84,406.87,19.79Z"/><path class="cls-1" d="M370.74,39c-11.67-35.77-65.63-35.22-90-29.53a.08.08,0,0,0,0,.15c6.94.41,73.11,5.73,51.68,49.94Z"/><path class="cls-1" d="M512.61,41.07s-6.27-18.14,2-33.11c0,0,27.21,4.83,42.17,18.94Z"/><path class="cls-5" d="M556.76,26.9s-22.09,99.2-201.44,104L343.88,95.21Z"/><polygon class="cls-6" points="414.85 72.44 378.18 96.39 261.1 121.77 414.85 72.44"/><path class="cls-6" d="M439,119.91c-1.82,4.13-30,65.21-96.49,81.89a.15.15,0,0,1-.09-.27c5.85-4.69,57.71-47.72,13.37-70.46a.14.14,0,0,1,0-.27S439,119.81,439,119.91Z"/><path class="cls-7" d="M398.45,125.33c11.36,35.86-32.88,66.83-56,76.36a.08.08,0,0,1,0-.15c5.4-4.37,56.12-47.2,13-70.68Z"/><path class="cls-7" d="M512.61,41.07s5.45,18.4,20.87,25.77c0,0,19.32-19.76,23.28-39.94Z"/><circle class="cls-6" cx="485.41" cy="49.8" r="20.49" transform="translate(8 150.69) rotate(-17.79)"/><circle class="cls-8" cx="485.41" cy="49.8" r="17.11" transform="translate(8 150.69) rotate(-17.79)"/><path class="cls-5" d="M504.93,43.53a20.5,20.5,0,0,0-39,12.53Z"/><path class="cls-9" d="M501.7,44.57A17.11,17.11,0,1,0,469.12,55Z"/><circle class="cls-6" cx="441.65" cy="63.84" r="15.46" transform="translate(1.62 138) rotate(-17.79)"/><circle class="cls-8" cx="441.65" cy="63.84" r="12.9" transform="translate(1.62 138) rotate(-17.79)"/><path class="cls-5" d="M456.37,59.11a15.46,15.46,0,0,0-29.44,9.44h0Z"/><path class="cls-9" d="M453.93,59.9a12.9,12.9,0,0,0-24.58,7.89Z"/><polygon class="cls-1" points="332.44 59.56 317.39 67.85 325.74 93.88 341.27 87.07 332.44 59.56"/><polygon class="cls-7" points="355.33 130.87 338.26 132.89 329.9 106.86 346.5 103.36 355.33 130.87"/></g></g><path class="cls-1" d="M244.44,127a182.34,182.34,0,0,0-28,19.77c-71.14,10.81-131.58,63.44-206.11,61Q8,205.77,5.61,203.78q1.66-1.75,3.3-3.56-2.35-1.94-4.7-3.93,1.65-1.75,3.28-3.56-2.34-1.94-4.68-3.93,1.64-1.75,3.26-3.56-2.33-1.94-4.67-3.93,1.63-1.76,3.25-3.56Q2.33,175.79,0,173.8q1.63-1.76,3.23-3.56c73.06,2.42,132.3-49.17,202-59.77A330.83,330.83,0,0,1,244.44,127Z"/><path class="cls-9" d="M61.37,183a14.89,14.89,0,0,1,0,2.52,6.78,6.78,0,0,1-.64,2.33,5.57,5.57,0,0,1-1.57,1.93,7.32,7.32,0,0,1-2.83,1.3,5.35,5.35,0,0,1-3.59-.18,4,4,0,0,1-2.09-2.79q1.74-.85,3.48-1.73a1.4,1.4,0,0,0,.66,1,1.47,1.47,0,0,0,1.18.18,1.79,1.79,0,0,0,1-.61,2.64,2.64,0,0,0,.48-1,4.44,4.44,0,0,0,.12-1.18q0-.61-.05-1.13-.44-5.86-.89-11.73,1.9-.51,3.79-1.06Q60.9,176.89,61.37,183Z"/><path class="cls-9" d="M63.73,182.15a7.69,7.69,0,0,1,.29-2.87,8.46,8.46,0,0,1,1.22-2.5,8.63,8.63,0,0,1,2-2,8.9,8.9,0,0,1,2.51-1.28,7.06,7.06,0,0,1,2.58-.37,4.76,4.76,0,0,1,2.19.64,4.47,4.47,0,0,1,1.57,1.62,6.07,6.07,0,0,1,.75,2.55,7.78,7.78,0,0,1-.27,2.91,8.89,8.89,0,0,1-1.21,2.56,8.66,8.66,0,0,1-4.49,3.32,6.86,6.86,0,0,1-2.61.33,4.57,4.57,0,0,1-3.76-2.38A6.1,6.1,0,0,1,63.73,182.15Zm3.65-1.1a2.75,2.75,0,0,0,.94,2.07,2.31,2.31,0,0,0,2.22.21,3.62,3.62,0,0,0,2.08-1.58,4.16,4.16,0,0,0,.58-2.57,2.69,2.69,0,0,0-1-2.06,2.35,2.35,0,0,0-2.22-.18A3.61,3.61,0,0,0,68,178.51,4.14,4.14,0,0,0,67.39,181.05Z"/><path class="cls-9" d="M85.28,172.23a2,2,0,0,0-2.2-.29,2.47,2.47,0,0,0-.86.56,1.13,1.13,0,0,0-.35,1,.52.52,0,0,0,.51.53,5.36,5.36,0,0,0,1.16,0l1.48-.17a4.44,4.44,0,0,1,1.51.07,2.33,2.33,0,0,1,1.22.71,3,3,0,0,1,.63,1.74,4.33,4.33,0,0,1-.29,2.2A6,6,0,0,1,87,180.27a7.33,7.33,0,0,1-1.66,1.32,11.6,11.6,0,0,1-1.88.89,8.68,8.68,0,0,1-2.51.51,3.52,3.52,0,0,1-2.25-.59l2-3.4a2.75,2.75,0,0,0,1.22.62,2.68,2.68,0,0,0,1.46-.17,4,4,0,0,0,1.11-.61,1,1,0,0,0,.44-.9.57.57,0,0,0-.51-.58,4.25,4.25,0,0,0-1.17,0l-1.5.17a5,5,0,0,1-1.52-.06,2.27,2.27,0,0,1-1.24-.7,2.86,2.86,0,0,1-.61-1.76,4.73,4.73,0,0,1,.25-2.07,5.78,5.78,0,0,1,1-1.72A6.93,6.93,0,0,1,81,169.88a8.57,8.57,0,0,1,1.76-.9,8.19,8.19,0,0,1,2.35-.5,3.21,3.21,0,0,1,2.1.55Z"/><path class="cls-9" d="M92.27,158.35q.44,4.38.87,8.76l0,0a3.61,3.61,0,0,1,.32-.89,4.79,4.79,0,0,1,.61-.92,5.57,5.57,0,0,1,.9-.85,5,5,0,0,1,1.17-.66,4.63,4.63,0,0,1,2.23-.44,2.18,2.18,0,0,1,1.42.73,4.08,4.08,0,0,1,.82,1.65,14.59,14.59,0,0,1,.4,2.31q.36,3.49.72,7l-3.57,1.46-.63-6.2q-.05-.55-.14-1.12a3,3,0,0,0-.32-1,1.25,1.25,0,0,0-.63-.58,1.5,1.5,0,0,0-1.09.11,2.89,2.89,0,0,0-1.09.72,2.79,2.79,0,0,0-.58,1,3.88,3.88,0,0,0-.2,1.15,9.16,9.16,0,0,0,.06,1.22l.61,6.31-3.59,1.4q-.93-9.85-1.9-19.7Z"/><path class="cls-9" d="M118.5,153.32a1.91,1.91,0,0,0-1.33-.4,4.13,4.13,0,0,0-1.48.33,4.81,4.81,0,0,0-.82.46,4.2,4.2,0,0,0-.76.67,3,3,0,0,0-.53.84,2,2,0,0,0-.14,1,1.22,1.22,0,0,0,.44.89,1.78,1.78,0,0,0,.94.31,6.52,6.52,0,0,0,1.29-.05c.48-.06,1-.11,1.47-.14a9.71,9.71,0,0,1,1.48,0,3.44,3.44,0,0,1,1.34.39,2.74,2.74,0,0,1,1,1,4.57,4.57,0,0,1,.55,1.9,7.29,7.29,0,0,1-.22,2.91,8.4,8.4,0,0,1-1.2,2.51,9.22,9.22,0,0,1-1.93,2,11.34,11.34,0,0,1-2.44,1.43,8.59,8.59,0,0,1-3.09.75,5.55,5.55,0,0,1-2.81-.66l2.31-4.31a2.74,2.74,0,0,0,1.57.68,3.62,3.62,0,0,0,1.82-.31,4.92,4.92,0,0,0,.89-.51,4.5,4.5,0,0,0,.79-.71,3,3,0,0,0,.53-.86,2,2,0,0,0,.14-1,1.12,1.12,0,0,0-.73-1.06,4.19,4.19,0,0,0-1.55-.19q-.91,0-2,.13a6.6,6.6,0,0,1-2-.1,3.13,3.13,0,0,1-1.62-.89,3.7,3.7,0,0,1-.85-2.23,7.08,7.08,0,0,1,.25-2.83,8.53,8.53,0,0,1,1.21-2.48,9.69,9.69,0,0,1,1.91-2,10.47,10.47,0,0,1,2.33-1.4,9,9,0,0,1,2.77-.73,4.58,4.58,0,0,1,2.53.46Z"/><path class="cls-9" d="M135.53,158.27a9.09,9.09,0,0,1-1.92,2.76,8.6,8.6,0,0,1-2.62,1.82,7,7,0,0,1-2.55.61,4.32,4.32,0,0,1-2.18-.46,4.16,4.16,0,0,1-1.59-1.51,5.92,5.92,0,0,1-.81-2.51A8.26,8.26,0,0,1,124,156a9.43,9.43,0,0,1,3-4.89,9.19,9.19,0,0,1,2.42-1.54,5.31,5.31,0,0,1,2.28-.49,3.36,3.36,0,0,1,1.86.61,4.28,4.28,0,0,1,1.33,1.63,7.88,7.88,0,0,1,.71,2.56l.14,1.22-8.22,3.54a2.16,2.16,0,0,0,1.13,1.38,2.21,2.21,0,0,0,1.83-.1,3.6,3.6,0,0,0,1.42-1.06,6.88,6.88,0,0,0,.92-1.56ZM131.86,154a1.8,1.8,0,0,0-.79-1.43,1.7,1.7,0,0,0-1.66,0,3.4,3.4,0,0,0-1,.65,4,4,0,0,0-.69.86,3.67,3.67,0,0,0-.4,1,3.38,3.38,0,0,0-.11,1Z"/><path class="cls-9" d="M137,146.67l3.54-1.49q.79,6.28,1.56,12.58l-3.56,1.51Q137.79,153,137,146.67Zm-.78-3.84a3,3,0,0,1,.06-1,3.13,3.13,0,0,1,.35-.9,3.51,3.51,0,0,1,.6-.76,2.55,2.55,0,0,1,.78-.52,1.58,1.58,0,0,1,1.52.06,1.72,1.72,0,0,1,.79,1.34,2.53,2.53,0,0,1,0,.94,3.09,3.09,0,0,1-.35.9,3.49,3.49,0,0,1-.6.75,2.56,2.56,0,0,1-.78.52,1.84,1.84,0,0,1-.82.16,1.55,1.55,0,0,1-.71-.2,1.49,1.49,0,0,1-.52-.53A2.17,2.17,0,0,1,136.24,142.84Z"/><path class="cls-9" d="M143.43,144l3.26-1.34.21,1.65,0,0a4.76,4.76,0,0,1,.46-.91,7.51,7.51,0,0,1,.72-1,6.66,6.66,0,0,1,.93-.87,4.78,4.78,0,0,1,1.14-.65,5.58,5.58,0,0,1,2.39-.45,4,4,0,0,1,2,.63,4.33,4.33,0,0,1,1.43,1.59,6.86,6.86,0,0,1,.74,2.44,9.11,9.11,0,0,1,0,2.65,9.47,9.47,0,0,1-.77,2.53,7.88,7.88,0,0,1-1.46,2.14,6.45,6.45,0,0,1-4.29,1.92,2.35,2.35,0,0,1-1.73-.63l0,0,.89,7.24-3.57,1.49Q144.58,153.2,143.43,144Zm4.06,4.93a2.63,2.63,0,0,0,1,2,2.28,2.28,0,0,0,2.21,0,3.82,3.82,0,0,0,2-1.73,4.21,4.21,0,0,0,.46-2.6,2.63,2.63,0,0,0-1-2,2.31,2.31,0,0,0-2.22,0,3.74,3.74,0,0,0-2,1.73A4.3,4.3,0,0,0,147.49,148.9Z"/><path class="cls-9" d="M170.42,144.39a8.11,8.11,0,0,1-1.93,2.59,8.19,8.19,0,0,1-2.65,1.64,7.25,7.25,0,0,1-2.59.48,4.74,4.74,0,0,1-2.23-.54,4.52,4.52,0,0,1-1.64-1.54,6,6,0,0,1-.86-2.5,7.76,7.76,0,0,1,.14-2.89,8.58,8.58,0,0,1,5.41-6.06,5.38,5.38,0,0,1,2.32-.35,3.77,3.77,0,0,1,1.91.7,4.7,4.7,0,0,1,1.38,1.67,7.87,7.87,0,0,1,.76,2.54l.16,1.2q-4.19,1.46-8.35,3a2.17,2.17,0,0,0,3,1.4,3.37,3.37,0,0,0,1.44-1,6.13,6.13,0,0,0,.92-1.47Zm-3.8-4.38a1.9,1.9,0,0,0-.83-1.44,1.81,1.81,0,0,0-1.69-.11,3.19,3.19,0,0,0-1,.59,3.63,3.63,0,0,0-.7.81,3.3,3.3,0,0,0-.4.93,3.13,3.13,0,0,0-.1,1Q164.24,140.86,166.62,140Z"/><path class="cls-9" d="M170.84,126.31l3.6-1.17q1.37,9.59,2.73,19.2l-3.63,1.22Q172.2,135.92,170.84,126.31Z"/></g></g></svg>