<?xml version="1.0" encoding="utf-8"?>
<!-- Generator: Adobe Illustrator 21.0.2, SVG Export Plug-In . SVG Version: 6.00 Build 0)  -->
<svg version="1.1" id="Layer_1" xmlns="http://www.w3.org/2000/svg" xmlns:xlink="http://www.w3.org/1999/xlink" x="0px" y="0px"
	 viewBox="0 0 576 792" style="enable-background:new 0 0 576 792;" xml:space="preserve">
<style type="text/css">
	.st0{fill:#FF9C0A;}
	.st1{fill:#FF5103;}
	.st2{fill:#47CFE2;}
	.st3{fill:#EA8A0A;}
	.st4{fill:#E84707;}
	.st5{fill:#3FB3BC;}
	.st6{fill:#CCCCCC;}
	.st7{fill:#FFFFFF;}
</style>
<g>
	<path class="st0" d="M267,117.7c0,0-70.6,41.3-30.2,180H267V117.7z"/>
	<polygon class="st1" points="267,237.7 257.7,271.7 267,367.7 	"/>
	<path class="st1" d="M224.7,230.8c-2.7,2.4-42.6,39.1-39,94.1c0,0.1,0.2,0.2,0.2,0c2.2-5.7,22.4-56,50.7-27.6
		c0.1,0.1,0.2,0,0.2-0.1C236.8,297.3,224.7,230.8,224.7,230.8z"/>
	<path class="st2" d="M230.5,263.3c-30.3,0.1-43.1,41.7-44.8,61.7c0,0.1,0.1,0.1,0.1,0c2-5.2,22.4-54.6,51-27.3L230.5,263.3z"/>
	<path class="st2" d="M267,155c0,0-15.4,0.3-24.9-9.7c0,0,10.4-19.7,24.9-27.7V155z"/>
	<path class="st3" d="M267,117.7c0,0,70.6,41.3,30.2,180H267V117.7z"/>
	<polygon class="st4" points="267,237.7 276.3,271.7 267,367.7 	"/>
	<path class="st4" d="M309.3,230.8c2.7,2.4,42.6,39.1,39,94.1c0,0.1-0.2,0.2-0.2,0c-2.2-5.7-22.4-56-50.7-27.6
		c-0.1,0.1-0.2,0-0.2-0.1C297.2,297.3,309.3,230.8,309.3,230.8z"/>
	<path class="st5" d="M303.5,263.3c30.3,0.1,43.1,41.7,44.8,61.7c0,0.1-0.1,0.1-0.1,0c-2-5.2-22.4-54.6-51-27.3L303.5,263.3z"/>
	<path class="st5" d="M267,155c0,0,15.4,0.3,24.9-9.7c0,0-10.4-19.7-24.9-27.7V155z"/>
	<circle class="st4" cx="267" cy="178" r="16.5"/>
	<circle class="st6" cx="267" cy="178" r="13.8"/>
	<path class="st3" d="M267,161.5c-9.1,0-16.5,7.4-16.5,16.5c0,9.1,7.4,16.5,16.5,16.5V161.5z"/>
	<path class="st7" d="M267,164.2c-7.6,0-13.8,6.2-13.8,13.8c0,7.6,6.2,13.8,13.8,13.8V164.2z"/>
	<circle class="st4" cx="267" cy="215" r="12.4"/>
	<circle class="st6" cx="267" cy="215" r="10.4"/>
	<path class="st3" d="M267,202.6c-6.9,0-12.4,5.6-12.4,12.4c0,6.9,5.6,12.4,12.4,12.4V202.6z"/>
	<path class="st7" d="M267,204.6c-5.7,0-10.4,4.7-10.4,10.4c0,5.7,4.7,10.4,10.4,10.4V204.6z"/>
	<polygon class="st2" points="236.8,297.7 239.5,311.2 261.5,311.2 260.1,297.7 	"/>
	<polygon class="st5" points="297.2,297.7 294.5,311.2 272.5,311.2 273.9,297.7 	"/>
</g>
<circle class="st2" cx="79" cy="577" r="43"/>
<circle class="st2" cx="396.4" cy="577" r="43"/>
<circle class="st2" cx="373.3" cy="534" r="34.8"/>
<circle class="st2" cx="157.1" cy="540.3" r="79.7"/>
<ellipse class="st2" cx="280.9" cy="537.9" rx="101.8" ry="82.1"/>
<rect x="79" y="589" class="st2" width="322" height="31"/>
</svg>
