<svg xmlns="http://www.w3.org/2000/svg" viewBox="0 0 230.78 231.94"><defs><style>.cls-1{fill:#ffd017;}.cls-2{fill:#ff9c0a;}</style></defs><title>Asset 4highest</title><g id="Layer_2" data-name="Layer 2"><g id="Layer_1-2" data-name="Layer 1"><polygon class="cls-1" points="79.5 6.3 116.81 47.09 95.5 54.2 74.2 61.32 79.5 6.3"/><polygon class="cls-1" points="21.9 48.34 76.05 59.41 62.99 77.69 49.94 95.97 21.9 48.34"/><polygon class="cls-1" points="0 116.21 50.31 93.33 50.5 115.8 50.68 138.26 0 116.21"/><polygon class="cls-1" points="22.18 183.99 49.43 135.91 62.79 153.97 76.14 172.03 22.18 183.99"/><polygon class="cls-1" points="79.96 225.79 73.75 170.87 95.17 177.63 116.59 184.4 79.96 225.79"/><polygon class="cls-1" points="151.27 225.64 113.97 184.86 135.27 177.74 156.58 170.63 151.27 225.64"/><polygon class="cls-1" points="208.88 183.6 154.73 172.54 167.78 154.26 180.84 135.98 208.88 183.6"/><polygon class="cls-1" points="230.78 115.73 180.47 138.61 180.28 116.15 180.09 93.69 230.78 115.73"/><polygon class="cls-1" points="208.6 47.95 181.34 96.04 167.99 77.97 154.64 59.91 208.6 47.95"/><polygon class="cls-1" points="150.82 6.16 157.03 61.08 135.61 54.31 114.19 47.55 150.82 6.16"/><polygon class="cls-2" points="115.39 0 137.85 50.5 115.39 50.5 92.93 50.5 115.39 0"/><polygon class="cls-2" points="47.22 22.15 95.08 49.8 76.91 63 58.73 76.21 47.22 22.15"/><polygon class="cls-2" points="5.09 80.14 60.06 74.38 53.12 95.74 46.18 117.1 5.09 80.14"/><polygon class="cls-2" points="5.09 151.81 46.18 114.84 53.12 136.2 60.06 157.57 5.09 151.81"/><polygon class="cls-2" points="47.22 209.8 58.73 155.74 76.91 168.94 95.08 182.14 47.22 209.8"/><polygon class="cls-2" points="115.39 231.94 92.93 181.44 115.39 181.44 137.85 181.44 115.39 231.94"/><polygon class="cls-2" points="183.56 209.8 135.7 182.14 153.87 168.94 172.04 155.74 183.56 209.8"/><polygon class="cls-2" points="225.69 151.81 170.72 157.57 177.66 136.2 184.6 114.84 225.69 151.81"/><polygon class="cls-2" points="225.69 80.14 184.6 117.1 177.66 95.74 170.72 74.38 225.69 80.14"/><polygon class="cls-2" points="183.56 22.15 172.04 76.21 153.87 63 135.7 49.8 183.56 22.15"/><circle class="cls-1" cx="115.39" cy="115.97" r="68.75"/></g></g></svg>