<svg xmlns="http://www.w3.org/2000/svg" viewBox="0 0 132.9 126.85"><defs><style>.cls-1{fill:#ffd017;}.cls-2{fill:#f95d48;}.cls-3{fill:#ff9c0a;}</style></defs><title>Asset 7highest</title><g id="Layer_2" data-name="Layer 2"><g id="Layer_1-2" data-name="Layer 1"><polyline class="cls-1" points="97.87 53.93 91.51 45.32 85.15 36.72"/><polygon class="cls-2" points="86.29 0 86.29 37.27 76.08 34.05 65.88 30.82 86.29 0"/><polygon class="cls-2" points="45.22 0.45 67.13 30.61 56.98 34 46.83 37.39 45.22 0.45"/><polygon class="cls-2" points="12.26 24.96 47.71 36.48 41.49 45.19 35.27 53.89 12.26 24.96"/><polygon class="cls-2" points="0 64.16 35.45 52.64 35.53 63.34 35.62 74.04 0 64.16"/><polygon class="cls-2" points="13.12 103.08 35.03 72.92 41.39 81.53 47.75 90.13 13.12 103.08"/><polygon class="cls-2" points="46.61 126.85 46.61 89.58 56.82 92.8 67.02 96.02 46.61 126.85"/><polygon class="cls-2" points="87.68 126.4 65.77 96.24 75.92 92.85 86.07 89.46 87.68 126.4"/><polygon class="cls-2" points="120.64 101.89 85.19 90.37 91.41 81.66 97.63 72.95 120.64 101.89"/><polygon class="cls-2" points="132.9 62.69 97.45 74.21 97.37 63.51 97.28 52.81 132.9 62.69"/><polygon class="cls-2" points="119.78 23.77 97.87 53.93 91.51 45.32 85.15 36.72 119.78 23.77"/><polygon class="cls-3" points="66.45 8.17 77.15 32.23 66.45 32.23 55.75 32.23 66.45 8.17"/><polygon class="cls-3" points="33.98 18.73 56.77 31.9 48.12 38.19 39.46 44.48 33.98 18.73"/><polygon class="cls-3" points="13.9 46.35 40.09 43.61 36.78 53.78 33.48 63.96 13.9 46.35"/><polygon class="cls-3" points="13.9 80.5 33.48 62.89 36.78 73.06 40.09 83.24 13.9 80.5"/><polygon class="cls-3" points="33.98 108.12 39.46 82.37 48.12 88.66 56.77 94.95 33.98 108.12"/><polygon class="cls-3" points="66.45 118.68 55.75 94.62 66.45 94.62 77.15 94.62 66.45 118.68"/><polygon class="cls-3" points="98.93 108.12 76.13 94.95 84.78 88.66 93.44 82.37 98.93 108.12"/><polygon class="cls-3" points="119 80.5 92.81 83.24 96.12 73.06 99.42 62.89 119 80.5"/><polygon class="cls-3" points="119 46.35 99.42 63.96 96.12 53.78 92.81 43.61 119 46.35"/><polygon class="cls-3" points="98.93 18.73 93.44 44.48 84.78 38.19 76.13 31.9 98.93 18.73"/><circle class="cls-1" cx="66.45" cy="63.42" r="32.75"/></g></g></svg>